<svg width="1600" height="8937" viewBox="0 0 1600 8937" fill="none" xmlns="http://www.w3.org/2000/svg">
<g clip-path="url(#clip0_559_64522)">
<line x1="-94.3208" y1="-8.14853" x2="1012.61" y2="6892.5" stroke="#F1F1F1" stroke-opacity="0.2"/>
<line x1="-35.8325" y1="-17.5294" x2="1071.1" y2="6883.12" stroke="#F1F1F1" stroke-opacity="0.2"/>
<line x1="22.6548" y1="-26.9122" x2="1129.59" y2="6873.73" stroke="#F1F1F1" stroke-opacity="0.2"/>
<line x1="81.1431" y1="-36.294" x2="1188.08" y2="6864.35" stroke="#F1F1F1" stroke-opacity="0.2"/>
<line x1="139.63" y1="-45.6759" x2="1246.56" y2="6854.97" stroke="#F1F1F1" stroke-opacity="0.2"/>
<line x1="198.119" y1="-55.0587" x2="1305.05" y2="6845.59" stroke="#F1F1F1" stroke-opacity="0.2"/>
<line x1="256.607" y1="-64.4405" x2="1363.54" y2="6836.2" stroke="#F1F1F1" stroke-opacity="0.2"/>
<line x1="315.095" y1="-73.8224" x2="1422.03" y2="6826.82" stroke="#F1F1F1" stroke-opacity="0.2"/>
<line x1="373.583" y1="-83.2052" x2="1480.52" y2="6817.44" stroke="#F1F1F1" stroke-opacity="0.2"/>
<line x1="432.071" y1="-92.587" x2="1539" y2="6808.06" stroke="#F1F1F1" stroke-opacity="0.2"/>
<line x1="490.558" y1="-101.969" x2="1597.49" y2="6798.68" stroke="#F1F1F1" stroke-opacity="0.2"/>
<line x1="549.046" y1="-111.351" x2="1655.98" y2="6789.29" stroke="#F1F1F1" stroke-opacity="0.2"/>
<line x1="607.535" y1="-120.733" x2="1714.47" y2="6779.91" stroke="#F1F1F1" stroke-opacity="0.2"/>
<line x1="666.022" y1="-130.115" x2="1772.96" y2="6770.53" stroke="#F1F1F1" stroke-opacity="0.2"/>
<line x1="724.51" y1="-139.497" x2="1831.44" y2="6761.15" stroke="#F1F1F1" stroke-opacity="0.2"/>
<line x1="782.999" y1="-148.879" x2="1889.93" y2="6751.77" stroke="#F1F1F1" stroke-opacity="0.2"/>
<line x1="841.486" y1="-158.261" x2="1948.42" y2="6742.38" stroke="#F1F1F1" stroke-opacity="0.2"/>
<line x1="899.974" y1="-167.644" x2="2006.91" y2="6733" stroke="#F1F1F1" stroke-opacity="0.2"/>
<line x1="70.3964" y1="1470.65" x2="2262.95" y2="1118.94" stroke="#F1F1F1" stroke-opacity="0.2"/>
<line x1="61.0136" y1="1412.16" x2="2253.57" y2="1060.45" stroke="#F1F1F1" stroke-opacity="0.2"/>
<line x1="51.6308" y1="1353.67" x2="2244.19" y2="1001.96" stroke="#F1F1F1" stroke-opacity="0.2"/>
<line x1="42.2489" y1="1295.18" x2="2234.8" y2="943.476" stroke="#F1F1F1" stroke-opacity="0.2"/>
<line x1="32.8681" y1="1236.7" x2="2225.42" y2="884.988" stroke="#F1F1F1" stroke-opacity="0.2"/>
<line x1="23.4853" y1="1178.21" x2="2216.04" y2="826.499" stroke="#F1F1F1" stroke-opacity="0.2"/>
<line x1="14.1034" y1="1119.72" x2="2206.66" y2="768.012" stroke="#F1F1F1" stroke-opacity="0.2"/>
<line x1="4.72061" y1="1061.23" x2="2197.28" y2="709.524" stroke="#F1F1F1" stroke-opacity="0.2"/>
<line x1="-4.66025" y1="1002.74" x2="2187.9" y2="651.035" stroke="#F1F1F1" stroke-opacity="0.2"/>
<line x1="-14.0421" y1="944.256" x2="2178.51" y2="592.548" stroke="#F1F1F1" stroke-opacity="0.2"/>
<line x1="-23.4249" y1="885.768" x2="2169.13" y2="534.06" stroke="#F1F1F1" stroke-opacity="0.2"/>
<line x1="-32.8077" y1="827.28" x2="2159.75" y2="475.572" stroke="#F1F1F1" stroke-opacity="0.2"/>
<line x1="-42.1895" y1="768.792" x2="2150.37" y2="417.084" stroke="#F1F1F1" stroke-opacity="0.2"/>
<line x1="-51.5704" y1="710.304" x2="2140.99" y2="358.596" stroke="#F1F1F1" stroke-opacity="0.2"/>
<line x1="-60.9532" y1="651.817" x2="2131.6" y2="300.109" stroke="#F1F1F1" stroke-opacity="0.2"/>
<line x1="-70.3351" y1="593.329" x2="2122.22" y2="241.62" stroke="#F1F1F1" stroke-opacity="0.2"/>
<line x1="-79.7179" y1="534.84" x2="2112.84" y2="183.132" stroke="#F1F1F1" stroke-opacity="0.2"/>
<line x1="-89.0997" y1="476.353" x2="2103.46" y2="124.645" stroke="#F1F1F1" stroke-opacity="0.2"/>
<mask id="mask0_559_64522" style="mask-type:alpha" maskUnits="userSpaceOnUse" x="50" y="42" width="1500" height="840">
<path fill-rule="evenodd" clip-rule="evenodd" d="M50 62C50 50.9543 58.9543 42 70 42H1510C1532.09 42 1550 59.9086 1550 82V489C1548.22 505.605 1536.13 539.051 1502 540H1040.5C1029.45 540 1020.5 548.954 1020.5 560V831C1018.72 847.605 1006.63 881.051 972.5 882H275.5C241.367 881.051 229.278 847.605 227.5 831V560C227.5 548.954 218.546 540 207.5 540H98C63.8667 539.051 51.7778 505.605 50 489V62Z" fill="white"/>
</mask>
<g mask="url(#mask0_559_64522)">
<path opacity="0.6" d="M2226.97 208.961C1695.86 24.8238 1477.02 363.781 1298.81 442.556C1120.6 521.33 959.691 430.691 868.123 471.455C770.037 515.12 779.187 701.041 949.344 680.412C1159.93 654.882 1063.7 168.56 697.919 409.988C405.297 603.131 200.936 551.618 135.334 501.719C106.088 480.227 40.6769 430.175 13 401.9" stroke="url(#paint0_linear_559_64522)" stroke-opacity="0.4" stroke-width="115.715"/>
</g>
<path d="M1744.6 5294.29C1729.47 5389.18 1598.66 5597.14 1196.47 5669.91C693.729 5760.88 1004.16 6248.34 1202.24 6100.32C1362.29 5980.71 1200.39 5807.08 1094.92 5856.25C989.013 5905.61 929.785 6104.09 716.127 6181.16C502.469 6258.23 274.297 6182.82 -69.505 6509.78" stroke="url(#paint1_linear_559_64522)" stroke-width="130"/>
<path d="M-82.7559 3736.41C13.1027 3729.84 245.132 3810.6 406.382 4186.17C607.943 4655.63 1013.23 4243.65 824.493 4083.88C671.993 3954.77 539.164 4151.54 610.761 4243.28C682.651 4335.39 889.363 4348.52 1012.45 4539.41C1135.55 4730.3 1186.5 5106 1659 5253.5" stroke="url(#paint2_linear_559_64522)" stroke-opacity="0.4" stroke-width="130"/>
<path d="M-57.7559 3720.41C38.1027 3713.84 270.132 3794.6 431.382 4170.17C632.943 4639.63 1038.23 4227.65 849.493 4067.88C696.993 3938.77 564.164 4135.54 635.761 4227.28C707.651 4319.39 914.363 4332.52 1037.45 4523.41C1160.55 4714.3 1211.5 5090 1684 5237.5" stroke="url(#paint3_linear_559_64522)" stroke-width="130"/>
<path opacity="0.6" d="M1843.83 1456.67C1222.98 1341.09 1036.65 1754.3 851.881 1871.67C667.109 1989.03 473.173 1915.3 378.28 1975.92C276.632 2040.86 317.946 2245.87 503.516 2194.45C733.174 2130.8 544.795 1606.68 178.904 1936.16C-113.809 2199.74 -349.461 2176.75 -430.699 2132.31C-466.788 2113.34 -547.838 2068.69 -583.321 2041.92" stroke="url(#paint4_linear_559_64522)" stroke-opacity="0.4" stroke-width="130"/>
<path d="M1839.27 1421.09C1218.42 1305.51 1032.09 1718.72 847.318 1836.09C662.545 1953.45 468.61 1879.72 373.716 1940.34C272.069 2005.28 313.383 2210.29 498.952 2158.87C728.61 2095.22 540.232 1571.1 174.341 1900.58C-118.372 2164.16 -354.025 2141.17 -435.262 2096.73C-471.352 2077.76 -552.402 2033.11 -587.885 2006.34" stroke="url(#paint5_linear_559_64522)" stroke-width="130"/>
<path d="M-358.634 2448.08C287.68 2427.54 412.075 2874.69 580.852 3022.18C749.629 3169.67 957.364 3125.17 1043.99 3201.27C1136.78 3282.78 1063.12 3483.85 883.293 3402.98C660.743 3302.89 932.815 2801.68 1251.95 3191.99C1507.26 3504.23 1749.34 3517.57 1838.46 3485.21C1877.93 3471.61 1966.9 3439.01 2006.97 3417.43" stroke="url(#paint6_linear_559_64522)" stroke-opacity="0.4" stroke-width="133.113"/>
<path d="M-345.98 2419.1C300.333 2398.56 424.728 2845.71 593.505 2993.2C762.282 3140.69 970.017 3096.19 1056.64 3172.28C1149.43 3253.8 1075.77 3454.87 895.946 3374C673.396 3273.91 945.468 2772.7 1264.61 3163.01C1519.92 3475.25 1761.99 3488.59 1851.11 3456.23C1890.59 3442.63 1979.55 3410.03 2019.62 3388.45" stroke="url(#paint7_linear_559_64522)" stroke-width="133.113"/>
</g>
<defs>
<linearGradient id="paint0_linear_559_64522" x1="1936.69" y1="306.423" x2="168.602" y2="653.683" gradientUnits="userSpaceOnUse">
<stop stop-color="#9BDDE5" stop-opacity="0.2"/>
<stop offset="1" stop-color="#8BB8DF"/>
</linearGradient>
<linearGradient id="paint1_linear_559_64522" x1="1690" y1="5453.5" x2="-74.0243" y2="6514.96" gradientUnits="userSpaceOnUse">
<stop stop-color="#9BDDE5" stop-opacity="0.8"/>
<stop offset="1" stop-color="#8BB8DF"/>
</linearGradient>
<linearGradient id="paint2_linear_559_64522" x1="1656" y1="5300.5" x2="47.0054" y2="3609.72" gradientUnits="userSpaceOnUse">
<stop stop-color="#9BDDE5" stop-opacity="0.3"/>
<stop offset="1" stop-color="#8BB8DF"/>
</linearGradient>
<linearGradient id="paint3_linear_559_64522" x1="1571.48" y1="5064.65" x2="72.0004" y2="3593.73" gradientUnits="userSpaceOnUse">
<stop stop-color="#9BDDE5" stop-opacity="0.8"/>
<stop offset="1" stop-color="#8BB8DF"/>
</linearGradient>
<linearGradient id="paint4_linear_559_64522" x1="1537.69" y1="1613.57" x2="-368.281" y2="2295.55" gradientUnits="userSpaceOnUse">
<stop stop-color="#9BDDE5" stop-opacity="0.2"/>
<stop offset="1" stop-color="#8BB8DF"/>
</linearGradient>
<linearGradient id="paint5_linear_559_64522" x1="1533.13" y1="1577.99" x2="-372.845" y2="2259.97" gradientUnits="userSpaceOnUse">
<stop stop-color="#9BDDE5" stop-opacity="0.7"/>
<stop offset="1" stop-color="#8BB8DF"/>
</linearGradient>
<linearGradient id="paint6_linear_559_64522" x1="1650.5" y1="3563.5" x2="-104.976" y2="2506.56" gradientUnits="userSpaceOnUse">
<stop stop-color="#9BDDE5" stop-opacity="0.3"/>
<stop offset="1" stop-color="#8BB8DF"/>
</linearGradient>
<linearGradient id="paint7_linear_559_64522" x1="1706.79" y1="3501.41" x2="19.7959" y2="2499.59" gradientUnits="userSpaceOnUse">
<stop stop-color="#9BDDE5" stop-opacity="0.8"/>
<stop offset="1" stop-color="#8BB8DF"/>
</linearGradient>
<clipPath id="clip0_559_64522">
<rect width="1600" height="8937" fill="white"/>
</clipPath>
</defs>
</svg>
