<svg width="1600" height="7216" viewBox="0 0 1600 7216" fill="none" xmlns="http://www.w3.org/2000/svg">
<g clip-path="url(#clip0_972_55433)">
<line x1="-94.3208" y1="-8.14853" x2="1012.61" y2="6892.5" stroke="#F1F1F1" stroke-opacity="0.2"/>
<line x1="-35.8325" y1="-17.5294" x2="1071.1" y2="6883.12" stroke="#F1F1F1" stroke-opacity="0.2"/>
<line x1="22.6538" y1="-26.9122" x2="1129.59" y2="6873.73" stroke="#F1F1F1" stroke-opacity="0.2"/>
<line x1="81.1441" y1="-36.294" x2="1188.08" y2="6864.35" stroke="#F1F1F1" stroke-opacity="0.2"/>
<line x1="139.63" y1="-45.6759" x2="1246.56" y2="6854.97" stroke="#F1F1F1" stroke-opacity="0.2"/>
<line x1="198.119" y1="-55.0587" x2="1305.05" y2="6845.59" stroke="#F1F1F1" stroke-opacity="0.2"/>
<line x1="256.607" y1="-64.4405" x2="1363.54" y2="6836.2" stroke="#F1F1F1" stroke-opacity="0.2"/>
<line x1="315.095" y1="-73.8224" x2="1422.03" y2="6826.82" stroke="#F1F1F1" stroke-opacity="0.2"/>
<line x1="373.584" y1="-83.2052" x2="1480.52" y2="6817.44" stroke="#F1F1F1" stroke-opacity="0.2"/>
<line x1="432.07" y1="-92.587" x2="1539" y2="6808.06" stroke="#F1F1F1" stroke-opacity="0.2"/>
<line x1="490.558" y1="-101.969" x2="1597.49" y2="6798.68" stroke="#F1F1F1" stroke-opacity="0.2"/>
<line x1="549.046" y1="-111.351" x2="1655.98" y2="6789.29" stroke="#F1F1F1" stroke-opacity="0.2"/>
<line x1="607.535" y1="-120.733" x2="1714.47" y2="6779.91" stroke="#F1F1F1" stroke-opacity="0.2"/>
<line x1="666.023" y1="-130.115" x2="1772.96" y2="6770.53" stroke="#F1F1F1" stroke-opacity="0.2"/>
<line x1="724.509" y1="-139.497" x2="1831.44" y2="6761.15" stroke="#F1F1F1" stroke-opacity="0.2"/>
<line x1="783" y1="-148.879" x2="1889.93" y2="6751.77" stroke="#F1F1F1" stroke-opacity="0.2"/>
<line x1="841.486" y1="-158.261" x2="1948.42" y2="6742.38" stroke="#F1F1F1" stroke-opacity="0.2"/>
<line x1="899.974" y1="-167.644" x2="2006.91" y2="6733" stroke="#F1F1F1" stroke-opacity="0.2"/>
<line x1="70.3954" y1="1470.65" x2="2262.95" y2="1118.94" stroke="#F1F1F1" stroke-opacity="0.2"/>
<line x1="61.0146" y1="1412.16" x2="2253.57" y2="1060.45" stroke="#F1F1F1" stroke-opacity="0.2"/>
<line x1="51.6317" y1="1353.67" x2="2244.19" y2="1001.96" stroke="#F1F1F1" stroke-opacity="0.2"/>
<line x1="42.2489" y1="1295.18" x2="2234.8" y2="943.476" stroke="#F1F1F1" stroke-opacity="0.2"/>
<line x1="32.8681" y1="1236.7" x2="2225.42" y2="884.988" stroke="#F1F1F1" stroke-opacity="0.2"/>
<line x1="23.4853" y1="1178.21" x2="2216.04" y2="826.499" stroke="#F1F1F1" stroke-opacity="0.2"/>
<line x1="14.1044" y1="1119.72" x2="2206.66" y2="768.012" stroke="#F1F1F1" stroke-opacity="0.2"/>
<line x1="4.72159" y1="1061.23" x2="2197.28" y2="709.524" stroke="#F1F1F1" stroke-opacity="0.2"/>
<line x1="-4.66122" y1="1002.74" x2="2187.89" y2="651.035" stroke="#F1F1F1" stroke-opacity="0.2"/>
<line x1="-14.0421" y1="944.256" x2="2178.51" y2="592.548" stroke="#F1F1F1" stroke-opacity="0.2"/>
<line x1="-23.4249" y1="885.768" x2="2169.13" y2="534.06" stroke="#F1F1F1" stroke-opacity="0.2"/>
<line x1="-32.8077" y1="827.28" x2="2159.75" y2="475.572" stroke="#F1F1F1" stroke-opacity="0.2"/>
<line x1="-42.1886" y1="768.792" x2="2150.37" y2="417.084" stroke="#F1F1F1" stroke-opacity="0.2"/>
<line x1="-51.5714" y1="710.304" x2="2140.98" y2="358.596" stroke="#F1F1F1" stroke-opacity="0.2"/>
<line x1="-60.9522" y1="651.817" x2="2131.6" y2="300.109" stroke="#F1F1F1" stroke-opacity="0.2"/>
<line x1="-70.3351" y1="593.329" x2="2122.22" y2="241.62" stroke="#F1F1F1" stroke-opacity="0.2"/>
<line x1="-79.7179" y1="534.84" x2="2112.84" y2="183.132" stroke="#F1F1F1" stroke-opacity="0.2"/>
<line x1="-89.0987" y1="476.353" x2="2103.46" y2="124.645" stroke="#F1F1F1" stroke-opacity="0.2"/>
<path d="M-337.487 6499.41C-322.849 6594.37 -193.121 6803.01 208.689 6877.86C710.952 6971.43 398.005 7457.28 200.692 7308.23C41.2577 7187.8 204.059 7015.01 309.276 7064.72C414.923 7114.63 473.122 7313.41 686.378 7391.59C899.634 7469.77 1389.54 7217.73 1686 7802.12" stroke="url(#paint0_linear_972_55433)" stroke-opacity="0.4" stroke-width="130"/>
<path d="M-314.487 6473.41C-299.849 6568.37 -170.121 6777.01 231.689 6851.86C733.952 6945.43 421.005 7431.28 223.692 7282.23C64.2577 7161.8 227.059 6989.01 332.276 7038.72C437.923 7088.63 496.122 7287.41 709.378 7365.59C922.634 7443.77 1412.54 7191.73 1709 7776.12" stroke="url(#paint1_linear_972_55433)" stroke-width="130"/>
<path d="M1744.6 5304.29C1729.47 5399.18 1598.66 5607.14 1196.47 5679.91C693.73 5770.88 1004.16 6258.34 1202.24 6110.32C1362.29 5990.71 1200.39 5817.08 1094.92 5866.25C989.014 5915.61 929.786 6114.09 716.128 6191.16C502.47 6268.23 274.298 6192.82 -69.504 6519.78" stroke="url(#paint2_linear_972_55433)" stroke-opacity="0.4" stroke-width="130"/>
<path d="M1744.6 5252.29C1729.47 5347.18 1598.66 5555.14 1196.47 5627.91C693.73 5718.88 1004.16 6206.34 1202.24 6058.32C1362.29 5938.71 1200.39 5765.08 1094.92 5814.25C989.014 5863.61 929.786 6062.09 716.128 6139.16C502.47 6216.23 274.298 6140.82 -69.504 6467.78" stroke="url(#paint3_linear_972_55433)" stroke-width="130"/>
<path d="M-102.45 3509.9C-8.61767 3489.22 232.805 3534.76 447.836 3882.35C716.625 4316.83 1056.51 3849.43 846.216 3719.34C676.296 3614.21 574.035 3828.46 658.415 3908.6C743.139 3989.06 949.52 3971.47 1099.49 4142.05C1249.47 4312.63 1355.44 4676.67 1844.56 4752.65" stroke="url(#paint4_linear_972_55433)" stroke-opacity="0.4" stroke-width="130"/>
<path d="M-80.0907 3490.37C13.7417 3469.7 255.164 3515.24 470.195 3862.83C738.984 4297.31 1078.87 3829.91 868.576 3699.81C698.656 3594.69 596.395 3808.94 680.774 3889.07C765.499 3969.54 971.879 3951.95 1121.85 4122.53C1271.83 4293.11 1377.8 4657.14 1866.92 4733.13" stroke="url(#paint5_linear_972_55433)" stroke-width="130"/>
<path opacity="0.6" d="M-412.094 296.668C208.756 181.09 395.083 594.3 579.856 711.666C764.629 829.032 958.564 755.299 1053.46 815.925C1155.1 880.865 1113.79 1085.87 928.221 1034.45C698.564 970.804 886.942 446.676 1252.83 776.157C1545.55 1039.74 1781.2 1016.75 1862.44 972.313C1898.53 953.338 1979.58 908.694 2015.06 881.921" stroke="url(#paint6_linear_972_55433)" stroke-opacity="0.4" stroke-width="130"/>
<path d="M-407.529 261.088C213.321 145.51 399.648 558.719 584.42 676.086C769.193 793.452 963.128 719.719 1058.02 780.345C1159.67 845.285 1118.36 1050.29 932.786 998.866C703.128 935.224 891.507 411.096 1257.4 740.577C1550.11 1004.16 1785.76 981.175 1867 936.733C1903.09 917.758 1984.14 873.114 2019.62 846.341" stroke="url(#paint7_linear_972_55433)" stroke-width="130"/>
<path d="M1837.75 2160.77C1196.11 2080.45 1030.83 2514.16 849.117 2645.37C667.404 2776.59 464.685 2713.04 371.383 2780.79C271.442 2853.36 326.157 3060.38 512.702 2996.52C743.566 2917.48 519.093 2393.22 165.172 2752.28C-117.964 3039.53 -360.233 3030.39 -445.976 2989.91C-484.02 2972.72 -569.583 2932.02 -607.482 2906.82" stroke="url(#paint8_linear_972_55433)" stroke-opacity="0.4" stroke-width="133.113"/>
<path d="M1827.83 2130.74C1186.2 2050.42 1020.92 2484.13 839.201 2615.35C657.488 2746.56 454.768 2683.01 361.467 2750.76C261.526 2823.33 316.241 3030.35 502.786 2966.49C733.65 2887.45 509.177 2363.19 155.256 2722.25C-127.88 3009.5 -370.149 3000.36 -455.892 2959.88C-493.936 2942.69 -579.499 2901.99 -617.398 2876.79" stroke="url(#paint9_linear_972_55433)" stroke-width="133.113"/>
</g>
<defs>
<linearGradient id="paint0_linear_972_55433" x1="1611" y1="7669" x2="-58.5196" y2="6822.54" gradientUnits="userSpaceOnUse">
<stop stop-color="#9BDDE5" stop-opacity="0.4"/>
<stop offset="1" stop-color="#8BB8DF"/>
</linearGradient>
<linearGradient id="paint1_linear_972_55433" x1="1354.66" y1="7767.75" x2="-409.592" y2="6627.81" gradientUnits="userSpaceOnUse">
<stop stop-color="#9BDDE5" stop-opacity="0.8"/>
<stop offset="1" stop-color="#8BB8DF"/>
</linearGradient>
<linearGradient id="paint2_linear_972_55433" x1="1710" y1="5478.5" x2="-45.5238" y2="6563.96" gradientUnits="userSpaceOnUse">
<stop stop-color="#9BDDE5" stop-opacity="0.3"/>
<stop offset="1" stop-color="#8BB8DF"/>
</linearGradient>
<linearGradient id="paint3_linear_972_55433" x1="1690" y1="5411.5" x2="-74.0233" y2="6472.96" gradientUnits="userSpaceOnUse">
<stop stop-color="#9BDDE5" stop-opacity="0.8"/>
<stop offset="1" stop-color="#8BB8DF"/>
</linearGradient>
<linearGradient id="paint4_linear_972_55433" x1="1848.54" y1="4799.58" x2="7.14372" y2="3365.41" gradientUnits="userSpaceOnUse">
<stop stop-color="#9BDDE5" stop-opacity="0.3"/>
<stop offset="1" stop-color="#8BB8DF"/>
</linearGradient>
<linearGradient id="paint5_linear_972_55433" x1="1730.07" y1="4578.82" x2="29.4985" y2="3345.89" gradientUnits="userSpaceOnUse">
<stop stop-color="#9BDDE5" stop-opacity="0.8"/>
<stop offset="1" stop-color="#8BB8DF"/>
</linearGradient>
<linearGradient id="paint6_linear_972_55433" x1="1773.33" y1="1202.52" x2="-79.2322" y2="386.514" gradientUnits="userSpaceOnUse">
<stop stop-color="#9BDDE5" stop-opacity="0.2"/>
<stop offset="1" stop-color="#8BB8DF"/>
</linearGradient>
<linearGradient id="paint7_linear_972_55433" x1="1783.02" y1="1155.1" x2="-79.793" y2="362.773" gradientUnits="userSpaceOnUse">
<stop stop-color="#9BDDE5" stop-opacity="0.7"/>
<stop offset="1" stop-color="#8BB8DF"/>
</linearGradient>
<linearGradient id="paint8_linear_972_55433" x1="1550.68" y1="2139.64" x2="-75.9822" y2="2914.04" gradientUnits="userSpaceOnUse">
<stop stop-color="#9BDDE5" stop-opacity="0.3"/>
<stop offset="1" stop-color="#8BB8DF"/>
</linearGradient>
<linearGradient id="paint9_linear_972_55433" x1="1616" y1="2096" x2="-100.483" y2="2869.04" gradientUnits="userSpaceOnUse">
<stop stop-color="#9BDDE5" stop-opacity="0.8"/>
<stop offset="1" stop-color="#8BB8DF"/>
</linearGradient>
<clipPath id="clip0_972_55433">
<rect width="1600" height="7216" fill="white"/>
</clipPath>
</defs>
</svg>
