<svg width="1320" height="386" viewBox="0 0 1320 386" fill="none" xmlns="http://www.w3.org/2000/svg">
<mask id="mask0_614_4003" style="mask-type:alpha" maskUnits="userSpaceOnUse" x="0" y="0" width="1320" height="386">
<rect width="1320" height="386" fill="#D9D9D9"/>
</mask>
<g mask="url(#mask0_614_4003)">
<mask id="mask1_614_4003" style="mask-type:alpha" maskUnits="userSpaceOnUse" x="0" y="0" width="1320" height="386">
<rect width="1320" height="386" fill="#002B5C"/>
</mask>
<g mask="url(#mask1_614_4003)">
<path d="M1307.54 -9.79683C1283.72 45.0832 1172.63 150.244 918.808 131.847C601.528 108.851 713.249 450.902 855.632 392.308C970.681 344.962 908.271 228.492 828.707 228.492C755.955 228.492 690.737 352.389 549.949 365.781C409.16 379.173 283.234 298.354 25.2592 442.297" stroke="url(#paint0_linear_614_4003)" stroke-opacity="0.4" stroke-width="80.9439"/>
<g clip-path="url(#clip0_614_4003)">
<path d="M651.976 236.724C651.976 236.724 650.683 238.631 650.31 240.319C649.937 242.007 652.612 244.703 652.612 244.703L654.979 237.711L651.954 236.724H651.976Z" fill="#EBA580"/>
<path d="M672.864 190.342C672.864 190.342 672.316 194.353 673.785 196.172C673.785 196.172 667.801 204.129 663.154 202.946C658.507 201.762 661.926 196.699 661.926 196.699L672.864 190.342Z" fill="#D08A67"/>
<path d="M673.785 196.194C672.316 194.353 672.864 190.364 672.864 190.364L661.926 196.721C661.926 196.721 661.466 197.422 661.115 198.343C662.847 197.904 668.765 197.269 669.993 197.137C670.672 197.071 671.133 197.992 671.418 198.869C672.842 197.444 673.785 196.194 673.785 196.194Z" fill="#D08A67"/>
<path d="M669.381 305.684C669.381 305.684 669.622 307.591 668.855 309.674C668.087 311.756 665.457 316.513 665.523 318.485C665.588 320.458 666.399 321.927 668.241 322.124C669.644 322.278 673.984 320.919 675.43 317.499C676.899 314.08 675.65 313.137 676.417 311.69C677.184 310.222 678.083 307.131 677.557 304.851C677.053 302.572 669.381 305.684 669.381 305.684Z" fill="#0C1531"/>
<path d="M675.43 317.521C673.984 320.94 669.643 322.299 668.219 322.146C666.443 321.949 665.632 320.568 665.522 318.705C665.522 318.814 665.522 318.924 665.522 319.011C665.588 320.984 666.399 322.453 668.241 322.65C669.643 322.804 673.984 321.467 675.452 318.025C676.154 316.359 676.241 315.285 676.197 314.452C676.176 315.219 676.022 316.162 675.452 317.521" fill="#050408"/>
<path d="M676.394 311.691C676.131 312.217 676.11 312.655 676.131 313.181C676.131 313.072 676.131 312.962 676.175 312.852L676.307 313.51L677.469 309.849L677.534 308.14C677.293 309.543 676.833 310.88 676.394 311.691Z" fill="#050408"/>
<path d="M664.119 299.941L654.825 299.525H654.628C654.628 299.525 653.795 301.673 651.844 302.462C649.893 303.251 644.786 305.312 643.339 307.263C642.155 308.863 644.742 311.077 650.178 309.761C654.036 308.819 654.452 306.868 658.968 306.78C662.059 306.715 664.557 305.619 665.105 305.049L664.119 299.941Z" fill="#0C1531"/>
<path d="M658.969 306.78C654.454 306.868 654.037 308.819 650.179 309.762C645.971 310.792 643.45 309.696 643.099 308.402C642.683 309.915 645.269 311.603 650.179 310.419C653.862 309.52 654.41 307.701 658.377 307.46L658.465 307.986C658.465 307.986 663.441 307.986 665.107 306.583V305.684L664.866 305.224C664.033 305.838 661.731 306.715 658.969 306.78Z" fill="#050408"/>
<path d="M652.786 302.265C652.786 302.265 655.132 292.445 653.51 281.464C652.392 273.901 649.498 252.485 652.743 237.098C652.743 237.098 654.847 240.517 660.173 242.6C665.5 244.682 666.574 246.655 666.574 246.655L665.675 261.078C665.675 261.078 663.418 267.829 663.681 271.906C663.944 276.005 664.667 276.948 664.798 284.006C664.93 291.064 664.689 303.098 664.689 303.098C664.689 303.098 657.938 304.414 652.764 302.265" fill="#193C6A"/>
<path d="M677.951 286.702C677.118 279.797 676.132 273.681 676.461 268.903C676.79 264.146 679.113 246.15 676.746 240.604L660.196 242.599C660.196 242.599 662.454 265.352 665.106 276.487C667.759 287.622 668.855 309.695 668.855 309.695C668.855 309.695 669.074 312.348 672.296 312.501C675.518 312.633 677.535 306.802 677.535 306.802C677.535 306.802 678.784 293.628 677.951 286.723" fill="#345382"/>
<path d="M651.976 236.133C651.976 236.133 651.888 239.267 654.935 241.043C657.982 242.818 667.429 245.251 670.126 243.826C672.822 242.402 672.822 226.685 672.822 226.685L674.86 205.62L671.046 200.798C671.046 200.798 665.632 202.31 663.506 201.39C661.379 200.447 661.555 196.501 661.555 196.501C661.555 196.501 658.223 196.216 656.447 200.864C654.672 205.489 654.628 221.687 654.628 221.687C654.628 221.687 653.773 232.757 653.401 233.699C653.028 234.642 651.976 236.133 651.976 236.133Z" fill="#D5DBDF"/>
<path d="M659.143 194.199C659.143 194.199 654.781 193.542 653.51 197.641C652.874 199.701 653.05 204.633 653.357 209.017C653.181 211.692 653.291 213.905 653.532 214.979C654.19 218.07 652.348 228.701 652.348 230.104C652.348 231.507 651.208 232.581 649.981 234.795C648.731 237.009 652.37 238.982 652.37 238.982C654.628 237.776 654.913 218.377 656.688 208.206C657.105 205.839 657.368 203.647 658.113 202.025C660.546 196.676 664.777 194.638 664.777 194.638L659.143 194.221V194.199Z" fill="#345382"/>
<path d="M680.057 242.752C677.383 239.377 674.796 233.765 676.265 230.083C677.711 226.4 682.074 217.435 682.074 217.435L683.06 204.064L675.344 197.882L674.073 196.523C674.073 196.523 674.204 198.65 671.42 201.872C666.817 207.176 664.823 215.594 665.195 224.954C665.568 234.313 666.795 239.925 670.894 246.04L674.621 252.748C674.621 252.748 675.388 257.483 675.695 257.811C677.711 260.069 684.046 257.899 684.507 256.102C684.507 256.102 682.731 246.128 680.057 242.774" fill="#5877A5"/>
<path d="M675.693 257.789C677.71 260.047 684.045 257.877 684.505 256.079C684.505 256.079 682.729 246.106 680.055 242.752C677.381 239.376 674.794 233.765 676.263 230.082C677.71 226.4 682.072 217.434 682.072 217.434L682.16 209.85L676.855 210.595C676.855 210.595 675.627 216.448 675.869 219.363C676.11 222.257 672.471 226.312 673.216 231.704C673.961 237.097 670.542 245.47 670.542 245.47C670.652 245.667 670.783 245.843 670.915 246.04L674.641 252.747C674.641 252.747 675.408 257.482 675.715 257.811" fill="#345382"/>
<path d="M664.776 204.173L663.505 201.389L660.984 203.34L661.554 205.905C661.554 205.905 656.929 219.429 656.688 234.181L658.945 238.302L661.422 235.803C661.422 235.803 662.08 219.911 662.496 216.558C662.891 213.204 663.132 206.124 663.132 206.124L664.82 204.195L664.776 204.173Z" fill="#A61A50"/>
<path d="M673.59 195.581C670.784 200.382 663.507 201.39 663.507 201.39L664.647 205.62C664.647 205.62 672.406 202.398 674.861 198.036L673.59 195.603V195.581Z" fill="#E2E8EC"/>
<path d="M660.415 203.757L663.528 201.39C663.528 201.39 662.804 197.795 663.265 195.274H661.993C661.993 195.274 659.582 199.68 660.415 203.757Z" fill="#E2E8EC"/>
<path d="M665.523 230.083C665.523 230.083 668.044 218.18 672.318 210.859L669.71 208.338L672.231 207.527L675.847 198.014L673.59 195.581C673.59 195.581 673.743 196.83 673.129 198.014C672.516 199.198 667.825 204.568 665.962 211.933C664.12 219.298 665.523 230.083 665.523 230.083Z" fill="#7190BE"/>
<path d="M654.672 227.935L653.532 204.261L655.834 203.648L654.891 200.776L662.147 194.178L665.04 195.033C665.04 195.033 658.661 198.672 657.456 205.116C656.25 211.539 654.694 227.935 654.694 227.935" fill="#7190BE"/>
<path d="M671.792 177.891C669.271 176.423 665.435 176.839 662.849 178.834C660.262 180.829 659.67 183.086 659.495 184.095C659.32 185.103 659.078 185.98 658.881 186.747C658.684 187.514 659.539 188.413 659.539 188.413C658.75 189.531 659.583 192.03 659.802 192.622C659.714 192.863 659.67 193.06 659.692 193.213C659.758 193.586 659.955 193.739 660.218 193.805C660.459 194.616 660.679 195.581 660.7 195.997C660.744 196.611 660.788 198.649 663.177 198.54C665.567 198.43 668.92 196.808 670.981 194.945C673.041 193.082 675.08 189.443 675.518 185.892C675.957 182.341 674.335 179.382 671.814 177.891" fill="#E9A480"/>
<path d="M659.78 192.621C660.065 191.788 660.811 190.495 660.986 189.662C661.205 188.588 659.035 187.667 659.035 187.667C659.232 188.084 659.539 188.413 659.539 188.413C658.75 189.531 659.583 192.03 659.802 192.621" fill="#D08A67"/>
<path d="M671.792 177.891C669.271 176.423 665.435 176.839 662.848 178.834C660.788 180.434 659.999 182.166 659.67 183.327C660.064 184.117 660.612 184.73 661.336 184.84C663.747 185.191 665.917 184.314 667.145 184.599C668.065 184.818 668.635 186.506 668.832 188.062C669.03 189.618 670.038 190.079 669.841 191.832C669.665 193.367 667.693 195.734 667.188 197.378C668.569 196.721 669.928 195.866 670.959 194.923C673.019 193.06 675.058 189.421 675.496 185.87C675.934 182.319 674.312 179.36 671.792 177.869" fill="#E9A480"/>
<path d="M671.989 176.752C668.087 174.362 663.747 175.699 661.577 177.409C660.81 178.001 659.955 178.9 659.1 180.697C658.399 182.188 658.552 185.125 661.95 185.191C663.791 185.213 666.18 184.708 667.999 184.248C670.06 185.41 669.402 187.58 669.709 188.26C670.016 188.939 670.367 189.838 670.827 190.057C671.112 190.188 671.594 189.706 671.726 189.553C672.033 189.158 674.115 186.418 674.466 189.619C674.97 188.413 675.321 187.142 675.474 185.87C675.54 185.344 675.562 184.818 675.54 184.336C676.088 183.043 675.737 179.053 671.989 176.752Z" fill="#553316"/>
<path d="M669.731 188.26C670.038 188.961 670.389 189.838 670.849 190.057C671.134 190.189 671.616 189.706 671.748 189.553C672.054 189.158 674.137 186.418 674.488 189.619C674.992 188.413 675.342 187.142 675.496 185.87C675.562 185.344 675.584 184.84 675.562 184.336C673.501 185.563 670.915 186.111 669.512 186.331C669.665 187.142 669.577 187.887 669.731 188.238" fill="#624024"/>
<path d="M661.818 198.299C661.818 195.34 661.205 193.871 661.205 193.871C661.161 193.74 660.613 193.915 660.196 193.806C660.437 194.617 660.657 195.581 660.679 195.998C660.7 196.458 660.744 197.773 661.818 198.299Z" fill="#D08A67"/>
<path d="M671.769 192.512C672.076 192.688 672.755 192.907 673.983 191.416C675.21 189.926 675.101 188.589 674.421 188.194C673.742 187.8 673.128 188.107 672.821 188.633C672.514 189.159 671.747 192.512 671.747 192.512" fill="#EBA580"/>
<path d="M671.769 192.512C672.076 192.688 672.755 192.907 673.983 191.416C675.21 189.926 675.101 188.589 674.421 188.194C673.742 187.8 673.128 188.107 672.821 188.633C672.514 189.159 671.747 192.512 671.747 192.512" fill="#E9A480"/>
<path d="M675.343 243.125L674.904 244.002C674.904 244.002 673.787 244.353 673.721 244.418C673.655 244.484 670.521 246.018 670.521 246.018C670.521 246.018 672.186 250.402 674.62 252.704C674.62 252.704 677.381 248.473 677.754 247.619C678.127 246.764 679.025 245.185 679.025 245.185L675.321 243.125H675.343Z" fill="#EBA580"/>
<path d="M678.236 213.27C677.118 210.618 677.316 205.313 679.946 204.283C682.576 203.253 684.133 203.187 688.034 211.078C691.936 218.969 691.366 224.559 691.849 225.896C692.331 227.233 690.818 229.885 689.941 231.705C689.065 233.546 679.025 247.794 679.025 247.794C679.025 247.794 676.088 245.646 674.159 243.739L683.475 226.049C683.475 226.049 680.078 217.588 678.236 213.292" fill="#5877A5"/>
<path d="M674.247 243.804L673.787 244.352L678.105 248.714L678.697 247.552C677.908 246.961 675.782 245.317 674.247 243.804Z" fill="#E2E8EC"/>
<path d="M616.356 323.176C616.356 323.176 618.263 320.612 617.583 318.244C616.904 315.899 612.498 306.101 613.331 299.832C614.164 293.563 615.15 291.765 615.128 288.959C615.106 286.154 614.23 282.625 614.23 282.625L623.743 284.093C623.743 284.093 623.414 289.288 622.735 292.554C622.055 295.798 621.332 299.722 621.617 307.613C621.902 315.504 621.924 322.168 622.252 323.176C622.559 324.207 624.291 324.075 624.707 324.075C625.124 324.075 626.286 325.5 624.707 326.464C623.129 327.429 616.378 323.176 616.378 323.176" fill="#D08A67"/>
<path d="M616.904 321.97C616.904 321.97 614.274 324.842 615.436 327.45C616.62 330.059 619.666 328.415 621.749 328.941C623.831 329.467 625.081 329.554 625.848 327.56C626.615 325.543 626.505 322.606 626.023 322.277C625.541 321.97 624.291 322.036 623.743 322.694C623.195 323.351 622.867 324.14 622.867 324.14C622.867 324.14 624.993 324.206 625.015 325.039C625.059 325.872 624.007 326.639 623.152 326.047C622.275 325.455 619.864 322.167 616.904 321.948" fill="#141F22"/>
<path d="M616.355 327.253L616.553 326.289C616.553 326.289 618.284 325.28 619.139 322.716C620.016 320.151 621.463 309.717 622.931 305.925C624.4 302.155 628.718 295.009 628.718 295.009C628.718 295.009 626.351 288.411 625.211 285.54L638.078 284.115C638.078 284.115 638.144 294.176 637.727 295.864C637.311 297.552 633.058 305.859 631.349 309.564C629.639 313.268 624.159 323.307 623.655 325.631C623.129 327.955 621.835 333.982 623.37 335.013C624.904 336.043 626.176 336.635 624.904 337.336C623.611 338.038 619.139 336.043 618.701 333.434C618.262 330.804 616.355 327.275 616.355 327.275" fill="#E9A480"/>
<path d="M616.555 326.289C616.555 326.289 612.499 327.538 612.85 329.796C613.201 332.054 614.209 334.575 613.815 336.109C613.442 337.644 612.828 339.748 612.828 339.748H613.88C613.88 339.748 614.889 334.443 615.963 334.334C617.037 334.224 617.519 335.583 618.703 337.359C619.886 339.134 621.508 340.559 623.591 340.559C625.673 340.559 628.895 338.849 629.597 338.192C630.298 337.534 629.487 336.591 628.589 336.416C627.69 336.241 623.7 335.167 623.152 334.706C623.152 334.706 624.27 335.89 623.613 336.241C622.955 336.591 622.363 336.723 621.662 334.684C620.96 332.646 618.856 327.429 616.555 326.289Z" fill="#2E383B"/>
<path d="M618.725 337.337C619.558 338.586 620.632 339.682 621.925 340.208C619.974 338.74 618.483 336.153 617.738 334.882C616.73 333.15 613.99 330.586 613.99 330.586C613.661 330.191 613.245 329.95 612.85 329.796C613.201 332.054 614.209 334.575 613.815 336.109C613.42 337.644 612.828 339.748 612.828 339.748H613.88C613.88 339.748 614.889 334.443 615.963 334.334C617.037 334.224 617.519 335.583 618.703 337.359" fill="#141F22"/>
<path d="M625.232 285.518C625.671 286.636 626.306 288.345 626.92 289.989C630.427 290.362 634.263 290.537 638.077 290.296C638.121 287.227 638.099 284.115 638.099 284.115L625.232 285.54V285.518Z" fill="#D08A67"/>
<path d="M615.085 287.885C617.146 288.389 619.973 289.003 623.218 289.507C623.568 286.789 623.744 284.093 623.744 284.093L614.23 282.625C614.23 282.625 614.91 285.321 615.085 287.885Z" fill="#D08A67"/>
<path d="M611.929 253.778L611.227 246.127L612.587 238.105C611.644 236.264 610.789 234.466 610.438 233.129C609.43 229.534 609.189 224.339 612.74 222.213C612.74 222.213 607.479 222.87 606.953 226.97C606.427 231.069 606.054 239.858 605.901 242.555C605.748 245.251 605.243 249.766 605.441 251.016C605.638 252.287 609.43 259.893 609.583 261.515C609.737 262.896 609.496 264.803 609.978 265.833C610.153 261.932 610.855 256.912 611.907 253.799" fill="#E9A480"/>
<path d="M605.485 251.17C605.923 252.814 609.43 259.937 609.584 261.494C609.737 262.875 609.584 264.891 610.088 265.922C610.263 262.02 611.666 256.978 612.718 253.844L611.206 246.106L612.565 238.083C611.644 236.242 610.789 234.488 610.417 233.151L608.554 229.907C608.554 229.907 610.088 233.809 610.088 235.606C610.088 237.404 608.992 244.966 608.751 246.786C608.51 248.627 608.992 248.78 608.291 249.898C607.743 250.775 606.559 251.06 605.463 251.148" fill="#D08A67"/>
<path d="M629.114 208.207C629.114 208.207 629.026 209.106 629.158 209.763C629.29 210.421 629.618 210.969 629.465 212.109C629.311 213.249 628.084 216.822 627.777 217.457C627.47 218.093 625.782 218.29 625.739 218.29C625.695 218.29 624.993 220.285 625.344 221.732C625.673 223.178 626.089 224.45 627.448 225.305C627.448 225.305 623.612 226.51 618.834 226.269C614.055 226.028 613.683 224.472 614.669 223.661C615.677 222.85 616.291 222.521 616.291 222.521C616.291 222.521 617.146 219.452 616.773 217.874C616.379 216.296 613.77 211.232 614.209 207.462C614.669 203.692 616.949 200.382 622.692 200.908C628.435 201.434 629.114 208.207 629.114 208.207Z" fill="#E9A480"/>
<path d="M627.448 225.304C626.111 224.45 625.694 223.178 625.343 221.731C625.015 220.307 625.694 218.29 625.738 218.29C625.804 218.29 627.141 218.137 627.645 217.654C626.943 217.808 626.461 217.786 626.22 217.457C625.891 217.041 626.834 212.394 626.834 212.394L625.584 211.363L622.603 210.991C622.603 210.991 620.17 217.589 621.091 221.556C621.858 224.844 625.497 225.787 626.724 226.028C627.207 225.589 627.47 225.282 627.47 225.282" fill="#D08A67"/>
<path d="M627.711 211.166C627.711 211.166 626.724 209.807 626.308 211.034C626.045 211.802 626.154 213.599 626.439 214.3C626.724 215.002 627.338 214.432 627.404 213.862C627.469 213.292 627.711 211.166 627.711 211.166Z" fill="#E9A480"/>
<path d="M634.659 257.57C635.557 260.771 636.522 264.365 636.829 267.193C637.135 269.955 638.231 283.48 638.363 287.272C638.363 287.272 639.13 288.39 632.51 288.916C625.891 289.442 613.33 285.671 613.33 285.671C613.33 285.671 611.292 285.036 610.481 283.041C611.051 274.383 610.547 273.374 610.086 269.845C609.692 266.798 610.7 260.201 612.081 255.707C622.12 260.661 629.88 259.477 634.659 257.57Z" fill="#024098"/>
<path d="M614.164 224.362L612.739 222.214C612.739 222.214 607.238 221.929 606.624 227.759C606.01 233.568 605.002 248.474 605.068 249.811C605.155 251.148 609.254 261.1 609.254 261.1C609.254 261.1 612.411 260.267 613.397 259.456L611.446 246.347L613.463 236.023L614.142 224.34L614.164 224.362Z" fill="#6C6EB2"/>
<path d="M609.255 261.099C609.255 261.099 606.493 254.436 605.463 251.301C608.137 250.6 608.839 247.904 609.54 241.371C610.285 234.511 608.597 229.951 608.597 229.951L612.28 234.247L613.529 235.453L613.486 236.067L611.469 246.391L613.42 259.499C612.433 260.288 609.277 261.143 609.277 261.143" fill="#5859A5"/>
<path d="M636.829 263.006C635.383 263.642 632.906 264.628 630.144 265.132C626.308 265.834 615.94 265.176 610.745 258.841C611.249 255.817 611.994 253.055 612.871 251.717C614.931 248.583 616.773 248.539 616.356 246.106C615.94 243.695 611.446 236.724 610.46 233.108C609.451 229.513 609.21 224.318 612.761 222.191L616.532 222.542C616.532 222.542 613.835 223.507 618.833 224.975C623.853 226.444 625.365 225.085 627.448 225.085C627.448 225.085 632.84 228.307 634.133 231.727C635.427 235.146 639.789 234.664 637.355 240.889C636.72 242.533 633.432 247.991 633.563 250.578C633.651 252.572 635.646 258.052 636.829 262.984" fill="#6C6EB2"/>
<path d="M627.996 225.106C627.996 225.106 622.757 222.563 618.899 222.213C616.269 221.972 615.392 222.476 615.392 222.476C615.392 222.476 612.258 226.18 617.759 227.868C624.971 230.082 628.697 225.742 628.697 225.742L628.018 225.106H627.996Z" fill="#5859A5"/>
<path d="M627.996 225.106C627.996 225.106 622.757 222.563 618.899 222.213C616.269 221.972 615.392 222.476 615.392 222.476C615.392 222.476 612.302 225.019 617.76 226.838C623.218 228.657 628.698 225.742 628.698 225.742L628.018 225.106H627.996Z" fill="#6C6EB2"/>
<path d="M610.746 258.842C611.25 255.817 611.974 253.055 612.872 251.718C614.933 248.583 616.774 248.539 616.358 246.106C616.116 244.747 614.604 241.919 613.113 239.092C614.648 240.56 619.514 245.47 619.799 247.882C619.799 247.882 620.369 249.679 622.342 250.424C624.314 251.17 619.843 251.52 617.782 252.857C616.686 253.559 615.547 256.014 615.284 257.176C614.911 258.885 614.582 260.464 614.494 262.086C613.092 261.231 611.82 260.157 610.746 258.864" fill="#5859A5"/>
<path d="M635.624 236.067C635.952 239.07 635.952 242.183 635.952 243.279C635.952 245.054 633.454 247.991 633.585 250.6C633.629 251.762 634.33 254.107 635.141 256.847C631.678 257.242 632.138 251.104 632.314 247.421C632.511 243.52 629.99 237.163 629.99 237.163L635.624 236.067Z" fill="#5859A5"/>
<path d="M634.133 231.749C634.002 231.42 633.826 231.07 633.629 230.741C629.661 231.223 625.168 234.204 626.023 239.509C626.899 244.857 632.116 251.718 634.44 254.568C633.936 252.836 633.585 251.411 633.541 250.578C633.432 247.992 636.698 242.534 637.333 240.89C639.766 234.686 635.404 235.147 634.111 231.727" fill="#5859A5"/>
<path d="M660.656 244.616C660.021 244.616 658.464 244.375 658.443 243.739C658.399 243.103 659.451 242.248 659.626 241.744C659.802 241.24 659.802 240.846 659.407 240.714C659.012 240.582 658.048 241.174 657.785 241.569C657.522 241.963 657.149 242.599 656.842 242.796C656.536 242.994 655.966 244.397 655.637 245.317C655.286 246.238 655.461 247.093 653.357 247.487C651.253 247.882 646.343 248.517 646.343 248.517L646.913 254.282C646.913 254.282 655.418 251.236 656.689 250.929C657.938 250.644 659.276 250.973 659.845 250.753C660.415 250.534 660.635 249.811 660.963 249.613C661.292 249.416 662.498 249.241 662.629 248.671C662.761 248.079 662.629 247.86 662.629 247.86C662.629 247.86 664.032 247.137 663.988 246.61C663.944 246.084 663.879 245.405 663.879 245.405C663.879 245.405 664.514 244.528 664.514 243.717C664.492 242.884 664.295 242.818 663.923 242.709C663.55 242.599 663.418 243.651 663.418 243.651L661.95 244.506C661.95 244.506 661.007 244.66 660.744 244.682" fill="#E9A480"/>
<path d="M663.945 246.589C663.901 246.063 663.814 245.383 663.814 245.383C663.419 245.624 662.915 245.909 662.696 246.019C662.279 246.238 661.994 246.37 662.038 246.698C662.082 247.027 662.455 247.663 662.082 248.036C661.709 248.408 661.227 248.956 660.92 249.285C660.745 249.46 660.635 249.68 660.613 249.943C660.723 249.789 660.811 249.68 660.92 249.614C661.227 249.417 662.455 249.241 662.586 248.671C662.718 248.079 662.586 247.86 662.586 247.86C662.586 247.86 664.011 247.137 663.967 246.611" fill="#D08A67"/>
<path d="M653.577 247.267L654.783 246.96C654.783 246.96 656.339 249.657 655.813 252.682L653.292 253.23L653.577 247.267Z" fill="#EDF4F9"/>
<path d="M653.927 247.07C653.927 247.07 655.44 250.314 654.695 253.405C654.695 253.405 642.113 256.825 638.605 256.605C635.076 256.386 630.32 246.566 628.676 243.607C627.032 240.626 623.963 231.792 628.062 229.71C632.161 227.605 634.835 231.441 636.83 237.119C638.847 242.796 641.587 249.021 641.587 249.021L653.906 247.07H653.927Z" fill="#6C6EB2"/>
<path d="M618.592 219.955C618.592 219.955 620.499 220.416 622.165 219.473C623.831 218.531 624.225 218.048 624.532 217.106C624.839 216.163 624.707 214.804 624.707 214.804C624.707 214.804 625.672 212.612 626.198 212.437C626.702 212.262 628.28 210.99 628.741 209.587C629.201 208.185 629.004 204.875 628.017 202.99C627.053 201.104 624.883 201.192 624.883 201.192C624.883 201.192 623.589 200.052 621.112 200.052C618.636 200.052 615.698 201.302 614.208 204.37C612.717 207.417 612.717 211.933 613.199 213.401C613.682 214.892 613.484 219.079 618.592 219.955Z" fill="#603322"/>
<path d="M624.532 217.106C624.839 216.163 624.708 214.804 624.708 214.804C624.708 214.804 622.779 218.202 619.03 218.837C617.606 219.079 616.137 218.618 614.844 217.961C615.589 218.881 616.729 219.627 618.614 219.955C618.614 219.955 620.521 220.416 622.187 219.473C623.853 218.531 624.247 218.048 624.554 217.106" fill="#532615"/>
<path d="M618.11 217.785L612.235 216.229C612.235 216.229 610.744 217.566 611.358 219.539C611.95 221.512 612.213 223.024 614.953 223.134C617.693 223.243 621.222 220.35 618.131 217.807" fill="#492212"/>
<path d="M612.806 217.545C612.806 217.545 613.748 219.627 616.225 219.145C618.702 218.663 618.768 218.093 618.724 216.602C618.702 215.111 617.146 214.695 617.146 214.695C617.146 214.695 617.628 212.92 615.304 212.262C612.959 211.604 612.586 213.599 612.586 213.599C612.586 213.599 611.008 213.577 611.14 215.287C611.249 216.997 612.806 217.545 612.806 217.545Z" fill="#532615"/>
<path d="M616.839 215.396C616.839 215.396 615.655 215.396 614.472 214.914C613.639 214.585 613.069 213.687 612.784 213.139C612.652 213.402 612.608 213.621 612.608 213.621C613.178 213.972 614.318 215.594 614.318 215.594C615.458 215.111 616.839 216.076 616.839 216.076V215.418V215.396Z" fill="#461A0B"/>
<path d="M613.112 216.931C612.849 217.106 612.564 217.194 612.301 217.259C612.586 217.457 612.805 217.523 612.805 217.523C612.805 217.523 612.849 217.61 612.915 217.72C613.704 217.084 613.967 215.988 613.989 215.922C613.989 215.988 613.835 216.47 613.112 216.909" fill="#461A0B"/>
</g>
</g>
</g>
<defs>
<linearGradient id="paint0_linear_614_4003" x1="97.7787" y1="506.046" x2="1340.43" y2="98.2214" gradientUnits="userSpaceOnUse">
<stop stop-color="#9BDDE5" stop-opacity="0.2"/>
<stop offset="1" stop-color="#8BB8DF"/>
</linearGradient>
<clipPath id="clip0_614_4003">
<rect width="87" height="167.775" fill="white" transform="translate(605 174.121)"/>
</clipPath>
</defs>
</svg>
