<svg width="100" height="100" viewBox="0 0 100 100" fill="none" xmlns="http://www.w3.org/2000/svg">
<mask id="mask0_615_4037" style="mask-type:alpha" maskUnits="userSpaceOnUse" x="0" y="0" width="100" height="100">
<rect width="100" height="100" fill="#D9D9D9"/>
</mask>
<g mask="url(#mask0_615_4037)">
<path d="M63.1345 90.0162C55.1244 90.0148 47.8587 88.4582 41.4761 84.6004C35.0936 80.7425 30.4684 75.3272 28.3053 69.1796C26.1423 63.032 26.56 56.4893 29.4948 50.5484C32.4296 44.6076 37.7206 39.5945 44.5614 36.273C51.4023 32.9516 59.4179 31.5039 67.3867 32.1506C75.3555 32.7973 82.8406 35.503 88.7013 39.8553C94.562 44.2075 98.4769 49.9678 99.8494 56.2582C101.222 62.5485 99.9767 69.0241 96.3037 74.6981C96.3037 74.6981 94.0754 79.1049 89.0005 81.5001V99.5001L77.5005 87.0001C72.4568 89.0785 69.2024 90.0162 63.1345 90.0162Z" fill="white" stroke="#0055A0" stroke-width="1.0108" stroke-linecap="round" stroke-linejoin="round" stroke-dasharray="3.03 3.03"/>
<path d="M63.1484 88.8964C55.3526 88.895 48.2811 87.3801 42.0692 83.6254C35.8574 79.8707 31.3559 74.6002 29.2506 68.617C27.1454 62.6338 27.552 56.266 30.4083 50.4841C33.2646 44.7021 38.4141 39.823 45.072 36.5904C51.7299 33.3577 59.5312 31.9488 67.2869 32.5782C75.0427 33.2076 82.3276 35.8409 88.0315 40.0768C93.7355 44.3127 97.5457 49.9189 98.8815 56.0411C100.217 62.1633 99.0054 68.4657 95.4306 73.9879C95.4306 73.9879 92.9707 78.5359 88.0315 80.867V96.6667L77.9121 85.7882C73.0033 87.8111 69.0541 88.8964 63.1484 88.8964Z" fill="url(#paint0_linear_615_4037)"/>
<path d="M46.5 73C56.5328 72.9982 66.0057 70.832 74 66C81.9943 61.168 87.7907 54.2 90.5 46.5C93.2093 38.8 92.4771 30.6734 88.8012 23.2324C85.1253 15.7913 78.4982 9.51229 69.9299 5.35207C61.3615 1.19184 51.3218 -0.62141 41.3407 0.188625C31.3595 0.998661 21.9842 4.38757 14.6436 9.83891C7.30296 15.2902 2.39946 22.5051 0.68037 30.3839C-1.03872 38.2628 0.52085 46.3736 5.12143 53.4804C5.12143 53.4804 7.6436 59.5 14 62.5V84.5L28.5 69.5C34.8173 72.1033 38.8998 73 46.5 73Z" fill="white" stroke="#0055A0" stroke-linecap="round" stroke-linejoin="round" stroke-dasharray="3 3"/>
<path d="M46.6566 72.1592C56.5297 72.1574 65.4855 70.2388 73.3526 65.4837C81.2196 60.7285 86.9206 54.0536 89.5868 46.4761C92.253 38.8986 91.7382 30.834 88.1207 23.5114C84.5033 16.1888 77.9817 10.0096 69.5497 5.91559C61.1177 1.82156 51.2377 0.0371586 41.4153 0.834306C31.593 1.63145 22.3669 4.96644 15.143 10.331C7.91918 15.6956 3.09371 22.7957 1.40197 30.5492C-0.289775 38.3027 1.24498 46.2845 5.77236 53.2782C5.77236 53.2782 8.88776 59.038 15.143 61.9902V82.0001L27.9589 68.2228C34.1757 70.7847 39.1773 72.1592 46.6566 72.1592Z" fill="url(#paint1_linear_615_4037)"/>
<line x1="18" y1="27.6251" x2="72" y2="27.6251" stroke="#0055A0" stroke-width="0.749841" stroke-dasharray="3 3"/>
<path d="M18 44.3333H50.6667" stroke="#0055A0" stroke-width="0.749841" stroke-dasharray="3 3"/>
</g>
<defs>
<linearGradient id="paint0_linear_615_4037" x1="98.3586" y1="32.5382" x2="49.3916" y2="93.4248" gradientUnits="userSpaceOnUse">
<stop stop-color="#0055A0" stop-opacity="0"/>
<stop offset="1" stop-color="#0D78D6"/>
</linearGradient>
<linearGradient id="paint1_linear_615_4037" x1="83.0542" y1="-8.36032" x2="27.0697" y2="77.2252" gradientUnits="userSpaceOnUse">
<stop stop-color="#0055A0" stop-opacity="0"/>
<stop offset="1" stop-color="#0D78D6"/>
</linearGradient>
</defs>
</svg>
