<svg width="13" height="14" viewBox="0 0 13 14" fill="none" xmlns="http://www.w3.org/2000/svg">
<path d="M6.5 14C5.61167 14 4.77208 13.8163 3.98125 13.4488C3.19042 13.0813 2.49979 12.5796 1.90937 11.9438C1.31896 11.3079 0.853125 10.5642 0.511875 9.7125C0.170625 8.86083 0 7.95667 0 7C0 6.03167 0.170625 5.12458 0.511875 4.27875C0.853125 3.43292 1.31896 2.69208 1.90937 2.05625C2.49979 1.42042 3.19042 0.91875 3.98125 0.55125C4.77208 0.18375 5.61167 0 6.5 0C7.39917 0 8.24146 0.18375 9.02687 0.55125C9.81229 0.91875 10.5002 1.42042 11.0906 2.05625C11.681 2.69208 12.1469 3.43292 12.4881 4.27875C12.8294 5.12458 13 6.03167 13 7C13 7.95667 12.8294 8.86083 12.4881 9.7125C12.1469 10.5642 11.681 11.3079 11.0906 11.9438C10.5002 12.5796 9.81229 13.0813 9.02687 13.4488C8.24146 13.8163 7.39917 14 6.5 14ZM6.5 12.565C6.78167 12.145 7.02542 11.7075 7.23125 11.2525C7.43708 10.7975 7.605 10.3133 7.735 9.8H5.265C5.395 10.3133 5.56292 10.7975 5.76875 11.2525C5.97458 11.7075 6.21833 12.145 6.5 12.565ZM4.81 12.285C4.615 11.9 4.44437 11.5004 4.29812 11.0863C4.15187 10.6721 4.03 10.2433 3.9325 9.8H2.015C2.32917 10.3833 2.72187 10.8908 3.19312 11.3225C3.66437 11.7542 4.20333 12.075 4.81 12.285ZM8.19 12.285C8.79667 12.075 9.33562 11.7542 9.80687 11.3225C10.2781 10.8908 10.6708 10.3833 10.985 9.8H9.0675C8.97 10.2433 8.84812 10.6721 8.70187 11.0863C8.55562 11.5004 8.385 11.9 8.19 12.285ZM1.4625 8.4H3.6725C3.64 8.16667 3.61562 7.93625 3.59937 7.70875C3.58312 7.48125 3.575 7.245 3.575 7C3.575 6.755 3.58312 6.51875 3.59937 6.29125C3.61562 6.06375 3.64 5.83333 3.6725 5.6H1.4625C1.40833 5.83333 1.36771 6.06375 1.34062 6.29125C1.31354 6.51875 1.3 6.755 1.3 7C1.3 7.245 1.31354 7.48125 1.34062 7.70875C1.36771 7.93625 1.40833 8.16667 1.4625 8.4ZM4.9725 8.4H8.0275C8.06 8.16667 8.08437 7.93625 8.10062 7.70875C8.11687 7.48125 8.125 7.245 8.125 7C8.125 6.755 8.11687 6.51875 8.10062 6.29125C8.08437 6.06375 8.06 5.83333 8.0275 5.6H4.9725C4.94 5.83333 4.91562 6.06375 4.89937 6.29125C4.88312 6.51875 4.875 6.755 4.875 7C4.875 7.245 4.88312 7.48125 4.89937 7.70875C4.91562 7.93625 4.94 8.16667 4.9725 8.4ZM9.3275 8.4H11.5375C11.5917 8.16667 11.6323 7.93625 11.6594 7.70875C11.6865 7.48125 11.7 7.245 11.7 7C11.7 6.755 11.6865 6.51875 11.6594 6.29125C11.6323 6.06375 11.5917 5.83333 11.5375 5.6H9.3275C9.36 5.83333 9.38437 6.06375 9.40062 6.29125C9.41687 6.51875 9.425 6.755 9.425 7C9.425 7.245 9.41687 7.48125 9.40062 7.70875C9.38437 7.93625 9.36 8.16667 9.3275 8.4ZM9.0675 4.2H10.985C10.6708 3.61667 10.2781 3.10917 9.80687 2.6775C9.33562 2.24583 8.79667 1.925 8.19 1.715C8.385 2.1 8.55562 2.49958 8.70187 2.91375C8.84812 3.32792 8.97 3.75667 9.0675 4.2ZM5.265 4.2H7.735C7.605 3.68667 7.43708 3.2025 7.23125 2.7475C7.02542 2.2925 6.78167 1.855 6.5 1.435C6.21833 1.855 5.97458 2.2925 5.76875 2.7475C5.56292 3.2025 5.395 3.68667 5.265 4.2ZM2.015 4.2H3.9325C4.03 3.75667 4.15187 3.32792 4.29812 2.91375C4.44437 2.49958 4.615 2.1 4.81 1.715C4.20333 1.925 3.66437 2.24583 3.19312 2.6775C2.72187 3.10917 2.32917 3.61667 2.015 4.2Z" fill="white"/>
</svg>
