<svg width="20" height="23" viewBox="0 0 20 23" fill="none" xmlns="http://www.w3.org/2000/svg">
<path d="M20 7.53516V17.0002C20 17.7654 19.7077 18.5017 19.1827 19.0584C18.6578 19.6152 17.9399 19.9503 17.176 19.9952L17 20.0002H3C2.23479 20.0002 1.49849 19.7078 0.941739 19.1829C0.384993 18.6579 0.0498925 17.9401 0.00500011 17.1762L0 17.0002V7.53516L9.445 13.8322L9.561 13.8982C9.69771 13.965 9.84785 13.9997 10 13.9997C10.1522 13.9997 10.3023 13.965 10.439 13.8982L10.555 13.8322L20 7.53516Z" fill="#002B5C"/>
<path d="M17.0003 4C18.0803 4 19.0273 4.57 19.5553 5.427L10.0003 11.797L0.445312 5.427C0.696105 5.01982 1.0406 4.6785 1.45008 4.43149C1.85957 4.18448 2.32217 4.03894 2.79931 4.007L3.00031 4H17.0003Z" fill="#002B5C"/>
</svg>
