<svg width="20" height="23" viewBox="0 0 20 23" fill="none" xmlns="http://www.w3.org/2000/svg">
<path d="M3.04545 0C1.91527 0 1 0.916364 1 2.04545V20.8636C1 21.9927 1.91636 22.9091 3.04545 22.9091H16.9545C18.0836 22.9091 19 21.9927 19 20.8636V12.2727C19 11.1877 18.569 10.1472 17.8018 9.38002C17.0346 8.61282 15.9941 8.18182 14.9091 8.18182H12.8636C12.3211 8.18182 11.8009 7.96632 11.4173 7.58272C11.0337 7.19912 10.8182 6.67885 10.8182 6.13636V4.09091C10.8182 3.00593 10.3872 1.96539 9.61998 1.1982C8.85279 0.431005 7.81225 0 6.72727 0H3.04545Z" fill="white"/>
<path d="M11.0586 0.344604C11.9602 1.3842 12.4558 2.71466 12.4539 4.09079V6.13624C12.4539 6.36206 12.6371 6.54533 12.863 6.54533H14.9084C16.2845 6.54342 17.615 7.03895 18.6546 7.94061C18.1744 6.1153 17.2182 4.45023 15.8836 3.11563C14.549 1.78103 12.8839 0.824772 11.0586 0.344604Z" fill="white"/>
<path d="M5.04297 9.43298H7.73816" stroke="#0055A0" stroke-width="0.941177" stroke-linecap="round"/>
<path d="M5.04297 12.8024H11.7809" stroke="#0055A0" stroke-width="0.941177" stroke-linecap="round"/>
</svg>
