<svg width="100" height="100" viewBox="0 0 100 100" fill="none" xmlns="http://www.w3.org/2000/svg">
<mask id="mask0_615_4035" style="mask-type:alpha" maskUnits="userSpaceOnUse" x="0" y="0" width="100" height="100">
<rect width="100" height="100" fill="#D9D9D9"/>
</mask>
<g mask="url(#mask0_615_4035)">
<path d="M50.2501 29.25C53.6251 15.9272 66.372 9.12448 94.1251 9.00002C94.5688 8.99835 95.0084 9.08451 95.4187 9.25352C95.8289 9.42254 96.2016 9.67108 96.5153 9.98481C96.8291 10.2985 97.0776 10.6713 97.2466 11.0815C97.4156 11.4917 97.5018 11.9313 97.5001 12.375V73.1251C97.5001 74.0202 97.1446 74.8787 96.5116 75.5116C95.8787 76.1445 95.0202 76.5001 94.1251 76.5001C67.1251 76.5001 56.6942 81.9444 50.2501 90.0001M50.2501 29.25C46.8751 15.9272 34.1281 9.12448 6.37503 9.00002C5.93135 8.99835 5.49172 9.08451 5.08149 9.25352C4.67126 9.42254 4.29854 9.67108 3.98481 9.98481C3.67108 10.2985 3.42254 10.6713 3.25352 11.0815C3.08451 11.4917 2.99835 11.9313 3.00002 12.375V72.718C3.00002 74.8021 4.29096 76.5001 6.37503 76.5001C33.3751 76.5001 43.8439 81.9845 50.2501 90.0001M50.2501 29.25V90.0001" stroke="#0055A0" stroke-linecap="round" stroke-linejoin="round" stroke-dasharray="3 3"/>
<path d="M50.2501 29.25C53.6251 15.9272 66.372 9.12448 94.1251 9.00002C94.5688 8.99835 95.0084 9.08451 95.4187 9.25352C95.8289 9.42254 96.2016 9.67108 96.5153 9.98481C96.8291 10.2985 97.0776 10.6713 97.2466 11.0815C97.4156 11.4917 97.5018 11.9313 97.5001 12.375V73.1251C97.5001 74.0202 97.1445 74.8787 96.5116 75.5116C95.8787 76.1445 95.0202 76.5001 94.1251 76.5001C67.1251 76.5001 56.6942 81.9444 50.2501 90.0001C43.8439 81.9845 33.3751 76.5001 6.37503 76.5001C4.29096 76.5001 3.00002 74.8021 3.00002 72.718V12.375C2.99835 11.9313 3.08451 11.4917 3.25352 11.0815C3.42254 10.6713 3.67108 10.2985 3.98481 9.98481C4.29854 9.67108 4.67126 9.42254 5.08149 9.25352C5.49172 9.08451 5.93135 8.99835 6.37503 9.00002C34.1281 9.12448 46.8751 15.9272 50.2501 29.25ZM50.2501 29.25V90.0001Z" fill="url(#paint0_linear_615_4035)"/>
<path d="M15.75 35.0552C15.75 35.0552 24.25 34.0559 39.75 40.5559" stroke="#0055A0" stroke-width="0.749841" stroke-dasharray="3 3"/>
<path d="M85.25 42.0552C85.25 42.0552 76.75 41.0559 61.25 47.5559" stroke="#0055A0" stroke-width="0.749841" stroke-dasharray="3 3"/>
<path d="M15.25 41.6104C15.25 41.6104 21.3903 40.8885 32.75 44.6628" stroke="#0055A0" stroke-width="0.749841" stroke-dasharray="3 3"/>
<path d="M61.75 54.111C67.6114 51.653 71.9717 50.7728 75.75 50" stroke="#0055A0" stroke-width="0.749841" stroke-dasharray="3 3"/>
</g>
<defs>
<linearGradient id="paint0_linear_615_4035" x1="50.2501" y1="9" x2="50.2501" y2="90.0001" gradientUnits="userSpaceOnUse">
<stop stop-color="#0055A0" stop-opacity="0"/>
<stop offset="1" stop-color="#0D78D6"/>
</linearGradient>
</defs>
</svg>
