<svg width="88" height="88" viewBox="0 0 88 88" fill="none" xmlns="http://www.w3.org/2000/svg">
<path d="M80.6113 49.4624C80.1738 48.8805 79.9953 48.1731 80.0758 47.3404C80.1754 46.3101 80.5842 45.532 81.3022 45.0062C82.0235 44.4808 82.9625 44.274 84.1192 44.3858C85.3699 44.5068 86.3014 44.9353 86.9137 45.6715C87.447 46.3117 87.6701 47.0822 87.583 47.983C87.4664 49.1883 86.9859 50.0314 86.1414 50.5122C85.6678 50.7771 85.2063 50.8993 84.757 50.8787L84.9017 49.3818C85.2546 49.3178 85.5258 49.2181 85.7155 49.0828C86.0529 48.8407 86.2474 48.4523 86.2991 47.9177C86.3518 47.3734 86.1729 46.9227 85.7627 46.5658C85.3557 46.2093 84.7504 45.9921 83.9468 45.9144C83.1433 45.8367 82.5247 45.9437 82.0909 46.2353C81.6601 46.5305 81.42 46.9341 81.3705 47.446C81.3197 47.9709 81.4527 48.3877 81.7696 48.6963C81.9395 48.8664 82.2043 49.0196 82.564 49.1557L82.4206 50.6381C81.6523 50.433 81.0492 50.0411 80.6113 49.4624Z" fill="#FFDD00"/>
<path d="M86.6387 53.665L86.2179 55.1089L80.5503 53.4571L79.553 56.8792L78.3108 56.5172L79.7289 51.6513L86.6387 53.665Z" fill="#FFDD00"/>
<path d="M84.3271 60.7061L83.7297 62.0756L77.1328 59.1978L77.7302 57.8283L84.3271 60.7061Z" fill="#FFDD00"/>
<path d="M74.5723 64.9014C74.4328 64.1868 74.581 63.4726 75.0171 62.7586C75.5567 61.8752 76.2642 61.3537 77.1397 61.1943C78.018 61.0365 78.9531 61.2605 79.9448 61.8662C81.0171 62.5212 81.668 63.3135 81.8974 64.2431C82.0976 65.052 81.9618 65.8425 81.4901 66.6148C80.8589 67.6483 80.0585 68.1969 79.0888 68.2607C78.5471 68.2922 78.0785 68.2006 77.6833 67.9859L78.4672 66.7024C78.8126 66.7989 79.1001 66.8277 79.3299 66.7888C79.7391 66.7183 80.0837 66.4539 80.3637 65.9955C80.6487 65.5288 80.6846 65.0453 80.4714 64.5451C80.2609 64.0466 79.8112 63.5869 79.1223 63.1661C78.4333 62.7453 77.8301 62.5714 77.3125 62.6444C76.7961 62.7218 76.4038 62.98 76.1357 63.4189C75.8608 63.869 75.7985 64.302 75.9488 64.718C76.0274 64.9453 76.1987 65.1987 76.4628 65.4782L75.6866 66.7492C75.0849 66.2291 74.7135 65.6132 74.5723 64.9014Z" fill="#FFDD00"/>
<path d="M68.505 71.1779L69.8217 69.7619L73.6374 70.2762L73.5862 69.2484L71.8233 67.6092L72.8308 66.5258L78.1016 71.4268L77.0941 72.5102L74.9236 70.492L75.2022 74.5449L73.8789 75.968L73.7166 71.79L68.505 71.1779Z" fill="#FFDD00"/>
<path d="M65.0082 82.3821L64.328 81.3044L66.149 80.1551L62.9879 75.1464L64.2679 74.3385L67.4291 79.3473L69.2583 78.1928L69.9385 79.2705L65.0082 82.3821Z" fill="#FFDD00"/>
<path d="M57.1366 77.8315C58.0942 77.4557 58.9283 77.4291 59.6388 77.7517C60.5685 78.1248 61.2694 78.9128 61.7415 80.1158C62.2231 81.343 62.2452 82.3974 61.8079 83.2789C61.5063 83.9987 60.8768 84.5465 59.9193 84.9222C58.9617 85.298 58.1276 85.3246 57.417 85.002C56.4999 84.652 55.8005 83.8634 55.3189 82.6362C54.8468 81.4332 54.8232 80.3794 55.248 79.4748C55.5495 78.755 56.1791 78.2073 57.1366 77.8315ZM56.5203 80.1505C56.3566 80.6868 56.4228 81.3323 56.7189 82.0868C57.0138 82.8383 57.4052 83.3544 57.893 83.635C58.3789 83.9199 58.8992 83.9535 59.4537 83.7359C60.0082 83.5183 60.3704 83.1401 60.5401 82.6014C60.7099 82.0627 60.6467 81.4161 60.3506 80.6616C60.0545 79.9071 59.6611 79.3901 59.1702 79.1106C58.6794 78.8311 58.1567 78.8002 57.6022 79.0178C57.0477 79.2354 56.687 79.613 56.5203 80.1505Z" fill="#FFDD00"/>
<path d="M47.8443 82.9052L49.3637 82.7405L49.0849 80.1677L50.5703 80.0067L51.3457 87.1621L48.2292 87.4998C47.5107 87.5777 46.9179 87.4553 46.4508 87.1326C45.9836 86.81 45.7081 86.2619 45.6243 85.4885C45.5328 84.6438 45.6817 84.0236 46.071 83.6278C46.4603 83.232 47.0514 82.9911 47.8443 82.9052ZM47.3067 84.4712C47.1311 84.6638 47.0635 84.9461 47.1038 85.3183C47.1442 85.6905 47.2716 85.9452 47.4862 86.0824C47.6976 86.2199 47.9796 86.2695 48.3324 86.2313L49.7256 86.0803L49.4973 83.9735L48.1041 84.1245C47.7513 84.1627 47.4855 84.2783 47.3067 84.4712Z" fill="#FFDD00"/>
<path d="M39.8043 81.7822L42.4469 81.9967L43.0631 80.5624L44.6302 80.6896L41.4879 87.6555L39.7943 87.518L37.8361 80.1381L39.4616 80.2701L39.8043 81.7822ZM40.1225 83.0524L40.7888 85.9478L41.9427 83.2001L40.1225 83.0524Z" fill="#FFDD00"/>
<path d="M32.5495 78.9118C32.9986 78.7869 33.5016 78.8044 34.0585 78.9644C34.9752 79.2278 35.6348 79.7611 36.0374 80.5643C36.464 81.3778 36.5183 82.3384 36.2 83.4459C35.8782 84.566 35.312 85.3753 34.5015 85.874C33.691 86.3727 32.7789 86.4764 31.7652 86.1851C30.8861 85.9325 30.2449 85.5061 29.8416 84.9059C29.4342 84.3079 29.2872 83.6645 29.4004 82.9756L30.8224 83.3842C30.7962 83.8881 30.9688 84.295 31.3404 84.605C31.5485 84.7765 31.798 84.9041 32.089 84.9877C32.6459 85.1478 33.1649 85.0683 33.646 84.7493C34.1232 84.4325 34.4831 83.8518 34.7258 83.0071C34.9703 82.1561 34.9494 81.4981 34.663 81.0331C34.3767 80.5681 33.9863 80.2646 33.492 80.1225C33.0071 79.9832 32.5697 80.0082 32.18 80.1977C31.7894 80.3903 31.4929 80.703 31.2906 81.136L32.8909 81.5958L32.5591 82.7503L29.6777 81.9223L30.7443 78.2102L31.7017 78.4853L31.599 79.3906C31.9719 79.1421 32.2887 78.9825 32.5495 78.9118Z" fill="#FFDD00"/>
<path d="M23.9324 78.3271L27.0481 79.9129L27.8875 78.2637L24.3366 76.4563L24.9236 75.3032L29.7843 77.7772L26.5195 84.1914L21.8155 81.7971L22.3936 80.6613L25.7878 82.389L26.4811 81.0269L23.3653 79.4411L23.9324 78.3271Z" fill="#FFDD00"/>
<path d="M13.236 75.2164L14.0763 74.2582L15.6952 75.6781L19.6005 71.2252L20.7385 72.2232L16.8332 76.6761L18.4595 78.1024L17.6191 79.0605L13.236 75.2164Z" fill="#FFDD00"/>
<path d="M15.3592 66.4089C15.9942 67.2181 16.2593 68.0094 16.1544 68.7827C16.0643 69.7803 15.5109 70.6781 14.4942 71.4759C13.4571 72.2898 12.4535 72.6139 11.4835 72.4482C10.7074 72.3662 10.0019 71.9206 9.36685 71.1114C8.73181 70.3022 8.46671 69.5109 8.57157 68.7376C8.64327 67.7586 9.19769 66.8621 10.2348 66.0482C11.2515 65.2504 12.254 64.925 13.2425 65.0721C14.0186 65.1541 14.7241 65.5997 15.3592 66.4089ZM12.9608 66.4848C12.4001 66.4821 11.8009 66.7309 11.1633 67.2313C10.5282 67.7297 10.1463 68.2528 10.0176 68.8007C9.88439 69.348 10.0016 69.856 10.3694 70.3246C10.7372 70.7933 11.2034 71.0315 11.7682 71.0393C12.3329 71.0472 12.9341 70.8009 13.5718 70.3005C14.2094 69.8001 14.5916 69.2747 14.7183 68.7242C14.8449 68.1738 14.7244 67.6643 14.3566 67.1957C13.9888 66.727 13.5236 66.4901 12.9608 66.4848Z" fill="#FFDD00"/>
<path d="M9.03826 61.6592L9.74159 63.0161L12.0392 61.8252L12.7268 63.1517L6.33691 66.4639L4.8943 63.6808C4.56173 63.0392 4.46131 62.4423 4.59303 61.89C4.72475 61.3377 5.13597 60.8826 5.82669 60.5246C6.58099 60.1336 7.21307 60.0479 7.72293 60.2676C8.2328 60.4873 8.67124 60.9512 9.03826 61.6592ZM7.38382 61.7249C7.14077 61.6308 6.85307 61.67 6.52071 61.8423C6.18836 62.0145 5.99707 62.2255 5.94684 62.4752C5.89511 62.722 5.95089 63.0029 6.11417 63.3179L6.75908 64.5621L8.64049 63.5869L7.99558 62.3427C7.8323 62.0277 7.62838 61.8217 7.38382 61.7249Z" fill="#FFDD00"/>
<path d="M6.84889 44.6316C7.37457 45.1353 7.66482 45.8046 7.71965 46.6394C7.7875 47.6723 7.50951 48.5061 6.88571 49.1408C6.25865 49.7757 5.36532 50.1312 4.20571 50.2074C2.9519 50.2898 1.96348 50.017 1.24044 49.3892C0.610864 48.8434 0.266421 48.119 0.207111 47.216C0.127747 46.0076 0.465999 45.0981 1.22187 44.4873C1.6466 44.1495 2.08235 43.9545 2.52911 43.9024L2.62768 45.403C2.28977 45.5231 2.03812 45.6652 1.87275 45.8294C1.57884 46.1227 1.44949 46.5374 1.48469 47.0733C1.52053 47.619 1.76968 48.0349 2.23213 48.321C2.69133 48.6072 3.32371 48.7239 4.12927 48.671C4.93482 48.6181 5.52811 48.4128 5.90913 48.055C6.28668 47.6942 6.4586 47.2572 6.4249 46.744C6.39033 46.2178 6.19183 45.8279 5.82939 45.5744C5.63421 45.4339 5.34817 45.3255 4.97126 45.2491L4.87366 43.7631C5.66501 43.8416 6.32342 44.1311 6.84889 44.6316Z" fill="#FFDD00"/>
<path d="M0.223633 41.3203L0.40862 39.8278L6.26711 40.554L6.70555 37.0166L7.98967 37.1757L7.36624 42.2056L0.223633 41.3203Z" fill="#FFDD00"/>
<path d="M1.36035 34.0508L1.72921 32.6029L8.70371 34.3797L8.33485 35.8276L1.36035 34.0508Z" fill="#FFDD00"/>
<path d="M10.3246 28.3042C10.5757 28.9876 10.5427 29.7164 10.2255 30.4905C9.83293 31.4483 9.2171 32.0754 8.37798 32.3718C7.53584 32.667 6.57712 32.5942 5.5018 32.1535C4.33913 31.677 3.5708 30.9981 3.19679 30.1166C2.87078 29.3497 2.87935 28.5476 3.22251 27.7103C3.6817 26.5898 4.38493 25.9211 5.33219 25.7042C5.86211 25.5872 6.33923 25.6033 6.76354 25.7525L6.19325 27.1441C5.83694 27.1036 5.54845 27.1209 5.32778 27.1958C4.93493 27.3303 4.63667 27.646 4.433 28.143C4.22562 28.6491 4.26689 29.1321 4.5568 29.5922C4.84369 30.051 5.36064 30.4334 6.10764 30.7396C6.85464 31.0457 7.47784 31.1217 7.97724 30.9675C8.47487 30.8091 8.8212 30.4919 9.01624 30.016C9.21621 29.5281 9.20901 29.0906 8.99465 28.7038C8.88098 28.4918 8.67159 28.2688 8.36647 28.0347L8.9312 26.6567C9.60774 27.0747 10.0722 27.6238 10.3246 28.3042Z" fill="#FFDD00"/>
<path d="M15.2514 21.2168L14.1777 22.825L10.3289 22.9267L10.5436 23.9331L12.5456 25.2697L11.7241 26.5002L5.73828 22.5039L6.55976 21.2734L9.02477 22.9191L8.10242 18.9627L9.18146 17.3465L10.0089 21.445L15.2514 21.2168Z" fill="#FFDD00"/>
<path d="M16.9525 9.5445L17.7928 10.5026L16.1739 11.9225L20.0792 16.3754L18.9412 17.3734L15.0359 12.9205L13.4096 14.3468L12.5693 13.3887L16.9525 9.5445Z" fill="#FFDD00"/>
<path d="M25.369 12.8044C24.4833 13.3276 23.6641 13.4864 22.9113 13.2809C21.9341 13.0604 21.1169 12.3938 20.4596 11.2811C19.7891 10.146 19.5996 9.10856 19.8913 8.16874C20.0746 7.41018 20.6091 6.7693 21.4947 6.24611C22.3804 5.72292 23.1996 5.56411 23.9524 5.76967C24.9135 5.96941 25.7294 6.63682 26.3999 7.77191C27.0572 8.88459 27.248 9.92122 26.9724 10.8818C26.7891 11.6404 26.2547 12.2812 25.369 12.8044ZM25.6089 10.4169C25.6853 9.8614 25.5173 9.23471 25.1051 8.53684C24.6945 7.84177 24.2261 7.39445 23.6999 7.1949C23.1748 6.99089 22.6558 7.04038 22.1429 7.34337C21.63 7.64636 21.3326 8.07727 21.2506 8.6361C21.1686 9.19493 21.3338 9.82329 21.746 10.5212C22.1583 11.219 22.6289 11.6669 23.1579 11.8648C23.687 12.0627 24.2079 12.0102 24.7208 11.7072C25.2337 11.4042 25.5297 10.9741 25.6089 10.4169Z" fill="#FFDD00"/>
<path d="M33.79 6.24816L32.3164 6.6535L33.0028 9.14872L31.5622 9.54499L29.6533 2.60547L32.6758 1.77407C33.3726 1.58241 33.9774 1.6085 34.4901 1.85234C35.0028 2.09619 35.3623 2.59318 35.5687 3.34331C35.794 4.16249 35.7461 4.79855 35.4251 5.25148C35.104 5.70442 34.559 6.03664 33.79 6.24816ZM34.0704 4.61634C34.213 4.39819 34.2346 4.10865 34.1353 3.7477C34.036 3.38676 33.8695 3.15572 33.6358 3.0546C33.4051 2.9526 33.1188 2.94866 32.7767 3.04276L31.4255 3.41443L31.9875 5.45768L33.3387 5.08601C33.6808 4.99191 33.9247 4.83535 34.0704 4.61634Z" fill="#FFDD00"/>
<path d="M41.704 6.0836L39.0613 6.29812L38.6846 7.81306L37.1175 7.94027L39.0951 0.558797L40.7887 0.421313L43.9115 7.38876L42.286 7.52071L41.704 6.0836ZM41.1851 4.88141L40.0605 2.13135L39.3649 5.02916L41.1851 4.88141Z" fill="#FFDD00"/>
<path d="M49.3951 7.72309C48.9717 7.91815 48.4724 7.98116 47.8971 7.91209C46.9501 7.79841 46.2138 7.37725 45.6882 6.6486C45.1371 5.91361 44.9302 4.97405 45.0676 3.82992C45.2065 2.67287 45.6362 1.7835 46.3567 1.16182C47.0772 0.54014 47.961 0.292155 49.0082 0.417863C49.9164 0.526888 50.6175 0.845467 51.1114 1.3736C51.609 1.89889 51.8569 2.5106 51.855 3.20871L50.3861 3.03237C50.3316 2.53076 50.0962 2.15661 49.6799 1.90992C49.4471 1.77378 49.1804 1.68767 48.8798 1.65158C48.3045 1.58252 47.8048 1.74384 47.3807 2.13554C46.9603 2.5244 46.6977 3.15515 46.593 4.02779C46.4874 4.9069 46.6131 5.55311 46.97 5.96644C47.327 6.37977 47.7608 6.61708 48.2714 6.67838C48.7724 6.73852 49.2001 6.64397 49.5546 6.39473C49.9095 6.14227 50.1522 5.78617 50.2828 5.32646L48.6297 5.128L48.7728 3.93539L51.7495 4.29273L51.2892 8.1275L50.3002 8.00877L50.257 7.0987C49.9286 7.40353 49.6413 7.61166 49.3951 7.72309Z" fill="#FFDD00"/>
<path d="M58.1625 6.93024L54.8331 5.86358L54.2685 7.62593L58.0629 8.84156L57.6681 10.0738L52.474 8.40977L54.6699 1.55566L59.6966 3.16608L59.3078 4.37973L55.6807 3.21773L55.2145 4.67318L58.5439 5.73984L58.1625 6.93024Z" fill="#FFDD00"/>
<path d="M69.1135 8.21752L68.4373 9.29773L66.6121 8.15516L63.4694 13.1755L62.1864 12.3723L65.3291 7.35199L63.4957 6.20424L64.1719 5.12402L69.1135 8.21752Z" fill="#FFDD00"/>
<path d="M68.4247 17.2228C67.6688 16.5251 67.2811 15.7862 67.2614 15.006C67.1915 14.0068 67.5948 13.0323 68.4714 12.0827C69.3656 11.114 70.3047 10.6341 71.2887 10.6432C72.0679 10.6005 72.8355 10.928 73.5913 11.6257C74.3472 12.3234 74.7349 13.0624 74.7546 13.8425C74.8398 14.8204 74.4353 15.7938 73.541 16.7625C72.6645 17.7121 71.7266 18.1931 70.7273 18.2054C69.9481 18.2481 69.1805 17.9205 68.4247 17.2228ZM70.7803 16.7658C71.3343 16.6791 71.8862 16.338 72.436 15.7424C72.9836 15.1492 73.2772 14.5719 73.317 14.0106C73.3613 13.449 73.1646 12.9662 72.7269 12.5622C72.2892 12.1581 71.7909 11.9972 71.2321 12.0794C70.6733 12.1617 70.119 12.5006 69.5693 13.0962C69.0195 13.6918 68.7259 14.2714 68.6886 14.8349C68.6512 15.3985 68.8514 15.8823 69.2891 16.2864C69.7268 16.6904 70.2239 16.8502 70.7803 16.7658Z" fill="#FFDD00"/>
<path d="M75.5657 21.0516L74.6577 19.8223L72.5761 21.3598L71.6883 20.158L77.4775 15.8818L79.34 18.4033C79.7694 18.9846 79.9625 19.5583 79.9193 20.1244C79.8761 20.6905 79.5416 21.2047 78.9158 21.6669C78.2324 22.1717 77.6217 22.3557 77.0836 22.219C76.5455 22.0822 76.0395 21.6931 75.5657 21.0516ZM77.1892 20.7265C77.444 20.7811 77.722 20.6972 78.0231 20.4748C78.3242 20.2524 78.4799 20.0139 78.4903 19.7595C78.5025 19.5076 78.4032 19.2389 78.1924 18.9535L77.3598 17.8263L75.6553 19.0854L76.4879 20.2126C76.6987 20.498 76.9325 20.6693 77.1892 20.7265Z" fill="#FFDD00"/>
</svg>
