<svg width="494" height="349" viewBox="0 0 494 349" fill="none" xmlns="http://www.w3.org/2000/svg">
<ellipse opacity="0.6" cx="106.5" cy="313.5" rx="106.5" ry="35.5" fill="white"/>
<ellipse opacity="0.8" cx="277.5" cy="180" rx="72.5" ry="24" fill="white"/>
<g clip-path="url(#clip0_1135_4355)">
<path d="M307.541 102.439H292.091L295.412 67.5223L307.726 68.8528L309.577 69.0529L307.541 102.439Z" fill="#D4DBDF"/>
<path d="M274.584 97.5626L273.349 98.9831L276.49 103.685L277.565 103.34L278.45 99.7984L274.584 97.5626Z" fill="white"/>
<path d="M272.924 98.6029C272.924 98.6029 273.024 98.6529 273.149 98.7129C273.474 98.873 273.754 99.1081 273.97 99.3932C274.37 99.9234 274.9 100.714 274.64 100.849C274.24 101.059 272.109 100.243 270.568 100.429C269.773 99.7633 269.598 100.369 269.048 99.6032C269.258 99.4232 269.518 98.5179 269.793 98.4178C270.098 98.3078 272.519 98.4829 272.929 98.5979L272.924 98.6029Z" fill="#E9A37F"/>
<path d="M270.554 100.419C271.494 101.224 272.434 102.829 273.92 103.36C273.945 104.16 271.279 102.774 271.059 102.604C271.029 102.579 271.564 101.959 270.809 102.099C270.614 102.134 269.548 103.73 269.213 103.195C269.558 101.929 269.433 100.889 268.878 99.7484C268.888 99.7484 268.928 99.6784 269.048 99.5784C269.593 100.349 269.773 99.7434 270.564 100.419H270.554Z" fill="#E1A07D"/>
<path d="M268.743 103.545C268.453 103.469 270.864 103.53 271.059 102.599C271.279 102.774 273.945 104.155 273.92 103.354C272.434 102.824 271.499 101.219 270.554 100.413C272.094 100.243 274.43 101.489 274.31 100.664C274.215 100.023 273.304 99.098 272.949 98.6879C272.844 98.5678 272.879 98.4328 272.879 98.4328C275.105 98.3227 276.01 101.429 276.105 103.104C275.305 103.434 275.175 103.59 274.51 103.945C274.255 104.08 274.07 103.68 273.755 103.86C273.755 103.86 269.868 103.835 268.748 103.54L268.743 103.545Z" fill="#D08A67"/>
<path d="M272.263 105.22C272.974 105.645 273.159 105.415 273.734 105.345C273.819 105.335 274.099 105.515 274.159 105.495C274.479 105.405 274.419 105.03 274.499 104.98C274.689 104.86 274.954 105.23 275.309 104.95C275.375 104.895 275.44 104.45 275.51 104.385C275.56 104.335 275.935 104.39 276.13 104.205C276.39 103.965 276.165 103.409 276.195 103.349C276.265 103.194 276.815 103.459 276.73 102.624C276.565 100.964 272.664 100.263 272.664 100.263C273.329 100.113 274.089 100.548 274.769 100.728C274.409 100.118 273.054 99.8981 272.384 99.9231C272.994 99.528 273.594 99.2279 273.309 98.4727C272.424 98.4727 269.793 99.1929 268.897 99.523C266.807 100.298 268.087 100.133 268.282 100.698C268.457 101.219 268.332 103.314 268.652 103.699C268.842 103.93 269.357 103.579 269.838 103.719C270.178 103.819 270.698 104.195 271.183 104.595C271.328 104.715 271.488 104.82 271.658 104.905C271.873 105.015 272.158 105.16 272.258 105.215L272.263 105.22Z" fill="#E9A37F"/>
<path d="M306.576 174.794C306.576 174.794 306.381 175.639 305.34 176.639C304.3 177.64 302.089 180.696 301.844 181.436C301.609 182.176 301.609 183.412 302.559 183.782C303.515 184.152 305.9 184.392 308.351 183.087C310.802 181.781 311.192 179.46 311.822 178.635C312.453 177.815 314.513 176.534 314.884 175.859C315.254 175.189 314.884 172.368 314.884 172.368L306.576 174.799V174.794Z" fill="#2E373A"/>
<path d="M302.559 183.777C303.515 184.147 305.901 184.387 308.351 183.082C310.802 181.776 311.192 179.455 311.823 178.635C312.453 177.81 314.514 176.529 314.879 175.859C314.954 175.729 314.999 175.504 315.024 175.239C315.064 176.014 315.064 176.855 314.879 177.18C314.589 177.71 313.243 178.62 312.383 179.385L312.298 178.58C312.103 178.755 311.938 178.925 311.823 179.08C311.192 179.906 310.802 182.226 308.351 183.527C305.901 184.832 303.515 184.592 302.559 184.222C301.844 183.947 301.664 183.177 301.719 182.501C301.764 183.042 301.994 183.562 302.559 183.782" fill="#040407"/>
<path d="M294.986 162.75C294.986 162.75 294.546 163.5 293.251 164.135C291.955 164.775 288.924 167.026 288.474 167.656C288.024 168.287 287.654 169.467 288.454 170.107C289.254 170.747 291.455 171.693 294.186 171.188C296.917 170.682 297.987 168.587 298.838 167.991C299.688 167.396 302.039 166.796 302.589 166.266C303.144 165.736 303.639 162.935 303.639 162.935L294.986 162.75Z" fill="#2E373A"/>
<path d="M288.454 170.102C289.254 170.742 291.455 171.688 294.186 171.183C296.917 170.677 297.987 168.582 298.837 167.986C299.683 167.391 302.033 166.791 302.589 166.256C302.699 166.151 302.809 165.951 302.914 165.706C302.719 166.456 302.463 167.256 302.193 167.516C301.758 167.931 300.203 168.397 299.147 168.867L299.307 168.071C299.067 168.182 298.862 168.292 298.702 168.402C297.852 168.997 296.782 171.093 294.051 171.598C291.32 172.103 289.119 171.158 288.319 170.517C287.718 170.037 287.778 169.252 288.039 168.622C287.919 169.152 287.979 169.717 288.454 170.097" fill="#040407"/>
<path d="M252.862 178.07C251.447 177.175 246.705 175.114 245.645 172.708L238.057 172.473C238.057 172.473 236.817 174.459 236.867 175.769C236.867 175.769 238.277 177.255 239.758 177.79C241.238 178.325 242.379 178.545 243.889 179.566C245.405 180.586 247.98 181.741 250.266 181.871C252.552 182.001 254.438 180.936 254.733 180.211C255.033 179.481 254.278 178.965 252.862 178.07Z" fill="#0C1431"/>
<path d="M254.728 180.231C254.408 180.956 252.537 182.001 250.266 181.876C247.98 181.746 245.404 180.591 243.889 179.57C242.378 178.55 241.238 178.335 239.758 177.8C238.282 177.265 236.867 175.779 236.867 175.779C236.867 175.739 236.867 175.699 236.867 175.659C236.847 175.739 236.827 175.819 236.817 175.899L236.401 176.909C236.401 176.909 236.621 177.255 237.552 177.925C238.487 178.595 241.608 179.5 241.608 179.5C241.608 179.5 241.718 179.215 241.823 178.94C242.453 179.185 243.094 179.485 243.824 179.976C245.334 180.996 247.915 182.151 250.201 182.281C252.487 182.411 254.367 181.351 254.668 180.621C254.723 180.486 254.743 180.351 254.728 180.226" fill="#040407"/>
<path d="M265.137 168.137C263.721 167.241 258.979 165.181 257.919 162.775L250.332 162.54C250.332 162.54 249.091 164.525 249.141 165.836C249.141 165.836 250.552 167.321 252.032 167.856C253.513 168.392 254.653 168.612 256.164 169.632C257.679 170.652 260.255 171.808 262.541 171.938C264.826 172.068 266.712 171.003 267.007 170.277C267.307 169.547 266.552 169.032 265.137 168.137Z" fill="#0C1431"/>
<path d="M267.001 170.297C266.681 171.023 264.81 172.068 262.54 171.943C260.254 171.813 257.678 170.658 256.162 169.637C254.652 168.617 253.511 168.402 252.031 167.867C250.555 167.331 249.14 165.846 249.14 165.846C249.14 165.806 249.14 165.766 249.14 165.726C249.12 165.806 249.1 165.886 249.09 165.966L248.675 166.976C248.675 166.976 248.895 167.321 249.825 167.992C250.761 168.662 253.882 169.567 253.882 169.567C253.882 169.567 253.992 169.282 254.097 169.007C254.727 169.252 255.367 169.552 256.097 170.042C257.608 171.063 260.189 172.218 262.475 172.348C264.76 172.478 266.641 171.418 266.941 170.688C266.996 170.552 267.016 170.417 267.001 170.292" fill="#040407"/>
<path d="M255.503 113.873C256.063 115.128 255.658 116.429 255.333 117.574L255.503 113.873Z" fill="#0A2949"/>
<path d="M312.143 174.644C312.143 174.644 312.143 174.664 312.143 174.669C312.393 174.909 313.028 174.589 313.618 174.289L312.143 174.644Z" fill="#0D2A4A"/>
<path d="M313.623 174.289L314.838 173.999C314.753 173.708 314.208 173.989 313.623 174.289Z" fill="#0D2A4A"/>
<path d="M296.672 122.786C296.217 122.906 293.016 121.761 292.886 121.611C292.701 121.39 292.846 120.035 292.636 119.59C293.211 119.985 296.277 121.776 296.422 121.946C296.777 122.366 296.612 122.351 296.672 122.786Z" fill="#0D2A4A"/>
<path d="M315.173 160.794C315.158 159.904 315.193 158.999 315.173 158.103C315.068 153.022 315.374 148.815 313.698 144.043C313.303 142.913 313.093 141.723 313.063 140.522L312.818 131.194C312.703 131.244 312.438 131.234 312.142 131.364C311.992 131.429 311.327 132.054 311.217 132.039L310.797 131.619C311.032 130.164 311.207 128.613 310.377 127.333C309.692 127.943 310.692 130.679 309.872 130.699C308.311 130.734 308.911 126.002 309.116 125.067C309.417 123.692 310.372 122.656 310.632 121.786C310.687 121.601 310.757 121.556 310.802 121.281C310.812 121.206 310.647 120.185 310.632 119.765C310.237 108.201 310.982 97.0975 310.127 85.4535C309.141 87.034 308.286 89.4148 307.771 91.2555C305.19 100.514 307.206 110.777 308.106 120.35C308.116 120.455 308.901 121.071 308.356 121.611C307.716 121.716 307.066 121.876 306.42 121.946C305.93 122.001 305.25 121.961 304.74 121.946C302.419 121.881 296.632 121.076 296.332 118.245C294.666 117.119 293.291 116.014 291.961 114.458C291.735 114.198 291.195 112.603 290.785 113.363C290.915 114.103 291.745 114.944 291.796 115.129C292.106 116.334 291.841 118.015 291.966 119.25C292.826 127.973 293.671 136.746 294.151 145.489C294.201 146.404 294.116 147.4 294.151 148.18C294.266 150.796 295.217 161.76 294.486 163.485C294.486 163.485 294.867 163.67 295.737 163.88C296.132 163.975 296.792 164.035 297.517 164.06L303.565 164.26C303.75 163.43 303.504 162.48 303.444 161.469C303.294 158.899 302.869 156.523 302.954 153.962V152.281C302.954 151.666 302.894 150.661 302.819 150.051C302.434 146.904 302.119 144.584 302.054 140.782C302.799 144.979 303.995 148.46 304.745 152.386C304.895 153.182 304.8 153.862 304.915 154.572C305.81 160.234 306.651 168.987 306.37 174.579C307.111 175.424 307.956 175.509 309.797 175.424L310.637 175.004L312.147 174.639C312.147 174.639 312.147 174.659 312.147 174.664C312.648 175.139 313.993 174.359 314.838 173.989L315.008 173.819C314.888 169.467 315.238 165.126 315.178 160.784L315.173 160.794ZM292.886 121.606C292.706 121.386 292.846 120.03 292.636 119.585C293.211 119.98 296.277 121.771 296.422 121.941C296.777 122.361 296.612 122.346 296.672 122.781C296.217 122.901 293.016 121.756 292.886 121.606Z" fill="#1A354D"/>
<path d="M311.137 120.095L310.967 121.271H310.797C310.807 121.196 310.642 120.175 310.627 119.755C310.962 119.62 311.102 120.08 311.132 120.09L311.137 120.095Z" fill="#0D2A4A"/>
<path d="M312.148 51.1366C312.063 50.9015 312.008 50.8615 311.978 50.8015C311.847 50.5164 311.837 50.4364 311.642 50.1263C308.701 45.4997 305.935 47.3203 301.804 47.6054C299.118 47.7905 300.244 47.2303 298.943 46.43C295.552 44.3393 293.146 50.4514 296.337 53.1573C297.263 53.9426 298.208 54.2477 299.363 54.5028C299.758 54.5878 300.684 54.6078 301.214 54.6728C301.269 54.6778 301.329 54.6678 301.384 54.6728C302.004 54.4978 302.769 54.3977 303.405 54.3377C305.97 54.0876 309.367 52.9772 311.727 51.8168C312.063 51.6518 312.228 51.5768 312.148 51.1416V51.1366Z" fill="#553216"/>
<path d="M306.26 63.4161C306.66 63.6562 306.91 63.7162 307.1 63.246C307.11 63.276 307.541 63.276 307.606 63.5811C307.756 64.3014 308.446 67.9776 308.446 68.4578C308.456 70.7036 303.684 72.094 301.804 72.3241C299.778 72.5742 300.363 71.949 300.208 70.3034C303.289 71.4538 304.299 68.6329 305.085 66.2671C305.47 65.1017 305.74 64.5465 305.925 63.241C306.255 63.146 306.245 63.4011 306.26 63.4111V63.4161Z" fill="#E9A37F"/>
<path d="M308.78 62.2354C308.8 62.2654 308.755 62.4305 308.95 62.4055C308.57 62.8856 308.425 63.5558 307.605 63.5809C307.54 63.2708 307.11 63.2758 307.1 63.2457C307.02 62.9556 306.825 62.7106 306.93 62.3204C307.5 61.4801 308.21 61.4251 308.78 62.2354Z" fill="#D08A67"/>
<path d="M314.668 122.281C315.523 122.156 316.034 122.086 316.689 121.441C316.894 123.211 317.454 127.498 316.689 129.093C316.494 129.499 313.423 130.939 312.822 131.194C312.707 131.244 312.442 131.234 312.147 131.364C311.767 129.994 313.233 123.467 312.822 122.701C312.767 122.596 310.907 122.156 310.637 121.776C310.692 121.591 310.762 121.546 310.807 121.271H310.977C311.507 122.366 313.533 122.446 314.678 122.281H314.668Z" fill="#D08A67"/>
<path d="M312.148 131.364C311.998 131.429 311.332 132.054 311.222 132.039L310.802 131.619C311.037 130.164 311.212 128.613 310.382 127.333C309.697 127.943 310.697 130.679 309.877 130.699C308.316 130.734 308.917 126.002 309.122 125.067C309.417 123.691 310.377 122.656 310.637 121.786C310.907 122.166 312.768 122.606 312.823 122.711C313.233 123.476 311.768 129.999 312.148 131.374V131.364Z" fill="#E9A37F"/>
<path d="M304.075 55.5082C304.11 55.7233 304.05 55.9634 304.075 56.1835C304.25 57.659 304.545 58.6993 304.75 60.2198C305.16 63.2759 305.76 64.7914 302.899 66.442C302.239 65.5617 302.949 64.6413 302.059 64.0862C302.049 64.0812 302.119 63.9511 301.889 63.9161L301.214 54.6679C301.269 54.6729 301.329 54.6629 301.384 54.6679C302.319 54.768 303.049 54.908 303.99 54.6679C304.165 54.803 304.035 55.2832 304.075 55.5082Z" fill="#E9A37F"/>
<path d="M300.202 70.3083C300.122 69.4731 299.917 68.6428 300.032 67.7875C300.092 67.7525 300.212 67.7075 300.367 67.6174C300.522 67.5274 300.612 67.4974 300.703 67.4474C302.183 67.7425 303.879 67.0873 305.074 66.272C304.289 68.6378 303.278 71.4587 300.197 70.3083H300.202Z" fill="#D08A67"/>
<path d="M307.101 58.7041C305.19 60.0196 306.196 61.365 305.926 63.2456C305.741 64.5511 305.47 65.1063 305.085 66.2717C303.89 67.087 302.194 67.7472 300.714 67.4471C301.399 67.072 302.099 66.8969 302.9 66.4367C305.761 64.7862 305.16 63.2707 304.75 60.2146C304.97 59.8845 305.045 59.9795 305.255 59.8795C306.171 59.4293 306.066 58.9042 307.106 58.7041H307.101Z" fill="#553216"/>
<path d="M308.611 59.3796C308.666 59.4096 308.806 59.3596 308.781 59.5496C309.041 60.4549 309.156 61.4103 308.781 62.2405C308.21 61.4303 307.5 61.4853 306.93 62.3256C306.825 62.7157 307.02 62.9608 307.1 63.2509C306.91 63.716 306.66 63.661 306.26 63.4209C306.3 62.2355 306.48 58.2692 308.616 59.3846L308.611 59.3796Z" fill="#D08A67"/>
<path d="M308.611 59.2094V59.3794C306.475 58.2641 306.295 62.2304 306.255 63.4158C306.24 63.4058 306.25 63.1507 305.92 63.2458C306.19 61.3651 305.19 60.0197 307.095 58.7042C307.906 58.5492 307.961 58.6692 308.611 59.2094Z" fill="#E1A07D"/>
<path d="M316.684 120.26C316.714 120.646 316.639 121.056 316.684 121.436C316.034 122.081 315.524 122.151 314.663 122.276C314.528 121.651 314.978 120.911 314.493 120.595C314.818 120.58 316.504 120.35 316.679 120.26H316.684Z" fill="#28415A"/>
<path d="M296.672 66.7771C296.637 66.9121 296.557 66.9822 296.502 67.1122C296.467 67.1972 295.476 68.2176 295.326 68.5427C294.166 71.0235 292.921 73.0842 294.151 75.7752C292.856 73.8345 292.21 76.0203 294.321 76.2803C294.026 76.5004 293.391 76.2253 293.146 76.4504C292.375 77.1456 292.976 94.8067 293.651 97.1374C293.361 97.4676 293.161 96.5322 293.146 96.4622C292.41 92.2258 292.385 85.6985 292.47 81.3271C292.555 77.2657 292.585 73.6494 294.321 69.8882C294.791 68.8678 295.632 67.2423 296.677 66.7771H296.672Z" fill="#28415A"/>
<path d="M300.374 67.6174C300.219 67.7074 300.094 67.7524 300.039 67.7875C298.198 68.8928 298.078 69.468 297.178 71.3187C294.627 76.5655 294.287 82.5375 293.982 88.3045C293.962 88.6896 293.827 89.1597 293.812 89.4799C294.052 83.7529 293.997 76.2804 296.672 71.0636C296.863 70.6985 298.488 68.2826 298.693 68.1226C299.088 67.8075 299.864 67.6124 300.374 67.6174Z" fill="#28415A"/>
<path d="M312.647 120.43C313.308 120.54 313.818 120.625 314.498 120.6C314.983 120.915 314.528 121.656 314.668 122.281C313.523 122.446 311.497 122.366 310.967 121.271L311.137 120.095C311.527 120.265 312.207 120.36 312.652 120.43H312.647Z" fill="#28415A"/>
<path d="M319.545 78.7212C318.955 75.8152 318.144 75.6801 316.014 74.0095C314.613 72.9092 312.983 72.1889 311.892 71.3186C310.722 70.3833 310.962 69.453 309.451 68.7978C310.567 70.7634 307.951 73.6194 306.51 74.8548C305.625 75.6101 305.075 76.1603 304.46 76.6605L304.24 76.9556L297.177 89.99C296.812 90.7753 295.762 94.1814 295.327 95.792C294.871 97.4775 294.486 99.2582 294.316 101.004C293.996 100.258 293.871 99.3682 293.811 98.5629C293.621 95.852 293.701 92.2308 293.811 89.4798C294.051 83.7529 293.996 76.2803 296.672 71.0635C296.862 70.6984 298.488 68.2826 298.693 68.1225C297.547 68.0875 297.842 67.8024 296.507 67.1122C296.472 67.1972 295.482 68.2176 295.332 68.5427C294.171 71.0235 292.926 73.0842 294.156 75.7751C292.861 73.8345 292.216 76.0202 294.326 76.2803C294.031 76.5004 293.396 76.2253 293.151 76.4504C292.381 77.1456 292.981 94.8066 293.656 97.1374C293.366 97.4675 293.166 96.5322 293.151 96.4622C292.416 92.2258 292.391 85.6985 292.476 81.327C292.561 77.2657 292.591 73.6494 294.326 69.8881C294.796 68.8678 295.637 67.2422 296.682 66.7771C296.727 66.602 296.667 66.3169 296.682 66.1019C296.737 65.3816 296.557 64.8914 296.512 64.2512C289.119 68.3276 291.095 79.2513 290.12 86.3688C289.285 87.149 288.324 87.7692 287.429 88.4695C283.798 91.3255 278.531 93.9914 275.32 97.0474C275.155 97.2025 274.835 97.1724 274.479 97.7226C275.975 98.2128 277.451 99.3132 277.676 101.004C277.841 102.234 277.17 102.479 277.34 103.445C281.397 101.664 285.098 99.0881 288.944 96.8873C289.109 96.7923 289.375 96.6873 289.62 96.5522C290.045 96.3122 290.54 96.1321 290.965 95.877C290.92 100.193 290.17 108.966 290.74 112.993C290.77 113.213 290.8 113.433 290.81 113.658C290.85 114.513 291.055 117.054 292.065 118.475C294.891 121.191 302.439 121.881 304.76 121.946C305.275 121.961 305.95 122.001 306.44 121.946C307.086 121.876 307.731 121.716 308.376 121.611C308.916 121.071 308.136 120.455 308.126 120.35C307.221 110.777 305.205 100.509 307.791 91.2554C308.306 89.4148 309.161 87.034 310.147 85.4534C311.002 97.0974 310.257 108.201 310.652 119.765C310.987 119.63 311.127 120.09 311.157 120.1C311.547 120.27 312.227 120.365 312.673 120.435C313.333 120.545 313.843 120.63 314.523 120.605C314.848 120.59 316.534 120.36 316.709 120.27C317.424 119.885 317.354 119.09 317.719 118.505L319.57 93.1911C319.935 89.0247 320.385 82.7375 319.57 78.7262L319.545 78.7212Z" fill="#28415A"/>
<path d="M288.685 87.7992C289.09 87.6491 290.49 89.0996 290.03 89.3147L288.685 87.7992Z" fill="#28415A"/>
<path d="M288.18 88.1393C288.555 88.6345 289.475 89.0746 289.355 89.8199C288.93 89.4447 288.215 88.7395 288.18 88.1393Z" fill="#28415A"/>
<path d="M299.843 73.3591C301.213 72.5739 302.254 76.6302 302.254 76.6302C302.254 76.6302 309.501 71.2584 308.946 68.6275C308.736 68.5875 308.641 68.5925 308.441 68.4575C308.451 70.7032 303.679 72.0937 301.799 72.3238C299.773 72.5739 300.358 71.9486 300.203 70.3031C300.123 69.4678 299.918 68.6375 300.033 67.7822C298.192 68.8876 298.072 69.4628 297.172 71.3134L297.087 74.2644C297.092 74.1794 297.952 73.9093 298.122 73.8743L299.838 73.3541L299.843 73.3591Z" fill="#E1E7EB"/>
<path d="M300.308 73.1493C300.468 73.1243 300.648 73.1643 300.813 73.1493C301.018 73.7145 301.413 74.9549 301.488 75.5051C300.338 75.5051 298.933 76.0503 299.973 77.3557C299.143 79.3664 299.273 83.3528 298.627 85.5986C298.172 86.6739 297.857 87.8693 297.452 88.9647C296.322 91.9907 295.611 97.6377 294.116 100.429C293.566 98.668 293.651 93.5013 293.761 90.7503C293.776 90.4252 294.236 88.1694 294.256 87.7843C295.001 85.4085 295.281 82.8126 296.107 80.4668C296.457 79.4665 298.602 75.7002 298.627 75.4201C298.683 74.7699 297.687 74.2147 298.292 73.8245C298.943 73.7745 299.618 73.2493 300.313 73.1493H300.308Z" fill="#AC1F24"/>
<path d="M300.644 72.9841C300.729 73.0692 300.779 73.0692 300.814 73.1542C300.649 73.1692 300.469 73.1292 300.309 73.1542C300.464 72.9841 300.559 73.0241 300.644 72.9841Z" fill="#AC1F24"/>
<path d="M301.589 74.7597C302.349 76.1601 300.589 75.865 299.969 77.3556C299.734 77.0655 299.463 77.0605 299.433 76.7153C299.353 75.68 300.129 73.5993 301.039 73.8444C301.184 73.8844 301.439 74.4646 301.584 74.7647L301.589 74.7597Z" fill="#AC1F24"/>
<path d="M312.483 52.3121C312.468 52.2021 312.503 52.082 312.483 51.977C312.443 51.7419 312.222 51.3618 312.147 51.1367C312.227 51.5669 312.062 51.6419 311.727 51.8119C309.362 52.9773 305.97 54.0877 303.404 54.3328C302.774 54.3928 302.004 54.4929 301.384 54.6679C302.319 54.768 303.049 54.908 303.99 54.6679C304.165 54.803 304.035 55.2831 304.075 55.5082C304.11 55.7233 304.05 55.9634 304.075 56.1834C304.25 57.6589 304.545 58.6993 304.75 60.2198C304.97 59.8897 305.045 59.9847 305.255 59.8847C306.17 59.4345 306.065 58.9094 307.106 58.7093C307.916 58.5542 307.971 58.6743 308.621 59.2145V59.3845C308.676 59.4145 308.816 59.3645 308.791 59.5546C309.051 60.4599 309.166 61.4152 308.791 62.2455C308.811 62.2755 308.766 62.4406 308.961 62.4156C311.152 59.6196 312.928 55.9234 312.493 52.3221L312.483 52.3121Z" fill="#624024"/>
<path d="M263.321 106.136C263.416 106.801 263.251 107.631 263.321 108.321C262.491 108.646 261.92 109.272 260.8 108.997C260.8 108.976 260.625 109.077 260.63 108.661C260.66 107.276 261.18 105.885 260.965 104.455C261.2 104.48 262.826 104.73 262.901 104.79C263.141 104.985 263.276 105.8 263.321 106.136Z" fill="#E4F3FB"/>
<path d="M244.819 66.1068C244.629 67.9424 244.034 68.4376 245.41 69.8081C247.86 72.2489 250.781 72.399 253.567 73.5093C253.587 73.5193 253.882 73.8344 253.902 73.8444C253.592 73.7594 253.657 73.9095 253.567 74.0145C251.021 73.9795 243.974 71.6437 243.814 68.6327C243.794 68.2625 244.329 66.3469 244.824 66.1118L244.819 66.1068Z" fill="white"/>
<path d="M256.763 75.5249C257.048 75.795 256.093 76.3802 256.088 76.9554C256.083 77.5305 257.704 81.9571 257.939 83.1775C258.789 87.604 259.239 92.1555 259.789 96.6321C259.699 96.8021 256.378 95.7117 256.088 95.5367L254.572 78.2158C255.028 78.1858 254.908 77.8407 255.248 77.6256L252.387 76.3651C252.577 76.07 252.912 75.1998 253.227 74.6846C253.547 73.8743 256.513 75.2948 256.758 75.5249H256.763Z" fill="#4C80B7"/>
<path d="M254.577 78.2158C254.452 78.2258 252.327 77.4406 252.222 77.3755C251.922 77.5856 251.161 78.9911 250.961 79.0561C249.076 79.6663 242.123 73.3342 243.059 70.8133C243.969 74.4095 247.635 77.0304 250.961 78.2158C251.046 78.1958 251.927 77.0554 252.057 76.8704C252.167 76.7103 252.292 76.5253 252.392 76.3652C252.582 76.0701 252.917 75.1998 253.232 74.6846C253.317 74.5446 253.357 74.2545 253.567 74.0094C251.021 73.9744 243.974 71.6386 243.814 68.6276C240.883 70.0981 238.432 72.1488 235.911 74.1795C239.172 75.685 240.938 77.9407 242.974 80.7367L247.18 85.5283C247.665 86.5887 248.535 87.7241 248.355 88.9745C249.251 90.305 250.081 91.9705 251.046 93.1809C251.291 93.486 251.576 94.2213 251.802 94.3563C252.242 94.6264 255.048 95.1916 255.753 95.1966C255.928 95.7468 255.833 95.3767 256.088 95.5317L254.572 78.2108L254.577 78.2158Z" fill="#E4F3FB"/>
<path d="M248.351 88.9796C247.45 87.6392 246.57 86.2787 245.66 84.9433C244.749 83.6078 243.864 81.9672 242.969 80.7368L247.175 85.5285C247.66 86.5888 248.531 87.7242 248.351 88.9746V88.9796Z" fill="#C4DFF1"/>
<path d="M268.873 99.7433C268.798 99.7633 268.633 99.7533 268.538 99.7433C268.173 99.6983 265.782 98.6129 265.677 98.3979C265.437 97.8977 264.942 92.0857 264.837 90.9953C264.127 83.8379 265.912 71.0435 260.296 65.9368C259.715 65.4116 258.465 64.3212 257.605 64.5913C257.415 64.4763 257.155 64.3012 256.929 64.2562C256.754 65.4666 256.319 68.0575 255.079 68.6277C254.864 68.7278 254.909 68.7528 254.574 68.7978C253.528 69.8681 255.134 73.0692 253.563 73.5094C253.583 73.5194 253.878 73.8345 253.898 73.8445C254.874 74.2546 255.974 74.7898 256.759 75.5251C257.044 75.7952 256.089 76.3804 256.084 76.9556C256.084 77.5408 257.7 81.9573 257.935 83.1777C258.785 87.6042 259.235 92.1557 259.785 96.6323C259.695 96.8023 256.374 95.712 256.084 95.5369C255.829 95.3818 255.924 95.752 255.749 95.2018C255.039 95.2018 252.238 94.6316 251.798 94.3615C251.573 94.2214 251.288 93.4912 251.042 93.1861C250.077 91.9757 249.247 90.3101 248.352 88.9797C247.451 87.6392 246.571 86.2787 245.661 84.9433C244.78 83.6578 243.865 81.9673 242.97 80.7368C240.929 77.9359 239.168 75.6801 235.907 74.1796C233.576 76.0552 231.706 75.8302 232.041 79.5614C232.166 80.9569 232.886 83.0926 233.386 84.4381L243.815 97.9777C244.55 98.788 247.211 101.519 248.021 101.929C249.597 102.734 254.579 103.39 256.599 103.78C257.685 103.99 258.315 104.165 259.29 104.455C260.596 104.84 260.015 104.36 260.971 104.455C261.206 104.48 262.831 104.73 262.906 104.79C263.147 104.985 263.282 105.8 263.327 106.136C264.032 104.585 263.847 105.225 265.177 105.295C265.907 105.33 267.143 105.635 267.783 105.465C268.573 105.255 268.573 104.305 269.044 103.95L269.214 103.195C269.559 101.929 269.434 100.889 268.879 99.7483L268.873 99.7433Z" fill="#E4F3FB"/>
<path d="M253.903 73.8445C254.878 74.2547 255.978 74.7899 256.764 75.5251C256.519 75.295 253.553 73.8746 253.232 74.6848C253.317 74.5448 253.357 74.2547 253.568 74.0096C253.658 73.9096 253.593 73.7595 253.903 73.8395V73.8445Z" fill="#4C80B7"/>
<path d="M252.052 76.8704C252.002 76.9955 252.172 77.3456 252.222 77.3756C251.922 77.5857 251.162 78.9911 250.961 79.0562C249.076 79.6664 242.123 73.3342 243.059 70.8134C243.969 74.4096 247.635 77.0305 250.961 78.2159C251.046 78.1959 251.927 77.0555 252.057 76.8704H252.052Z" fill="#C3DBE7"/>
<path d="M254.578 78.2159C254.452 78.2259 252.327 77.4406 252.222 77.3756C252.172 77.3456 252.007 77.0005 252.052 76.8704C252.162 76.7154 252.287 76.5253 252.387 76.3652L255.248 77.6257C254.913 77.8407 255.033 78.1859 254.572 78.2159H254.578Z" fill="#4C80B7"/>
<path d="M260.965 104.455C260.01 104.36 260.59 104.84 259.284 104.455L258.444 105.295C258.134 104.935 256.899 104.32 256.593 103.78C254.573 103.39 249.591 102.734 248.016 101.929C246.085 104.77 247.135 107.991 246.5 111.177C244.014 110.642 242.018 109.272 240.443 107.311C240.278 108.296 239.643 109.197 239.433 110.002C240.238 109.632 240.978 111.062 241.703 111.517C243.209 112.463 246.43 113.483 248.181 113.538C250.781 113.613 255.608 112.228 257.854 110.847C258.904 110.197 259.584 109.222 260.63 108.661C260.66 107.276 261.18 105.886 260.965 104.455Z" fill="#E4F3FB"/>
<path d="M259.285 104.455L258.444 105.295C258.134 104.935 256.899 104.32 256.594 103.78C257.679 103.99 258.309 104.165 259.285 104.455Z" fill="#4C80B7"/>
<path d="M248.015 101.929C246.084 104.77 247.33 110.152 246.699 113.338C244.213 112.803 241.012 111.962 239.442 110.002C240.912 101.239 236.186 91.9607 233.385 84.4381L243.813 97.9777C244.549 98.788 247.209 101.519 248.02 101.929H248.015Z" fill="#C3DBE7"/>
<path d="M245.659 55.3432C244.093 54.3679 243.238 53.6926 242.128 52.1471C241.272 54.2578 240.822 53.9677 241.287 56.6886C241.562 58.3092 242.453 59.6847 243.308 61.0601C243.598 60.1498 243.428 58.3692 244.904 58.5393C246.859 58.7643 246.329 61.5403 246.499 62.5756C246.754 64.1362 246.899 64.3112 247.339 65.6017L247.509 65.4316C247.279 64.5363 247.694 57.9741 247.845 56.8537C248.175 56.1685 246.084 55.6033 245.659 55.3382V55.3432Z" fill="#624024"/>
<path d="M247.875 56.6886C247.865 56.7486 247.85 56.8036 247.845 56.8537C247.87 56.7986 247.88 56.7436 247.875 56.6886Z" fill="#5F2F17"/>
<path d="M257.774 51.7268C257.719 51.6718 257.924 51.2617 257.524 50.9716C257.209 50.7415 255.974 50.8665 255.503 50.6365C255.143 50.4614 254.738 49.8012 254.073 49.4611C252.202 47.1503 248.651 46.5551 246 47.6104C245.125 47.9606 244.16 48.5057 243.814 49.4611C243.529 49.6261 242.984 50.0363 242.804 50.3014C242.299 51.0416 242.439 51.3867 242.129 52.152C243.239 53.6975 244.095 54.3727 245.66 55.3481C246.05 55.5932 247.841 56.0833 247.876 56.6935C247.981 56.1533 248.261 55.2981 248.266 54.6728C248.996 54.9479 249.757 55.123 250.537 55.178C252.813 55.3381 254.818 55.3281 256.929 54.3377C258.975 53.3774 259.37 53.3474 257.769 51.7318L257.774 51.7268Z" fill="#553216"/>
<path d="M254.578 68.7977C254.417 68.8177 254.237 68.7977 254.072 68.7977C251.907 72.544 248.651 69.0078 247.515 66.2768C247.39 65.9717 247.405 65.7817 247.345 65.6016C246.905 64.3112 246.76 64.1361 246.505 62.5756C246.13 62.8156 245.364 63.0007 245.159 63.4158C245.114 63.5109 244.879 64.9664 244.824 65.2665C244.779 65.5166 244.854 65.8367 244.824 66.1068C244.634 67.9424 244.039 68.4376 245.414 69.808C247.865 72.2489 250.786 72.3989 253.572 73.5093C255.143 73.0741 253.537 69.868 254.583 68.7977H254.578Z" fill="#E9A37F"/>
<path d="M244.905 58.5392C243.43 58.3691 243.6 60.1497 243.31 61.0601C243.435 61.2601 243.59 61.6503 243.645 61.7353C244.105 62.4255 243.79 62.5856 244.82 63.0807C244.965 63.1508 245.24 62.9607 245.155 63.4159C245.36 63.0007 246.126 62.8157 246.501 62.5756C246.331 61.5402 246.861 58.7593 244.905 58.5392Z" fill="#E9A37F"/>
<path d="M256.929 54.3328C254.818 55.3231 252.812 55.3331 250.536 55.1731C249.756 55.118 249.001 54.943 248.266 54.6679C248.261 55.3631 247.916 56.3434 247.846 56.8536C247.695 57.974 247.28 64.5362 247.51 65.4315C247.971 67.2322 252.052 68.7777 254.068 68.7977C254.233 68.7977 254.413 68.8177 254.573 68.7977C254.908 68.7527 254.863 68.7277 255.078 68.6276C256.318 68.0574 256.859 65.4766 256.929 64.2561C257.029 62.5756 257.814 62.6756 257.789 61.5702C257.769 60.6249 257.014 59.0794 256.964 58.1341C256.899 56.8586 256.849 55.5832 256.929 54.3328Z" fill="#E9A37F"/>
<path d="M254.072 68.7979C251.906 72.5442 248.65 69.008 247.515 66.2771C247.39 65.9719 247.405 65.7819 247.345 65.6018L247.515 65.4318C247.975 67.2324 252.056 68.7779 254.072 68.7979Z" fill="#D08A67"/>
<path d="M263.276 108.421C262.891 108.651 261.86 108.917 261.605 109.192C260.855 109.992 262.17 111.392 262.376 112.213C262.501 112.713 262.836 115.399 262.376 115.554C261.895 115.209 262.14 113.788 261.99 113.113C261.96 112.983 261.275 111.187 261.09 111.572L261.345 116.649C261.02 116.694 260.92 116.514 260.895 116.519C260.6 116.614 260.465 117.479 259.93 117.289C260.135 114.298 260.43 112.033 260.48 109.017C261.485 108.731 261.61 108.411 262.245 108.166C262.586 108.031 262.861 107.991 263.081 107.651C263.406 107.846 263.211 108.171 263.276 108.421Z" fill="#D08A67"/>
<path d="M263.536 114.078C263.691 116.999 262.68 115.544 262.57 115.619C262.41 115.734 262.57 116.214 262.505 116.324C262.04 117.084 261.7 116.594 261.35 116.644L261.095 111.567C261.275 111.187 261.965 112.983 261.995 113.108C262.15 113.783 261.9 115.204 262.38 115.549C262.84 115.394 262.505 112.708 262.38 112.208C262.175 111.387 260.855 109.987 261.61 109.187C263.416 110.472 263.145 111.973 263.28 113.878C263.285 113.978 263.536 114.053 263.536 114.073V114.078Z" fill="#E9A37F"/>
<path d="M263.276 108.421C263.726 110.197 263.781 112.258 263.531 114.078C263.531 114.063 263.281 113.983 263.276 113.883C263.141 111.977 263.411 110.472 261.605 109.192C261.866 108.916 262.891 108.646 263.276 108.421Z" fill="#E9A37F"/>
<path d="M246.225 173.358C245.805 167.306 247.33 160.264 247.345 154.157L247.515 151.551C247.65 150.296 247.816 150.126 248.191 149.03C249.581 144.959 249.771 143.858 250.376 139.612C251.297 133.15 252.052 126.643 253.067 120.185C253.127 120.02 253.502 119.85 253.572 119.765C253.648 125.927 253.903 132.174 253.908 138.352C253.913 145.079 254.483 155.973 253.572 162.235C253.542 162.46 253.352 163.425 253.152 163.495C252.817 163.48 249.391 161.749 249.871 162.74C250.661 164.355 256.724 164.38 258.279 163.495C258.289 163.285 257.949 163.205 257.944 162.99C257.829 157.808 258.069 152.371 258.279 147.18C258.314 146.289 258.239 145.379 258.279 144.489C258.664 136.396 259.74 128.348 260.3 120.27C260.57 116.359 260.745 112.948 260.805 109.001C260.805 108.981 260.63 109.082 260.635 108.666C259.595 109.227 258.914 110.207 257.859 110.852C255.618 112.233 250.787 113.618 248.191 113.543C248.191 113.633 248.141 113.678 248.096 113.733C248.146 113.678 248.196 113.633 248.191 113.543C246.44 113.493 243.219 112.468 241.713 111.522C240.988 111.067 239.988 110.542 239.443 110.007C236.987 119.535 238.387 123.406 239.443 132.469C239.698 134.64 239.793 138.907 239.443 140.677C239.283 141.483 238.942 144.549 238.602 145.579C237.392 149.235 237.682 153.127 237.592 156.933C237.572 157.828 237.597 158.728 237.592 159.624C237.567 163.37 237.087 168.837 237.272 172.368C237.272 172.398 237.207 172.823 237.157 173.193C237.117 173.478 237.347 173.734 237.632 173.719L246.225 173.358ZM244.149 147.385C244.149 147.385 244.149 147.375 244.149 147.37C244.149 147.375 244.149 147.38 244.149 147.385Z" fill="#0D5374"/>
<path d="M253.127 163.995C250.071 163.69 249.47 162.545 249.47 162.545C249.435 162.275 249.335 161.779 249.345 161.084C249.385 158.288 249.591 155.597 249.54 152.806L249.47 148.27C249.47 148.06 249.475 147.84 249.5 147.63C249.781 144.939 249.475 144.073 250.006 140.397C250.926 133.935 252.061 126.637 253.077 120.18C253.137 120.015 253.512 119.845 253.582 119.76C253.657 125.922 253.912 132.169 253.917 138.346C253.922 145.074 254.492 155.967 253.582 162.229C253.552 162.455 253.332 163.93 253.132 164" fill="#003B5E"/>
<path d="M306.706 106.806L306.351 109.752L300.009 110.067L306.811 110.232L306.706 106.806Z" fill="#1A354D"/>
<path d="M305.904 63.5358C306.209 63.7009 306.91 63.916 308.13 62.4004C309.345 60.8799 309.22 59.5445 308.53 59.1493C307.84 58.7542 307.23 59.0693 306.925 59.6095C306.625 60.1497 305.904 63.5308 305.904 63.5308" fill="#E9A37F"/>
<path d="M272.879 98.4379C272.879 98.4379 269.233 99.0531 270.153 99.8283C270.413 100.048 271.538 99.9634 272.219 100.053C273.519 100.228 274.964 100.949 274.964 100.949L273.444 98.4829L272.879 98.4379Z" fill="#D08A67"/>
<path d="M309.896 68.6276C309.896 68.6276 303.244 77.8707 298.962 86.1185C295.391 92.9909 294.381 100.403 294.381 100.403C294.381 100.403 296.126 94.5564 305.98 82.9825L305.019 80.2515L307.4 80.1265L312.172 71.3935L309.896 68.6276Z" fill="#354E66"/>
<path d="M295.942 65.9368L297.287 67.8925L295.017 71.9488L293.971 79.0963L293.326 89.4848L293.681 99.1981L292.811 99.5733L291.15 91.7956L292.091 71.5137L295.832 65.6017L295.942 65.9368Z" fill="#28415A"/>
<path d="M292.14 75.3199L293.81 98.5678C293.81 98.5678 292.43 72.8491 300.033 67.7873C300.033 67.7873 300.503 66.3768 298.682 66.6719C296.861 66.967 293.355 72.8841 293.355 72.8841L294.371 74.2845L292.13 75.3249L292.14 75.3199Z" fill="#354E66"/>
<path d="M302.054 64.0862C302.054 64.0862 302.114 63.9511 301.884 63.9161L301.209 54.668C300.678 54.603 299.753 54.588 299.358 54.4979C298.197 54.2428 297.252 53.9377 296.332 53.1525C296.132 54.813 296.252 56.3386 295.907 57.524C295.562 58.7094 294.831 59.3996 294.751 60.64C294.726 61.0001 296.157 61.1502 296.162 61.3102C296.162 61.3553 296.002 62.5407 295.987 63.1659C295.972 63.7911 296.017 63.8461 296.012 63.8911C295.967 64.0862 296.002 64.4363 296.012 64.6714C296.037 65.2466 296.227 65.7218 296.252 66.1369C296.277 66.542 296.372 66.9522 296.597 67.2923C296.767 67.5524 297.007 67.7574 297.282 67.8925C297.527 68.0125 297.792 68.0826 298.062 68.1126C298.303 68.1376 298.543 68.1326 298.783 68.1026L298.793 68.1226C298.873 68.1026 298.948 68.0826 299.028 68.0625C299.093 68.0525 299.158 68.0475 299.223 68.0325C299.388 67.9925 299.543 67.9325 299.703 67.8725C299.973 67.7875 300.198 67.7024 300.368 67.6174C300.523 67.5274 300.613 67.4974 300.703 67.4473C301.389 67.0722 302.089 66.8972 302.889 66.437C302.229 65.5567 302.939 64.6364 302.049 64.0812L302.054 64.0862Z" fill="#E9A37F"/>
</g>
<ellipse opacity="0.6" cx="416" cy="260" rx="78" ry="26" fill="white"/>
<ellipse opacity="0.6" cx="147" cy="75.5" rx="46" ry="15.5" fill="white"/>
<ellipse opacity="0.6" cx="236" cy="10.5" rx="31" ry="10.5" fill="white"/>
<defs>
<clipPath id="clip0_1135_4355">
<rect width="88" height="138.507" fill="white" transform="translate(232 46)"/>
</clipPath>
</defs>
</svg>
