<svg width="1271" height="549" viewBox="0 0 1271 549" fill="none" xmlns="http://www.w3.org/2000/svg">
<mask id="mask0_584_2627" style="mask-type:alpha" maskUnits="userSpaceOnUse" x="0" y="0" width="1271" height="549">
<rect width="1271" height="549" fill="#D9D9D9"/>
</mask>
<g mask="url(#mask0_584_2627)">
<mask id="mask1_584_2627" style="mask-type:alpha" maskUnits="userSpaceOnUse" x="0" y="0" width="1271" height="549">
<rect width="1271" height="549" fill="white"/>
</mask>
<g mask="url(#mask1_584_2627)">
<line opacity="0.4" x1="-20.145" y1="243.202" x2="533.855" y2="601.202" stroke="url(#paint0_linear_584_2627)" stroke-width="40"/>
<line opacity="0.4" x1="-1.26658" y1="528.305" x2="1202.73" y2="-18.2116" stroke="url(#paint1_linear_584_2627)" stroke-width="40"/>
</g>
<path d="M204.127 450.061C202.422 449.683 197.05 449.355 195.173 447.375L187.665 449.837C187.665 449.837 187.148 452.214 187.665 453.488C187.665 453.488 189.576 454.435 191.212 454.435C192.848 454.435 194.036 454.246 195.879 454.711C197.721 455.176 200.649 455.382 202.939 454.711C205.229 454.022 206.693 452.317 206.727 451.508C206.762 450.681 205.849 450.457 204.144 450.079" fill="#0C1531"/>
<path d="M206.709 451.508C206.657 452.334 205.193 454.022 202.92 454.694C200.63 455.382 197.703 455.159 195.86 454.694C194.018 454.229 192.829 454.418 191.193 454.418C189.557 454.418 187.646 453.471 187.646 453.471C187.646 453.436 187.612 453.402 187.594 453.35C187.594 453.436 187.612 453.523 187.629 453.609L187.577 454.745C187.577 454.745 187.922 455.004 189.058 455.331C190.212 455.658 193.587 455.434 193.587 455.434C193.587 455.434 193.587 455.124 193.587 454.814C194.293 454.814 195.034 454.9 195.912 455.124C197.754 455.589 200.682 455.813 202.972 455.124C205.262 454.435 206.726 452.73 206.761 451.921C206.761 451.766 206.743 451.628 206.674 451.508" fill="#050408"/>
<path d="M178.055 443.105C178.055 443.105 177.573 446.084 178.055 446.755C178.537 447.427 180.466 448.133 181.74 447.392C183.015 446.635 183.118 446.066 184.461 444.844C185.735 443.69 187.681 442.605 188.215 440.832C188.611 439.471 188.284 437.87 187.612 437.56C186.941 437.25 184.289 438.042 182.946 439.23C181.602 440.418 178.072 443.105 178.072 443.105" fill="#0C1531"/>
<path d="M188.198 440.832C187.682 442.588 185.736 443.69 184.444 444.844C183.101 446.067 182.998 446.635 181.723 447.393C180.449 448.151 178.52 447.427 178.038 446.756C177.969 446.652 177.918 446.497 177.883 446.308C177.883 446.549 177.883 446.756 177.952 446.928L178.073 447.703C178.073 447.703 178.469 448.168 179.192 448.443C179.898 448.719 180.983 448.753 181.706 448.271C182.447 447.772 183.842 446.274 183.842 446.274C183.842 446.274 183.842 446.05 183.842 445.791C184.014 445.619 184.203 445.43 184.444 445.223C185.719 444.069 187.664 442.984 188.198 441.228C188.336 440.763 188.388 440.281 188.37 439.816C188.37 440.16 188.302 440.505 188.198 440.849" fill="#050408"/>
<path d="M191.264 340.214C192.71 340.972 193.795 343.073 194.174 344.76C194.535 346.431 194.174 346.861 194.174 346.861C194.174 346.861 195.345 347.877 195.207 348.204C195.069 348.532 194.036 349.306 194.036 349.306C194.036 349.306 194.243 350.391 194.139 350.891C194.036 351.39 193.64 352.492 193.726 353.043C193.812 353.594 193.709 354.576 193.141 354.869C192.572 355.144 190.075 354.955 189.834 355.712C189.593 356.47 189.593 360.327 189.593 360.327C189.593 360.327 185.787 362.859 182.395 361.188C179.003 359.518 180.294 355.936 180.294 355.936C180.294 355.936 181.327 354.059 180.862 352.768C180.415 351.476 178.417 349.169 178.796 345.914C179.175 342.659 180.88 340.886 183.962 339.818C187.045 338.75 189.094 339.043 191.264 340.18" fill="#E9A480"/>
<path d="M189.834 355.711C189.954 355.35 190.626 355.195 191.332 355.126C190.195 354.85 188.783 354.351 188.697 353.542C188.542 352.181 188.146 349.908 188.146 349.908L185.718 351.028C185.718 351.028 185.546 358.381 184.375 361.756C187.113 362.014 189.627 360.344 189.627 360.344C189.627 360.344 189.627 356.469 189.868 355.729" fill="#D08A67"/>
<path d="M189.248 351.665C189.179 350.804 188.904 350.304 188.077 350.614C187.268 350.924 186.82 352.371 187.56 353.335C188.284 354.282 189.489 355.126 189.248 351.665Z" fill="#E9A480"/>
<path d="M188.232 338.405C184.22 338.56 179.415 340.093 178.572 344.708C177.728 349.323 179.725 350.563 179.725 350.563C180.19 351.493 180.673 352.25 180.862 352.802C180.965 353.094 180.982 353.404 180.965 353.714C181.757 354.041 182.756 354.369 183.548 354.334C185.081 354.248 185.133 354.61 185.942 353.112C186.751 351.613 187.595 350.064 188.783 350.219C189.971 350.373 190.764 350.666 190.919 350.115C191.074 349.564 191.091 349.461 191.039 348.875C190.987 348.307 191.883 347.618 192.158 346.723C192.417 345.81 191.315 344.897 192.158 344.036C192.709 343.485 193.192 343.175 193.433 342.728C193.433 342.728 194.001 342.332 193.967 341.626C193.949 340.92 192.227 338.25 188.232 338.405Z" fill="#553316"/>
<path d="M188.801 350.218C189.989 350.373 190.781 350.666 190.936 350.115C191.091 349.564 191.109 349.461 191.057 348.875C191.005 348.307 191.901 347.618 192.176 346.723C192.245 346.464 192.211 346.206 192.142 345.965C191.091 347.687 184.892 350.649 182.809 350.89C181.758 351.01 180.604 350.804 179.726 350.563C180.191 351.493 180.673 352.25 180.863 352.801C180.966 353.094 180.983 353.404 180.966 353.714C181.758 354.041 182.757 354.368 183.549 354.334C185.082 354.248 185.133 354.609 185.943 353.111C186.752 351.613 187.596 350.063 188.784 350.218" fill="#624024"/>
<path d="M178.211 358.14L176.971 355.798C176.971 355.798 174.13 356.332 173.475 358.364C172.821 360.413 170.978 364.219 170.513 366.251C170.048 368.266 169.256 374.689 170.6 375.412C171.943 376.135 173.079 376.204 174.336 375.705C175.593 375.206 177.97 373.26 177.97 373.26L178.211 358.14Z" fill="#BAC1C5"/>
<path d="M174.302 363.634C174.302 363.634 174.233 365.993 173.458 368.318C172.683 370.642 172.115 372.02 172.322 373.673C172.442 374.603 171.805 375.412 171.943 375.929C172.735 376.101 173.51 376.032 174.319 375.705C175.594 375.206 177.953 373.26 177.953 373.26L178.073 365.993L174.302 363.634Z" fill="#A1A8AC"/>
<path d="M177.074 443.639C177.074 443.639 176.678 445.809 179.675 446.239C181.362 446.481 183.893 444.07 185.03 441.659C185.908 439.782 185.581 437.801 185.581 437.801C185.581 437.801 185.34 427.521 186.201 423.819C187.045 420.099 189.611 406.03 189.611 406.03L185.598 387.484L176.661 396.834C176.661 396.834 177.953 405.961 177.849 411.764C177.746 417.568 176.007 423.56 176.368 429.674C176.73 435.787 177.091 443.622 177.091 443.622" fill="#0F1F3C"/>
<path d="M199.461 399.4C199.461 399.4 201.183 406.804 200.133 414.054C199.082 421.304 197.291 436.389 197.067 440.022C196.844 443.656 199.564 449.287 199.564 449.287C199.564 449.287 192.745 452.696 187.424 452.386C187.424 452.386 186.133 437.629 186.684 433.169C187.235 428.709 188.939 423.198 188.371 420.047C187.803 416.878 186.184 405.169 186.184 405.169C186.184 405.169 184.066 401.966 183.55 398.986C183.033 396.007 199.461 399.383 199.461 399.383" fill="#0D2A4B"/>
<path d="M198.979 392.029C198.1 387.69 197.033 385.881 196.964 383.522C196.895 381.163 198.118 370.383 194.381 366.319C190.644 362.255 187.183 361.411 187.183 361.411L180.277 355.953C180.277 355.953 177.798 355.712 176.988 355.832C176.179 355.953 174.922 357.726 174.457 359.466C173.975 361.205 173.475 365.424 174.664 368.765C175.869 372.122 179.038 379.286 178.228 383.367C177.419 387.448 175.37 396.902 175.37 396.902C175.37 396.902 176.506 397.815 180.639 399.658L181.862 391.633L181.483 400.019C182.103 400.295 182.792 400.57 183.532 400.88C191.694 404.221 200.46 400.398 200.46 400.398C200.46 400.398 199.84 396.369 198.979 392.012" fill="#BAC1C5"/>
<path d="M180.708 354.627C180.708 354.627 182.481 356.556 184.513 357.555C186.304 358.433 189.852 359.363 189.852 359.363L190.678 362.273C190.678 362.273 184.1 361.223 181.241 359.621C178.383 358.003 179.761 355.712 179.761 355.712L180.725 354.645L180.708 354.627Z" fill="#EDF4F9"/>
<path d="M181.775 357.314C179.984 355.833 180.191 354.834 180.191 354.834L179.02 355.833C179.02 355.833 177.504 358.123 180.191 359.776C182.86 361.447 186.889 362.273 188.99 363.031C191.091 363.789 193.295 365.631 193.295 365.631L194.415 366.303C191.883 360.964 183.583 358.777 181.792 357.296" fill="#D5DBDF"/>
<path d="M211.997 378.925C212.307 378.202 212.444 377.186 212.358 376.703C212.272 376.221 211.411 375.05 211.945 374.809C212.479 374.568 213.254 375.739 213.254 375.739L213.805 374.637C213.805 374.637 213.65 374.327 213.856 373.948C214.063 373.569 214.562 373.535 214.735 373.638C214.924 373.742 215.682 373.776 215.682 373.776C215.389 373.535 214.735 372.846 214.976 372.278C215.217 371.71 216.629 372.622 217.697 373.397C218.764 374.172 218.747 374.999 218.919 375.894C219.091 376.79 219.763 377.013 218.575 379.011C217.387 381.009 215.957 382.438 214.562 384.039C214.321 384.315 213.925 384.745 213.46 385.279L210.895 382.111C211.79 381.577 212.41 381.215 212.41 381.215C212.41 381.215 211.687 379.665 211.997 378.942" fill="#E9A480"/>
<path d="M214.596 379.683C214.39 380.509 212.461 381.146 212.461 381.146H212.392C212.254 380.836 211.738 379.579 212.013 378.942C212.323 378.219 212.478 377.203 212.375 376.721C212.289 376.239 211.428 375.068 211.962 374.827C212.495 374.586 213.27 375.756 213.27 375.756L213.821 374.654C213.821 374.654 213.666 374.362 213.873 373.966C214.08 373.587 214.579 373.552 214.751 373.656C214.941 373.759 215.698 373.793 215.698 373.793C215.406 373.552 214.751 372.863 214.992 372.295C215.164 371.882 215.939 372.244 216.766 372.777C217.317 373.707 218.057 374.568 218.057 374.568L217.231 376.256L215.922 377.082C215.922 377.082 214.803 378.891 214.596 379.717" fill="#D08A67"/>
<path d="M198.962 367.852L213.272 377.22L219.85 366.164L205.54 356.796L198.962 367.852Z" fill="#1D2E60"/>
<path d="M204.024 361.601L207.124 363.616L207.193 363.512L204.111 361.48L204.024 361.601Z" fill="#4F88C3"/>
<path d="M203.868 361.877L206.951 363.892L207.019 363.788L203.937 361.756L203.868 361.877Z" fill="#4F88C3"/>
<path d="M203.713 362.152L206.796 364.167L206.865 364.063L203.782 362.031L203.713 362.152Z" fill="#4F88C3"/>
<path d="M203.541 362.428L206.623 364.46L206.692 364.339L203.61 362.307L203.541 362.428Z" fill="#4F88C3"/>
<path d="M204.763 363.616L206.468 364.735L206.537 364.615L204.832 363.496L204.763 363.616Z" fill="#4F88C3"/>
<path d="M206.142 358.484L209.224 360.499L209.293 360.379L206.21 358.364L206.142 358.484Z" fill="#4F88C3"/>
<path d="M205.987 358.76L209.069 360.775L209.138 360.672L206.056 358.64L205.987 358.76Z" fill="#4F88C3"/>
<path d="M205.814 359.035L208.897 361.05L208.966 360.947L205.883 358.915L205.814 359.035Z" fill="#4F88C3"/>
<path d="M205.66 359.311L208.742 361.343L208.811 361.222L205.729 359.19L205.66 359.311Z" fill="#4F88C3"/>
<path d="M206.882 360.499L208.569 361.618L208.638 361.498L206.951 360.378L206.882 360.499Z" fill="#4F88C3"/>
<path d="M200.235 366.475L203.318 368.49L203.387 368.369L200.304 366.354L200.235 366.475Z" fill="#4F88C3"/>
<path d="M200.063 366.75L203.145 368.765L203.214 368.644L200.132 366.629L200.063 366.75Z" fill="#4F88C3"/>
<path d="M199.908 367.026L202.991 369.041L203.06 368.92L199.977 366.905L199.908 367.026Z" fill="#4F88C3"/>
<path d="M199.736 367.302L202.818 369.316L202.887 369.196L199.805 367.181L199.736 367.302Z" fill="#4F88C3"/>
<path d="M200.958 368.49L202.663 369.592L202.732 369.471L201.027 368.369L200.958 368.49Z" fill="#4F88C3"/>
<path d="M201.596 364.477L204.679 366.509L204.765 366.389L201.665 364.374L201.596 364.477Z" fill="#4F88C3"/>
<path d="M201.441 364.77L204.524 366.785L204.593 366.664L201.51 364.649L201.441 364.77Z" fill="#4F88C3"/>
<path d="M201.269 365.046L204.351 367.061L204.42 366.94L201.338 364.925L201.269 365.046Z" fill="#4F88C3"/>
<path d="M201.097 365.322L204.196 367.336L204.265 367.216L201.166 365.201L201.097 365.322Z" fill="#4F88C3"/>
<path d="M202.336 366.492L204.024 367.611L204.093 367.49L202.388 366.388L202.336 366.492Z" fill="#4F88C3"/>
<path d="M217.817 366.027L218.644 366.578L214.098 374.241L213.254 373.69L217.817 366.027Z" fill="#89CFDA"/>
<path d="M215.183 367.973L216.009 368.524L213.03 373.553L212.187 373.001L215.183 367.973Z" fill="#89CFDA"/>
<path d="M213.408 368.473L214.235 369.006L211.961 372.847L211.118 372.313L213.408 368.473Z" fill="#89CFDA"/>
<path d="M212.978 366.698L213.805 367.249L210.894 372.157L210.068 371.606L212.978 366.698Z" fill="#89CFDA"/>
<path d="M212.841 364.442L213.667 364.976L209.827 371.451L209 370.917L212.841 364.442Z" fill="#89CFDA"/>
<path d="M209.018 368.386L209.845 368.92L208.76 370.762L207.933 370.211L209.018 368.386Z" fill="#89CFDA"/>
<path d="M208.984 365.958L209.81 366.492L207.692 370.056L206.866 369.523L208.984 365.958Z" fill="#89CFDA"/>
<path d="M207.433 362.169C207.347 362.324 207.382 362.497 207.519 362.583C207.657 362.669 207.829 362.617 207.915 362.479C208.001 362.324 207.967 362.135 207.829 362.066C207.691 361.98 207.519 362.032 207.433 362.169Z" fill="#4F88C3"/>
<path d="M206.641 361.636C206.555 361.791 206.589 361.963 206.71 362.049C206.848 362.135 207.02 362.084 207.106 361.929C207.192 361.791 207.158 361.601 207.02 361.515C206.882 361.429 206.71 361.481 206.624 361.619" fill="#4F88C3"/>
<path d="M205.832 361.119C205.746 361.274 205.781 361.446 205.901 361.532C206.039 361.618 206.211 361.567 206.297 361.429C206.384 361.291 206.349 361.102 206.211 361.016C206.074 360.93 205.901 360.981 205.815 361.119" fill="#4F88C3"/>
<path d="M209.793 370.315C209.5 370.504 208.897 370.556 208.363 370.16C207.83 369.764 206.986 368.765 206.435 368.834C205.901 368.903 205.281 369.023 205.281 369.023C205.281 369.023 206.176 369.971 205.953 370.418C205.712 370.883 205.419 371.744 205.419 371.744C205.419 371.744 206.986 372.502 206.796 373.294C206.607 374.086 204.937 373.621 204.351 373.294C204.351 373.294 203.714 374.448 203.301 374.327C202.905 374.224 203.111 372.554 203.111 372.554H202.715C202.715 372.554 201.286 373.621 200.666 373.759C200.029 373.897 200.012 373.518 200.167 373.242C200.322 372.967 200.976 372.106 200.976 372.106L198.049 371.469L194.587 373.638L192.417 370.246C192.417 370.246 196.998 368.283 197.928 368.248C198.875 368.214 202.388 367.112 203.128 367.095C203.869 367.06 205.918 367.215 206.641 367.319C207.365 367.439 210.344 369.953 209.793 370.315Z" fill="#E9A480"/>
<path d="M205.298 369.023C205.298 369.023 206.193 369.97 205.969 370.418C205.728 370.883 205.436 371.744 205.436 371.744C203.662 371.279 202.629 369.97 202.818 369.557C203.008 369.143 205.298 369.023 205.298 369.023Z" fill="#D08A67"/>
<path d="M203.008 372.415C204.042 372.674 204.352 373.311 204.352 373.311C204.352 373.311 203.714 374.465 203.301 374.344C202.888 374.241 203.112 372.57 203.112 372.57H202.716C202.716 372.57 201.286 373.621 200.666 373.776C200.047 373.914 200.012 373.535 200.167 373.259C200.322 372.984 200.976 372.123 200.976 372.123H200.925C201.286 372.054 201.975 372.174 203.008 372.415Z" fill="#D08A67"/>
<path d="M197.222 368.007C197.222 368.007 198.497 369.316 198.221 372.708L193.71 375.756L190.61 370.263L197.24 368.007H197.222Z" fill="#153659"/>
<path d="M215.923 380.681C215.923 380.681 214.545 379.441 215.045 377.909C215.544 376.376 215.957 375.705 215.802 375.188C215.647 374.671 215.096 372.226 216.129 372.071C217.163 371.916 217.214 373.414 217.283 374.138C217.352 374.861 217.61 375.722 217.972 376.29C218.334 376.858 218.678 377.823 218.093 379.235C217.507 380.647 216.732 381.232 215.923 380.664" fill="#E9A480"/>
<path d="M198.979 392.029C198.1 387.69 197.033 385.882 196.964 383.522C196.912 381.938 197.463 376.531 196.671 371.933L189.576 370.383C189.576 370.383 188.061 371.623 188.44 374.241C188.767 376.514 192.4 393.889 192.728 402.172C197.153 401.828 200.442 400.398 200.442 400.398C200.442 400.398 199.822 396.369 198.961 392.012" fill="#A1A8AC"/>
<path d="M200.873 383.419C203.404 382.403 211.79 379.527 211.79 379.527C213.323 379.786 214.632 380.939 214.752 382.145C214.907 383.712 213.65 385.847 213.65 385.847C213.65 385.847 206.986 388 203.921 389.825C200.856 391.65 199.426 391.065 198.273 390.393C196.619 389.395 197.842 384.642 200.873 383.419Z" fill="#BAC1C5"/>
<path d="M200.873 383.419C203.404 382.403 211.79 379.527 211.79 379.527C212.359 379.631 212.91 379.855 213.375 380.147L213.203 380.561C213.203 380.561 202.629 384.676 198.169 390.307C196.688 389.171 197.928 384.607 200.873 383.419Z" fill="#D5DBDF"/>
<path d="M191.005 364.115C191.005 364.115 194.88 365.492 196.24 368.248C197.618 371.003 198.169 375.756 198.668 376.961C199.168 378.166 201.802 383.488 202.577 384.607C203.335 385.726 203.869 387.104 202.991 388.464C202.112 389.825 200.924 391.753 198.531 391.064C196.12 390.358 192.297 383.591 191.005 380.715C189.714 377.839 188.233 373.672 188.233 370.986C188.233 368.282 190.007 364.752 191.005 364.132" fill="#BAC1C5"/>
<g clip-path="url(#clip0_584_2627)">
<path d="M269.795 308.613C269.795 308.613 268.541 309.204 268.356 310.145C268.172 311.067 267.766 313.263 268.928 314.351C270.091 315.458 277.065 322.359 278.707 323.484C280.367 324.628 285.257 326.731 285.257 326.731C285.257 326.731 285.183 325.846 285.128 324.462C285.072 323.078 284.279 320.145 283.689 319.019C283.117 317.912 280.607 312.045 280.607 312.045L269.795 308.613Z" fill="#5E2214"/>
<path d="M278.965 316.75C278.965 316.75 278.651 319.057 279.168 319.887C279.684 320.717 271.234 334.906 269.241 334.057C267.267 333.208 270.791 320.164 270.791 320.164L278.946 316.75H278.965Z" fill="#D08A67"/>
<path d="M267.101 387.857C267.452 390.901 268.503 398.669 268.264 400.864C268.024 403.042 266.843 407.673 266.843 407.673C266.843 407.673 265.588 409.093 266.234 410.108C266.88 411.104 268.245 410.828 269.241 409.757C270.238 408.687 272.655 404.702 273.208 403.318C273.762 401.934 273.54 400.717 273.54 400.717C272.968 400.569 272.858 399.241 272.968 398.134C273.079 397.027 274.371 390.089 274.776 387.894C275.182 385.698 273.448 381.602 273.19 380.532C272.95 379.462 273.467 378.355 273.817 376.141C274.168 373.927 274.647 367.193 274.647 367.193L263.319 365.938C263.614 369.259 265.256 378.835 265.514 380.495C265.773 382.156 266.769 384.813 267.12 387.857" fill="#D08A67"/>
<path d="M266.825 407.674C266.825 407.674 265.57 409.094 266.216 410.109C266.862 411.105 268.227 410.829 269.223 409.758C270.22 408.688 272.637 404.703 273.19 403.319C273.744 401.935 273.522 400.718 273.522 400.718C273.522 400.718 275.423 401.013 275.773 402.526C276.124 404.039 274.629 405.939 274.629 405.939C274.629 405.939 274.094 407.747 274.223 409.943L273.485 410.017V406.843C273.485 406.843 272.12 407.36 271.216 409.242C270.312 411.142 269.482 413.338 267.6 413.578C265.736 413.817 260.884 413.559 260.644 412.508C260.422 411.456 266.788 407.692 266.788 407.692" fill="#0E357D"/>
<path d="M266.824 403.485C266.824 403.485 273.023 405.699 276.584 402.563C276.584 402.563 275.2 392.526 275.163 389.389C275.126 386.234 274.647 379.131 274.61 377.23C274.573 375.33 274.831 360.588 274.831 360.588L273.669 351.492L264.518 350.127C264.518 350.127 263.023 353.78 263.023 360.348C263.005 369.961 266.03 383.411 266.621 385.994C267.23 388.577 267.082 397.544 266.824 403.504" fill="#2360AD"/>
<path d="M274.297 356.51C270.976 356.141 268.578 356.252 268.688 357.359C269.039 360.828 271.88 363.964 271.991 365.071C272.102 366.178 272.341 376.012 272.747 382.138C273.024 386.455 273.541 398.171 273.781 403.964C274.777 403.725 275.736 403.282 276.567 402.544C276.567 402.544 275.183 392.507 275.146 389.37C275.109 386.215 274.629 379.112 274.592 377.212C274.555 375.311 274.814 360.569 274.814 360.569L274.297 356.492V356.51Z" fill="#084999"/>
<path d="M282.6 411.861C282.434 414.703 281.271 418.208 281.271 418.208C281.271 418.208 281.198 419.279 282.803 419.26C284.408 419.242 286.05 418.799 286.53 417.138C286.991 415.496 287.415 411.511 287.378 410.293C287.342 409.094 286.807 408.005 286.807 408.005C286.567 407.766 286.677 406.917 286.77 405.939C286.862 404.961 287.969 398.264 287.932 395.035C287.895 391.991 285.441 387.489 284.814 386.622C284.187 385.754 283.836 383.005 284.057 380.348C284.279 377.673 284.814 367.193 284.814 367.193L274.187 367.655C274.187 367.655 275.976 379.241 276.585 382.599C277.212 385.957 278.135 387.747 278.965 389.186C279.795 390.625 280.773 394.26 281.142 396.954C281.511 399.647 282.766 409.02 282.618 411.861" fill="#D08A67"/>
<path d="M281.253 418.209C281.253 418.209 281.179 419.279 282.784 419.261C284.389 419.243 286.031 418.8 286.511 417.139C286.972 415.497 287.397 411.512 287.36 410.294C287.323 409.095 286.788 408.006 286.788 408.006C286.788 408.006 288.633 408.781 288.633 410.368C288.633 411.955 287.876 414.04 287.563 415.663C287.249 417.287 287.544 420.737 286.566 421.936C285.589 423.136 281.308 424.279 280.515 424.003C279.721 423.744 279.611 420.553 281.271 418.191" fill="#0E357D"/>
<path d="M280.552 410.274C280.552 410.274 285.571 414.887 290.091 409.057C290.091 409.057 288.412 395.994 287.803 393.632C287.194 391.252 284.648 384.315 284.851 381.123C285.073 377.931 284.851 362.488 284.556 357.599C284.316 353.798 278.892 345.366 281.014 348.097L270.423 349.296L267.969 349.997C267.969 349.997 267.49 355.662 268.689 358.614C269.888 361.566 273.375 364.333 273.375 364.333C273.375 364.333 275.46 379.905 275.829 382.414C276.198 384.942 281.014 402.47 280.552 410.274Z" fill="#2360AD"/>
<path d="M235.81 334.333C235.81 334.075 236.179 333.798 237.674 333.54C239.187 333.281 240.884 333.281 241.585 333.411C242.286 333.558 242.785 333.687 243.227 333.743C243.67 333.798 244.796 334.001 245.22 334.333C245.663 334.665 245.977 335.182 245.977 335.182C245.977 335.182 250.644 335.44 252.102 335.385C253.541 335.329 257.231 335.883 257.231 335.883C257.231 335.883 259.095 338.134 258.91 339.462C258.726 340.791 258.467 341.104 257.194 341.067C255.94 341.012 251.733 340.2 249.371 339.444C247.01 338.687 245.257 338.226 244.519 338.263C243.763 338.281 241.29 338.392 240.866 338.447C240.46 338.503 239.999 339.001 239.962 339.056C239.925 339.112 239.888 339.278 239.98 339.278C240.072 339.278 240.81 340.145 240.386 340.348C239.98 340.569 239.205 339.794 239.205 339.794C239.205 339.794 238.578 339.481 238.578 339.038C238.578 338.595 238.523 337.968 238.707 337.414C238.892 336.861 239.131 336.399 239.131 336.399L238.689 336.639C238.689 336.639 238.135 338.152 237.692 338.06C237.25 337.968 237.323 337.377 237.545 336.695C237.748 335.994 238.172 335.477 238.486 335.256C238.818 335.016 239.722 334.573 239.722 334.573C239.722 334.573 238.264 334.554 237.858 334.628C237.453 334.702 235.792 334.887 235.792 334.37" fill="#E9A480"/>
<path d="M258.91 339.445C258.91 339.353 258.91 339.242 258.91 339.15C257.619 338.965 255.276 338.652 252.914 338.467C249.408 338.209 247.084 336.936 246.014 336.253C245.589 335.976 245.22 335.201 244.814 335.423C244.408 335.644 244.095 336.253 243.689 336.493C243.283 336.733 242.139 336.788 242.065 336.345C241.991 335.902 242.324 335.718 242.324 335.718C242.324 335.718 242.656 335.589 242.526 335.312C242.397 335.054 242.121 334.906 242.121 334.851C242.121 334.795 242.693 333.984 242.619 333.947C242.545 333.91 241.678 333.818 241.401 334.039C241.106 334.26 240.718 334.869 240.497 334.98C240.276 335.109 239.021 335.663 238.615 336.05C238.228 336.438 237.914 337.397 237.711 338.006C238.154 338.061 238.689 336.585 238.689 336.585L239.132 336.345C239.132 336.345 239.132 336.382 239.095 336.419C239.095 336.419 239.519 336.253 239.685 336.327C239.87 336.401 239.685 337.12 239.611 337.637C239.538 338.08 239.464 339.242 238.947 339.574C239.076 339.685 239.187 339.74 239.187 339.74C239.187 339.74 239.279 339.832 239.427 339.962C239.538 339.832 239.759 339.556 239.759 339.445C239.759 339.371 239.87 339.316 239.98 339.242C239.98 339.242 239.962 339.224 239.943 339.242C239.851 339.242 239.888 339.076 239.925 339.021C239.962 338.965 240.423 338.467 240.829 338.412C241.235 338.356 243.726 338.246 244.482 338.227C245.239 338.209 246.973 338.67 249.335 339.408C251.696 340.164 255.903 340.976 257.158 341.032C258.412 341.087 258.67 340.755 258.873 339.426" fill="#D08A67"/>
<path d="M246.05 335.034C246.05 335.034 246.53 337.138 245.626 338.558C245.626 338.558 251.991 340.385 254.464 340.865C256.936 341.344 259.058 341.363 259.814 340.865C260.571 340.366 263.652 335.772 263.652 335.772L267.988 327.045L268.929 321.252L268.025 319.868C268.025 319.868 265.903 321.289 264.722 323.706C263.541 326.123 257.287 335.44 257.287 335.44C257.287 335.44 253.264 335.127 251.715 335.127C250.165 335.127 246.05 335.034 246.05 335.034Z" fill="#E5F4FC"/>
<path d="M267.988 327.064L268.08 326.529L267.637 325.477C267.637 325.477 266.53 323.595 266.346 324.204C266.161 324.813 266.05 327.009 265.22 328.319C264.39 329.629 262.582 331.824 261.493 333.651C260.405 335.477 260.146 337.23 259.445 337.193C258.744 337.156 258.025 335.754 258.135 336.566C258.246 337.359 258.394 339.038 256.216 338.798C254.501 338.614 248.56 337.286 246.161 336.75C246.124 337.359 245.977 338.024 245.626 338.595C245.626 338.595 251.991 340.422 254.464 340.902C256.936 341.381 259.039 341.4 259.814 340.902C260.571 340.404 263.652 335.809 263.652 335.809L267.988 327.083V327.064Z" fill="#C4DBE7"/>
<path d="M271.383 319.407C271.383 319.407 269.649 319.223 268.025 319.887C268.025 319.887 267.306 321.824 267.029 323.042C266.752 324.26 266.586 326.64 265.903 328.024C265.221 329.407 262.324 332.009 262.508 334.573C262.693 337.156 264.962 338.337 264.962 338.337C264.962 338.337 266.512 343.891 266.014 345.773C265.516 347.655 263.302 352.765 263.302 352.765C263.302 352.765 264.409 356.695 270.848 357.913C277.287 359.131 284.132 355.588 284.261 355.404C284.261 355.404 283.597 351.769 282.97 350.662C282.342 349.574 280.461 347.839 280.331 346.474C280.202 345.127 282.158 336.769 283.044 334.407C283.929 332.046 285.387 325.57 285.387 325.57C285.387 325.57 282.564 322.193 280.368 320.551C280.368 320.551 276.069 325.865 274.335 325.865C274.335 325.865 271.18 330.348 269.815 332.507L271.568 324.149C271.568 324.149 270.977 320.293 271.383 319.407Z" fill="#E5F4FC"/>
<path d="M284.574 331.271L282.416 331.585C282.416 331.585 280.238 332.471 279.63 334.519C279.094 336.308 280.792 342.378 273.356 342.083C273.356 342.083 277.176 344.297 277.194 345.515C277.213 346.733 273.67 347.674 273.67 347.674L271.013 350.238L264.611 348.947C264.408 349.537 264.205 350.128 264.039 350.681C265.109 351.271 267.139 352.268 268.984 352.489C271.641 352.803 275.46 351.973 277.213 352.803C278.227 353.283 279.039 355.552 279.537 357.379C282.618 356.604 284.205 355.497 284.279 355.404C284.279 355.404 283.615 351.77 282.988 350.663C282.36 349.574 280.478 347.84 280.349 346.474C280.22 345.109 282.176 336.751 283.061 334.408C283.357 333.633 284.371 332.581 284.611 331.253" fill="#C4DBE7"/>
<path d="M272.341 320.034C272.341 320.034 271.493 322.488 271.567 324.149C271.567 324.149 267.286 326.418 267.268 326.197C267.249 325.975 271.05 319.887 271.05 319.887L272.341 320.034Z" fill="white"/>
<path d="M279.112 319.038C279.112 319.038 277.673 323.318 274.315 325.864C274.315 325.864 276.898 329.647 277.23 329.647C277.562 329.647 280.662 322.377 280.773 320.569L279.112 319.038Z" fill="white"/>
<path d="M268.688 313.816C268.688 313.816 268.264 314.905 268.393 315.864C268.541 316.842 269.316 318.65 269.445 319.462C269.574 320.274 269.906 321.326 270.718 321.676C271.53 322.008 274.777 321.289 276.88 319.591C278.984 317.894 280.755 314.093 281.198 312.543C281.64 310.994 281.345 308.927 280.607 307.396C279.869 305.864 277.286 304.167 274.519 304.942C271.77 305.717 270.81 306.842 269.777 308.245C268.762 309.665 268.467 312.101 268.43 312.636C268.393 313.171 268.67 313.798 268.67 313.798" fill="#E9A480"/>
<path d="M268.394 315.883C268.542 316.861 269.316 318.669 269.446 319.481C269.575 320.293 269.907 321.345 270.719 321.695C270.829 321.75 271.014 321.769 271.217 321.769C270.147 320.791 269.833 318.263 269.833 318.263C269.833 318.263 269.316 318.097 269.095 317.931C268.874 317.765 269.87 315.459 269.962 314.684C270.036 314.075 268.929 313.319 268.449 313.023C268.505 313.448 268.671 313.835 268.671 313.835C268.671 313.835 268.246 314.924 268.376 315.883" fill="#D08A67"/>
<path d="M285.146 324.482C285.146 320.275 283.652 318.522 282.951 317.157C281.401 314.094 282.194 311.732 281.807 309.297C281.419 306.862 278.633 303.282 274.039 304.463C269.427 305.644 268.375 310.127 268.375 310.127C269.482 310.09 270.515 311.585 270.515 311.585C270.515 311.585 272.157 311.326 273.357 312.286C274.556 313.245 276.659 315.81 278.91 314.629L280.257 314.906C279.999 318.079 282.692 320.939 282.692 320.939C282.692 320.939 281.235 318.541 281.235 317.157C281.235 317.157 282.12 318.707 282.766 319.629C283.412 320.57 284.021 321.714 284.058 322.489C284.058 322.489 284.187 320.994 283.523 319.5C284.519 320.828 285.165 324.463 285.165 324.463" fill="#783A1E"/>
<path d="M280.497 313.743C280.497 313.743 278.301 314.13 276.899 313.023C276.899 313.023 277.397 313.853 278.56 314.222C278.56 314.222 277.656 314.536 276.604 313.909C275.552 313.281 274.021 311.566 272.877 311.233C271.733 310.901 270.663 311.418 270.663 311.418C270.663 311.418 271.438 305.403 277.139 304.388C276.235 304.185 275.202 304.185 274.058 304.481C269.445 305.661 268.394 310.145 268.394 310.145C269.501 310.108 270.534 311.602 270.534 311.602C270.534 311.602 272.176 311.344 273.375 312.304C274.574 313.245 276.678 315.828 278.929 314.647L280.257 314.923C280.257 315.071 280.257 315.219 280.257 315.348L280.534 314.352V313.724L280.497 313.743Z" fill="#5E2214"/>
<path d="M278.799 314.85C279.113 314.149 279.98 313.577 280.497 313.725C280.995 313.872 281.198 314.832 280.737 315.643C280.276 316.455 278.578 317.765 278.154 317.47C277.729 317.175 278.578 315.367 278.799 314.85Z" fill="#E9A480"/>
<path d="M274.001 348.595C274.001 348.595 273.19 347.378 273.042 347.212C272.894 347.064 271.418 345.92 270.441 345.514C269.463 345.108 268.06 344.5 267.562 344.5C267.064 344.5 266.806 344.924 266.99 345.256C267.175 345.588 269.167 346.271 269.555 346.547C269.961 346.824 270.108 347.636 269.776 348.171C269.444 348.706 273.024 349.315 273.024 349.315L274.001 348.595Z" fill="#E9A480"/>
<path d="M272.471 354.278L268.32 343.558C268.265 343.41 268.117 343.244 267.988 343.171L254.095 335.237C254.095 335.237 253.984 335.2 253.966 335.219L253.578 335.495C253.578 335.495 253.542 335.569 253.578 335.643L257.73 346.363C257.785 346.51 257.933 346.676 258.062 346.75L271.955 354.684C271.955 354.684 272.066 354.72 272.084 354.702L272.471 354.444C272.471 354.444 272.508 354.37 272.471 354.296" fill="#3977BD"/>
<path d="M272.082 354.537C272.138 354.684 272.082 354.74 271.935 354.666L258.042 346.732C257.912 346.658 257.746 346.474 257.709 346.345L253.558 335.625C253.503 335.477 253.558 335.422 253.706 335.496L267.599 343.43C267.728 343.503 267.894 343.688 267.931 343.817L272.082 354.537Z" fill="#084999"/>
<path d="M263.541 346.234C263.541 346.234 264.168 346.178 264.556 346.455C264.943 346.732 266.622 347.543 267.286 347.783C267.951 348.005 268.762 348.042 269.334 347.949C269.906 347.857 270.773 347.433 270.866 347.414C270.958 347.414 273.024 347.23 273.024 347.23C273.024 347.23 274.002 348.005 274.353 348.06C274.703 348.115 278.098 347.986 279.943 347.543C281.77 347.101 285.349 346.141 287.674 346.4C287.674 346.4 290.866 348.466 290.681 350.735C290.681 350.735 284.611 351.51 281.179 351.51C277.748 351.51 275.515 351.418 274.242 351.455C272.969 351.492 270.441 351.676 269.943 351.787C269.445 351.898 267.877 351.75 267.323 351.51C266.751 351.289 264.888 350.034 264.334 349.518C263.781 349.001 263.744 348.355 263.799 348.152C263.836 347.949 263.338 346.436 263.541 346.234Z" fill="#E9A480"/>
<path d="M269.962 351.769C270.46 351.658 272.988 351.492 274.261 351.437C275.515 351.4 277.748 351.492 281.198 351.492C284.648 351.492 290.7 350.717 290.7 350.717C290.737 350.182 290.589 349.647 290.349 349.167C286.475 349.702 276.419 350.404 275.589 350.293C274.667 350.164 274.925 350.256 273.763 350.607C272.619 350.957 269.777 350.939 269.482 350.883C269.187 350.828 268.154 350.164 267.969 349.998C267.803 349.813 266.696 349.463 265.497 348.798C264.648 348.319 263.965 347.691 263.633 347.341C263.726 347.71 263.799 348.06 263.781 348.153C263.744 348.356 263.781 349.001 264.316 349.518C264.869 350.035 266.751 351.289 267.305 351.511C267.877 351.732 269.445 351.898 269.943 351.787" fill="#D08A67"/>
<path d="M274.463 347.857C274.463 347.857 274.187 348.54 274.187 349.721C274.187 350.902 274.463 351.64 274.463 351.64C274.463 351.64 280.699 351.916 282.711 351.824C284.722 351.75 291.807 351.215 292.581 350.477C293.356 349.739 293.338 347.894 293.006 346.603C292.674 345.311 290.017 337.248 289.574 335.699C289.131 334.149 287.877 328.909 287.323 327.802C286.788 326.713 285.349 325.588 285.349 325.588C285.349 325.588 282.969 327.156 282.046 329.223C281.124 331.307 282.545 334.998 283.098 336.271C283.652 337.544 286.954 345.994 286.954 345.994C286.954 345.994 282.009 346.806 280.607 347.156C279.187 347.507 275.423 347.82 274.445 347.82" fill="#E5F4FC"/>
</g>
</g>
<defs>
<linearGradient id="paint0_linear_584_2627" x1="-31.2714" y1="260.42" x2="747.5" y2="762" gradientUnits="userSpaceOnUse">
<stop stop-color="#9BDDE5" stop-opacity="0.2"/>
<stop offset="1" stop-color="#8BB8DF" stop-opacity="0.4"/>
</linearGradient>
<linearGradient id="paint1_linear_584_2627" x1="7.20666" y1="546.972" x2="1204.91" y2="-0.197564" gradientUnits="userSpaceOnUse">
<stop stop-color="#9BDDE5" stop-opacity="0.4"/>
<stop offset="1" stop-color="#8BB8DF" stop-opacity="0.1"/>
</linearGradient>
<clipPath id="clip0_584_2627">
<rect width="57.528" height="120.296" fill="white" transform="translate(235.755 304)"/>
</clipPath>
</defs>
</svg>
