<svg width="531" height="528" viewBox="0 0 531 528" fill="none" xmlns="http://www.w3.org/2000/svg">
<path d="M4.96777 527.034H157.521V229.819H4.96777L4.96777 527.034Z" fill="url(#paint0_linear_600_3227)"/>
<path d="M4.29883 525.742V229.173H158.19V525.742" stroke="#0055A0" stroke-width="0.80291" stroke-dasharray="3.21 3.21"/>
<circle opacity="0.8" cx="4.76661" cy="229.598" r="4.76661" fill="#FFDD00"/>
<circle opacity="0.8" cx="158.251" cy="229.598" r="4.76661" fill="#FFDD00"/>
<path d="M188.526 527.034H341.079V124.94H188.526V527.034Z" fill="url(#paint1_linear_600_3227)"/>
<path d="M187.857 525.286V124.066H341.748V525.286" stroke="#0055A0" stroke-width="0.80291" stroke-dasharray="3.21 3.21"/>
<circle opacity="0.8" cx="187.804" cy="122.826" r="4.76661" fill="#FFDD00"/>
<circle opacity="0.8" cx="341.288" cy="122.826" r="4.76661" fill="#FFDD00"/>
<path d="M373.479 527.034H526.032V64.3633H373.479V527.034Z" fill="url(#paint2_linear_600_3227)"/>
<path d="M372.811 525.022V63.3578H526.702V525.022" stroke="#0055A0" stroke-width="0.80291" stroke-dasharray="3.21 3.21"/>
<circle opacity="0.8" cx="372.749" cy="63.72" r="4.76661" fill="#FFDD00"/>
<circle opacity="0.8" cx="526.233" cy="62.7667" r="4.76661" fill="#FFDD00"/>
<path d="M288.702 119.257C286.92 118.861 281.305 118.519 279.343 116.449L271.496 119.023C271.496 119.023 270.956 121.507 271.496 122.839C271.496 122.839 273.494 123.829 275.204 123.829C276.913 123.829 278.155 123.631 280.081 124.117C282.007 124.603 285.067 124.818 287.46 124.117C289.854 123.397 291.384 121.615 291.42 120.769C291.456 119.905 290.502 119.671 288.72 119.275" fill="#0C1531"/>
<path d="M291.402 120.769C291.348 121.632 289.818 123.396 287.442 124.098C285.048 124.818 281.988 124.584 280.063 124.098C278.137 123.612 276.895 123.81 275.185 123.81C273.475 123.81 271.477 122.82 271.477 122.82C271.477 122.784 271.441 122.748 271.423 122.694C271.423 122.784 271.441 122.874 271.459 122.964L271.405 124.152C271.405 124.152 271.765 124.422 272.953 124.764C274.159 125.106 277.687 124.872 277.687 124.872C277.687 124.872 277.687 124.548 277.687 124.224C278.425 124.224 279.199 124.314 280.117 124.548C282.042 125.034 285.102 125.268 287.496 124.548C289.89 123.828 291.42 122.046 291.456 121.201C291.456 121.039 291.438 120.895 291.366 120.769" fill="#050408"/>
<path d="M261.451 111.986C261.451 111.986 260.947 115.1 261.451 115.802C261.954 116.504 263.97 117.241 265.302 116.468C266.634 115.676 266.742 115.082 268.146 113.804C269.478 112.598 271.512 111.464 272.07 109.61C272.484 108.188 272.142 106.514 271.44 106.19C270.738 105.866 267.966 106.694 266.562 107.936C265.158 109.178 261.469 111.986 261.469 111.986" fill="#0C1531"/>
<path d="M272.054 109.61C271.514 111.446 269.48 112.598 268.13 113.803C266.726 115.081 266.618 115.675 265.286 116.467C263.954 117.259 261.938 116.503 261.434 115.801C261.362 115.693 261.308 115.531 261.272 115.333C261.272 115.585 261.272 115.801 261.344 115.981L261.47 116.791C261.47 116.791 261.884 117.277 262.64 117.565C263.378 117.853 264.512 117.889 265.268 117.385C266.042 116.863 267.5 115.297 267.5 115.297C267.5 115.297 267.5 115.063 267.5 114.793C267.68 114.613 267.878 114.415 268.13 114.199C269.462 112.994 271.496 111.86 272.054 110.024C272.198 109.538 272.252 109.034 272.234 108.548C272.234 108.908 272.162 109.268 272.054 109.628" fill="#050408"/>
<path d="M275.255 4.44543C276.767 5.23736 277.901 7.43317 278.297 9.19702C278.675 10.9429 278.297 11.3928 278.297 11.3928C278.297 11.3928 279.521 12.4547 279.377 12.7967C279.233 13.1387 278.153 13.9486 278.153 13.9486C278.153 13.9486 278.369 15.0825 278.261 15.6045C278.153 16.1264 277.739 17.2783 277.829 17.8543C277.919 18.4302 277.811 19.4561 277.217 19.7621C276.623 20.0501 274.013 19.8521 273.761 20.644C273.509 21.4359 273.509 25.4676 273.509 25.4676C273.509 25.4676 269.532 28.1134 265.986 26.3675C262.44 24.6217 263.79 20.878 263.79 20.878C263.79 20.878 264.87 18.9162 264.384 17.5663C263.916 16.2164 261.828 13.8046 262.224 10.4029C262.62 7.00121 264.402 5.14737 267.624 4.03147C270.846 2.91557 272.988 3.22154 275.255 4.40944" fill="#E9A480"/>
<path d="M273.762 20.6434C273.888 20.2654 274.59 20.1034 275.328 20.0314C274.14 19.7434 272.664 19.2215 272.574 18.3755C272.412 16.9537 271.998 14.5779 271.998 14.5779L269.461 15.7478C269.461 15.7478 269.281 23.4331 268.057 26.9608C270.918 27.2308 273.546 25.4849 273.546 25.4849C273.546 25.4849 273.546 21.4353 273.798 20.6613" fill="#D08A67"/>
<path d="M273.151 16.414C273.079 15.514 272.791 14.9921 271.927 15.3161C271.082 15.64 270.614 17.1519 271.388 18.1598C272.143 19.1497 273.403 20.0316 273.151 16.414Z" fill="#E9A480"/>
<path d="M272.09 2.55524C267.896 2.71722 262.875 4.31908 261.993 9.14266C261.111 13.9662 263.199 15.2621 263.199 15.2621C263.685 16.234 264.188 17.026 264.386 17.6019C264.494 17.9079 264.512 18.2319 264.494 18.5558C265.322 18.8978 266.366 19.2398 267.194 19.2038C268.796 19.1138 268.85 19.4918 269.696 17.9259C270.542 16.36 271.424 14.7402 272.666 14.9022C273.908 15.0641 274.736 15.3701 274.898 14.7942C275.06 14.2182 275.078 14.1102 275.024 13.4983C274.97 12.9043 275.905 12.1844 276.193 11.2485C276.463 10.2946 275.311 9.34064 276.193 8.44072C276.769 7.86477 277.273 7.5408 277.525 7.07284C277.525 7.07284 278.119 6.65888 278.083 5.92094C278.065 5.18301 276.265 2.39325 272.09 2.55524Z" fill="#553316"/>
<path d="M272.682 14.9025C273.924 15.0644 274.752 15.3704 274.914 14.7945C275.076 14.2185 275.094 14.1105 275.04 13.4986C274.986 12.9046 275.922 12.1847 276.21 11.2488C276.282 10.9788 276.246 10.7088 276.174 10.4568C275.076 12.2567 268.597 15.3524 266.419 15.6044C265.321 15.7304 264.115 15.5144 263.197 15.2624C263.683 16.2343 264.187 17.0263 264.385 17.6022C264.493 17.9082 264.511 18.2322 264.493 18.5561C265.321 18.8981 266.365 19.2401 267.193 19.2041C268.795 19.1141 268.849 19.4921 269.695 17.9262C270.541 16.3603 271.423 14.7405 272.664 14.9025" fill="#624024"/>
<path d="M261.614 23.1822L260.318 20.7344C260.318 20.7344 257.348 21.2923 256.664 23.4161C255.98 25.558 254.055 29.5356 253.569 31.6594C253.083 33.7652 252.255 40.4786 253.659 41.2346C255.062 41.9905 256.25 42.0625 257.564 41.5406C258.878 41.0186 261.362 38.9848 261.362 38.9848L261.614 23.1822Z" fill="#BAC1C5"/>
<path d="M257.527 28.9233C257.527 28.9233 257.455 31.3891 256.645 33.8189C255.835 36.2487 255.242 37.6886 255.457 39.4164C255.583 40.3883 254.918 41.2343 255.062 41.7742C255.889 41.9542 256.699 41.8822 257.545 41.5402C258.877 41.0183 261.343 38.9845 261.343 38.9845L261.469 31.3891L257.527 28.9233Z" fill="#A1A8AC"/>
<path d="M260.426 112.544C260.426 112.544 260.012 114.812 263.144 115.262C264.908 115.514 267.554 112.994 268.742 110.474C269.659 108.513 269.318 106.443 269.318 106.443C269.318 106.443 269.066 95.6977 269.965 91.828C270.847 87.9403 273.529 73.2356 273.529 73.2356L269.335 53.8513L259.994 63.6245C259.994 63.6245 261.344 73.1636 261.236 79.2291C261.128 85.2946 259.31 91.558 259.688 97.9475C260.066 104.337 260.444 112.526 260.444 112.526" fill="#0F1F3C"/>
<path d="M283.824 66.306C283.824 66.306 285.624 74.0453 284.526 81.6227C283.428 89.2 281.556 104.967 281.322 108.764C281.088 112.562 283.932 118.447 283.932 118.447C283.932 118.447 276.804 122.011 271.243 121.687C271.243 121.687 269.893 106.263 270.469 101.601C271.045 96.9393 272.827 91.1798 272.233 87.8861C271.639 84.5744 269.947 72.3355 269.947 72.3355C269.947 72.3355 267.733 68.9878 267.193 65.874C266.653 62.7603 283.824 66.288 283.824 66.288" fill="#0D2A4B"/>
<path d="M283.319 58.6023C282.401 54.0667 281.285 52.1769 281.213 49.7111C281.141 47.2453 282.419 35.9783 278.513 31.7307C274.608 27.4831 270.99 26.6011 270.99 26.6011L263.773 20.8956C263.773 20.8956 261.181 20.6437 260.335 20.7697C259.489 20.8956 258.175 22.7495 257.689 24.5673C257.185 26.3852 256.663 30.7948 257.905 34.2865C259.165 37.7962 262.477 45.2835 261.631 49.5491C260.785 53.8148 258.643 63.6959 258.643 63.6959C258.643 63.6959 259.831 64.6498 264.151 66.5756L265.429 58.1884L265.033 66.9536C265.681 67.2416 266.401 67.5296 267.174 67.8535C275.706 71.3452 284.867 67.3496 284.867 67.3496C284.867 67.3496 284.219 63.1379 283.319 58.5843" fill="#BAC1C5"/>
<path d="M264.223 19.5102C264.223 19.5102 266.077 21.526 268.201 22.5699C270.073 23.4878 273.781 24.4598 273.781 24.4598L274.645 27.5015C274.645 27.5015 267.769 26.4036 264.781 24.7297C261.794 23.0379 263.234 20.6441 263.234 20.6441L264.241 19.5282L264.223 19.5102Z" fill="#EDF4F9"/>
<path d="M265.34 22.3182C263.468 20.7703 263.684 19.7264 263.684 19.7264L262.46 20.7703C262.46 20.7703 260.876 23.1641 263.684 24.892C266.473 26.6378 270.685 27.5018 272.881 28.2937C275.077 29.0856 277.38 31.0115 277.38 31.0115L278.55 31.7134C275.905 26.1339 267.229 23.8481 265.358 22.3002" fill="#D5DBDF"/>
<path d="M296.926 44.9057C297.25 44.1498 297.394 43.0878 297.304 42.5839C297.214 42.0799 296.314 40.856 296.872 40.6041C297.43 40.3521 298.24 41.576 298.24 41.576L298.816 40.4241C298.816 40.4241 298.654 40.1001 298.87 39.7041C299.086 39.3082 299.608 39.2722 299.788 39.3802C299.986 39.4882 300.778 39.5242 300.778 39.5242C300.472 39.2722 299.788 38.5522 300.04 37.9583C300.292 37.3644 301.768 38.3183 302.884 39.1282C304 39.9381 303.982 40.8021 304.162 41.738C304.342 42.6739 305.044 42.9079 303.802 44.9957C302.56 47.0835 301.066 48.5774 299.608 50.2512C299.356 50.5392 298.942 50.9892 298.456 51.5471L295.774 48.2354C296.71 47.6774 297.358 47.2995 297.358 47.2995C297.358 47.2995 296.602 45.6796 296.926 44.9237" fill="#E9A480"/>
<path d="M299.645 45.6975C299.429 46.5614 297.413 47.2274 297.413 47.2274H297.341C297.197 46.9034 296.657 45.5895 296.945 44.9236C297.269 44.1676 297.431 43.1057 297.323 42.6018C297.233 42.0978 296.333 40.8739 296.891 40.6219C297.449 40.37 298.259 41.5938 298.259 41.5938L298.835 40.4419C298.835 40.4419 298.673 40.136 298.889 39.722C299.105 39.326 299.627 39.29 299.807 39.398C300.005 39.506 300.797 39.542 300.797 39.542C300.491 39.29 299.807 38.5701 300.059 37.9762C300.239 37.5442 301.049 37.9222 301.913 38.4801C302.489 39.452 303.263 40.352 303.263 40.352L302.399 42.1158L301.031 42.9797C301.031 42.9797 299.861 44.8696 299.645 45.7335" fill="#D08A67"/>
<path d="M283.302 33.3324L298.258 43.1235L305.134 31.5685L290.177 21.7774L283.302 33.3324Z" fill="#1D2E60"/>
<path d="M288.594 26.7994L291.833 28.9052L291.905 28.7972L288.684 26.6734L288.594 26.7994Z" fill="#4F88C3"/>
<path d="M288.431 27.0877L291.652 29.1935L291.724 29.0855L288.503 26.9617L288.431 27.0877Z" fill="#4F88C3"/>
<path d="M288.271 27.3748L291.492 29.4806L291.564 29.3727L288.343 27.2488L288.271 27.3748Z" fill="#4F88C3"/>
<path d="M288.089 27.6632L291.311 29.787L291.383 29.661L288.161 27.5372L288.089 27.6632Z" fill="#4F88C3"/>
<path d="M289.367 28.9052L291.149 30.0751L291.221 29.9491L289.439 28.7792L289.367 28.9052Z" fill="#4F88C3"/>
<path d="M290.808 23.5416L294.029 25.6474L294.101 25.5214L290.88 23.4156L290.808 23.5416Z" fill="#4F88C3"/>
<path d="M290.645 23.8299L293.866 25.9357L293.938 25.8277L290.717 23.7039L290.645 23.8299Z" fill="#4F88C3"/>
<path d="M290.465 24.117L293.687 26.2228L293.759 26.1148L290.537 23.991L290.465 24.117Z" fill="#4F88C3"/>
<path d="M290.303 24.4053L293.524 26.5292L293.596 26.4032L290.375 24.2794L290.303 24.4053Z" fill="#4F88C3"/>
<path d="M291.581 25.6474L293.345 26.8172L293.417 26.6913L291.653 25.5214L291.581 25.6474Z" fill="#4F88C3"/>
<path d="M284.634 31.8932L287.856 33.999L287.928 33.873L284.706 31.7672L284.634 31.8932Z" fill="#4F88C3"/>
<path d="M284.454 32.1803L287.676 34.2861L287.748 34.1601L284.526 32.0543L284.454 32.1803Z" fill="#4F88C3"/>
<path d="M284.292 32.4686L287.514 34.5745L287.586 34.4485L284.364 32.3427L284.292 32.4686Z" fill="#4F88C3"/>
<path d="M284.112 32.757L287.334 34.8628L287.406 34.7368L284.184 32.631L284.112 32.757Z" fill="#4F88C3"/>
<path d="M285.39 33.999L287.171 35.1509L287.243 35.0249L285.462 33.873L285.39 33.999Z" fill="#4F88C3"/>
<path d="M286.056 29.8051L289.277 31.9289L289.367 31.803L286.128 29.6971L286.056 29.8051Z" fill="#4F88C3"/>
<path d="M285.895 30.1109L289.116 32.2167L289.188 32.0907L285.967 29.9849L285.895 30.1109Z" fill="#4F88C3"/>
<path d="M285.714 30.3992L288.936 32.505L289.008 32.379L285.786 30.2732L285.714 30.3992Z" fill="#4F88C3"/>
<path d="M285.533 30.6875L288.773 32.7933L288.845 32.6673L285.605 30.5615L285.533 30.6875Z" fill="#4F88C3"/>
<path d="M286.83 31.9109L288.594 33.0808L288.666 32.9548L286.884 31.8029L286.83 31.9109Z" fill="#4F88C3"/>
<path d="M303.009 31.4253L303.873 32.0012L299.121 40.0105L298.239 39.4346L303.009 31.4253Z" fill="#89CFDA"/>
<path d="M300.257 33.459L301.121 34.0349L298.007 39.2905L297.125 38.7145L300.257 33.459Z" fill="#89CFDA"/>
<path d="M298.402 33.9814L299.266 34.5393L296.89 38.553L296.008 37.995L298.402 33.9814Z" fill="#89CFDA"/>
<path d="M297.953 32.1264L298.817 32.7024L295.775 37.8319L294.911 37.256L297.953 32.1264Z" fill="#89CFDA"/>
<path d="M297.809 29.7687L298.672 30.3266L294.659 37.094L293.795 36.5361L297.809 29.7687Z" fill="#89CFDA"/>
<path d="M293.814 33.8903L294.678 34.4482L293.544 36.374L292.68 35.7981L293.814 33.8903Z" fill="#89CFDA"/>
<path d="M293.777 31.3532L294.641 31.9112L292.427 35.6368L291.563 35.0789L293.777 31.3532Z" fill="#89CFDA"/>
<path d="M292.157 27.3931C292.067 27.5551 292.103 27.7351 292.247 27.8251C292.391 27.9151 292.571 27.8611 292.661 27.7171C292.751 27.5551 292.715 27.3571 292.571 27.2851C292.427 27.1952 292.247 27.2491 292.157 27.3931Z" fill="#4F88C3"/>
<path d="M291.329 26.8357C291.239 26.9977 291.275 27.1777 291.401 27.2677C291.545 27.3576 291.725 27.3037 291.815 27.1417C291.905 26.9977 291.869 26.7997 291.725 26.7097C291.581 26.6197 291.401 26.6737 291.311 26.8177" fill="#4F88C3"/>
<path d="M290.483 26.2952C290.393 26.4572 290.429 26.6372 290.555 26.7272C290.699 26.8172 290.879 26.7632 290.969 26.6192C291.059 26.4752 291.023 26.2772 290.879 26.1872C290.735 26.0973 290.555 26.1512 290.465 26.2952" fill="#4F88C3"/>
<path d="M294.622 35.9071C294.316 36.1051 293.686 36.1591 293.128 35.7451C292.571 35.3311 291.689 34.2872 291.113 34.3592C290.555 34.4312 289.907 34.5572 289.907 34.5572C289.907 34.5572 290.843 35.5471 290.609 36.0151C290.357 36.501 290.051 37.4009 290.051 37.4009C290.051 37.4009 291.689 38.1929 291.491 39.0208C291.293 39.8487 289.547 39.3628 288.935 39.0208C288.935 39.0208 288.269 40.2267 287.837 40.1007C287.423 39.9927 287.639 38.2469 287.639 38.2469H287.225C287.225 38.2469 285.731 39.3628 285.083 39.5068C284.417 39.6508 284.399 39.2548 284.561 38.9668C284.723 38.6788 285.407 37.7789 285.407 37.7789L282.347 37.113L278.73 39.3808L276.462 35.8351C276.462 35.8351 281.249 33.7833 282.221 33.7473C283.211 33.7113 286.883 32.5594 287.657 32.5414C288.431 32.5054 290.573 32.6674 291.329 32.7753C292.085 32.9013 295.198 35.5291 294.622 35.9071Z" fill="#E9A480"/>
<path d="M289.927 34.5568C289.927 34.5568 290.862 35.5467 290.628 36.0147C290.377 36.5007 290.071 37.4006 290.071 37.4006C288.217 36.9146 287.137 35.5467 287.335 35.1148C287.533 34.6828 289.927 34.5568 289.927 34.5568Z" fill="#D08A67"/>
<path d="M287.531 38.1026C288.611 38.3726 288.935 39.0385 288.935 39.0385C288.935 39.0385 288.269 40.2444 287.837 40.1184C287.405 40.0104 287.639 38.2646 287.639 38.2646H287.225C287.225 38.2646 285.732 39.3625 285.084 39.5245C284.436 39.6685 284.4 39.2725 284.562 38.9845C284.724 38.6966 285.408 37.7966 285.408 37.7966H285.354C285.732 37.7246 286.452 37.8506 287.531 38.1026Z" fill="#D08A67"/>
<path d="M281.485 33.4941C281.485 33.4941 282.817 34.862 282.529 38.4077L277.813 41.5934L274.573 35.8519L281.503 33.4941H281.485Z" fill="#153659"/>
<path d="M301.03 46.7416C301.03 46.7416 299.59 45.4457 300.112 43.8438C300.634 42.242 301.066 41.54 300.904 41.0001C300.742 40.4601 300.166 37.9044 301.246 37.7424C302.326 37.5804 302.38 39.1463 302.452 39.9022C302.524 40.6581 302.794 41.558 303.172 42.152C303.55 42.7459 303.91 43.7539 303.298 45.2297C302.686 46.7056 301.876 47.3175 301.03 46.7236" fill="#E9A480"/>
<path d="M283.32 58.6022C282.402 54.0666 281.286 52.1767 281.214 49.7109C281.16 48.0551 281.736 42.4036 280.908 37.598L273.493 35.9781C273.493 35.9781 271.909 37.274 272.305 40.0098C272.647 42.3856 276.444 60.546 276.786 69.2032C281.412 68.8433 284.85 67.3494 284.85 67.3494C284.85 67.3494 284.202 63.1378 283.302 58.5842" fill="#A1A8AC"/>
<path d="M285.299 49.6031C287.945 48.5412 296.71 45.5355 296.71 45.5355C298.312 45.8054 299.68 47.0113 299.806 48.2712C299.968 49.9091 298.654 52.1409 298.654 52.1409C298.654 52.1409 291.689 54.3907 288.485 56.2985C285.281 58.2064 283.787 57.5944 282.581 56.8925C280.854 55.8486 282.131 50.881 285.299 49.6031Z" fill="#BAC1C5"/>
<path d="M285.299 49.6031C287.945 48.5412 296.71 45.5355 296.71 45.5355C297.304 45.6435 297.88 45.8774 298.366 46.1834L298.186 46.6154C298.186 46.6154 287.135 50.917 282.473 56.8025C280.926 55.6146 282.221 50.845 285.299 49.6031Z" fill="#D5DBDF"/>
<path d="M274.988 29.4267C274.988 29.4267 279.037 30.8666 280.459 33.7463C281.899 36.6261 282.475 41.5936 282.997 42.8535C283.519 44.1134 286.273 49.6749 287.083 50.8448C287.874 52.0147 288.432 53.4546 287.514 54.8765C286.597 56.2983 285.355 58.3142 282.853 57.5942C280.333 56.8563 276.337 49.7829 274.988 46.7772C273.638 43.7714 272.09 39.4158 272.09 36.6081C272.09 33.7823 273.944 30.0926 274.988 29.4447" fill="#BAC1C5"/>
<defs>
<linearGradient id="paint0_linear_600_3227" x1="147.348" y1="527.034" x2="15.1402" y2="229.819" gradientUnits="userSpaceOnUse">
<stop stop-color="#0050AA" stop-opacity="0"/>
<stop offset="1" stop-color="#0D78D6"/>
</linearGradient>
<linearGradient id="paint1_linear_600_3227" x1="338.715" y1="527.034" x2="190.89" y2="124.94" gradientUnits="userSpaceOnUse">
<stop stop-color="#0050AA" stop-opacity="0"/>
<stop offset="1" stop-color="#0D78D6"/>
</linearGradient>
<linearGradient id="paint2_linear_600_3227" x1="522.626" y1="527.034" x2="376.886" y2="64.3633" gradientUnits="userSpaceOnUse">
<stop stop-color="#0050AA" stop-opacity="0"/>
<stop offset="1" stop-color="#0D78D6"/>
</linearGradient>
</defs>
</svg>
