<svg width="39" height="38" viewBox="0 0 39 38" fill="none" xmlns="http://www.w3.org/2000/svg">
<path d="M36.4 11.1903H29.9V13.7903H36.4V21.5903H27.3V24.1903H31.2V26.9749C29.9745 27.2913 28.9066 28.0438 28.1962 29.0913C27.4859 30.1388 27.182 31.4094 27.3414 32.665C27.5009 33.9205 28.1128 35.0748 29.0625 35.9115C30.0122 36.7482 31.2344 37.2098 32.5 37.2098C33.7656 37.2098 34.9878 36.7482 35.9375 35.9115C36.8872 35.0748 37.4991 33.9205 37.6586 32.665C37.818 31.4094 37.5141 30.1388 36.8038 29.0913C36.0934 28.0438 35.0255 27.2913 33.8 26.9749V24.1903H36.4C37.0892 24.1893 37.75 23.915 38.2373 23.4276C38.7247 22.9403 38.999 22.2795 39 21.5903V13.7903C39 13.1007 38.7261 12.4394 38.2385 11.9518C37.7509 11.4642 37.0896 11.1903 36.4 11.1903ZM35.1 31.9903C35.1 32.5045 34.9475 33.0072 34.6618 33.4348C34.3761 33.8623 33.9701 34.1956 33.495 34.3924C33.0199 34.5892 32.4971 34.6407 31.9928 34.5403C31.4884 34.44 31.0251 34.1924 30.6615 33.8288C30.2979 33.4651 30.0503 33.0019 29.95 32.4975C29.8496 31.9932 29.9011 31.4704 30.0979 30.9953C30.2947 30.5202 30.6279 30.1142 31.0555 29.8285C31.4831 29.5428 31.9858 29.3903 32.5 29.3903C33.1892 29.3913 33.85 29.6656 34.3373 30.1529C34.8247 30.6403 35.099 31.301 35.1 31.9903ZM23.4 5.99028H16.9V8.59028H23.4V16.3903H14.3V18.9903H18.2V26.9749C16.9745 27.2913 15.9066 28.0438 15.1962 29.0913C14.4859 30.1388 14.182 31.4094 14.3414 32.665C14.5009 33.9205 15.1128 35.0748 16.0625 35.9115C17.0122 36.7482 18.2344 37.2098 19.5 37.2098C20.7656 37.2098 21.9878 36.7482 22.9375 35.9115C23.8872 35.0748 24.4991 33.9205 24.6586 32.665C24.818 31.4094 24.5141 30.1388 23.8038 29.0913C23.0934 28.0438 22.0255 27.2913 20.8 26.9749V18.9903H23.4C24.0896 18.9903 24.7509 18.7164 25.2385 18.2288C25.7261 17.7412 26 17.0798 26 16.3903V8.59028C26 7.90072 25.7261 7.2394 25.2385 6.75181C24.7509 6.26421 24.0896 5.99028 23.4 5.99028ZM22.1 31.9903C22.1 32.5045 21.9475 33.0072 21.6618 33.4348C21.3761 33.8623 20.9701 34.1956 20.495 34.3924C20.0199 34.5892 19.4971 34.6407 18.9928 34.5403C18.4884 34.44 18.0251 34.1924 17.6615 33.8288C17.2979 33.4651 17.0503 33.0019 16.95 32.4975C16.8496 31.9932 16.9011 31.4704 17.0979 30.9953C17.2947 30.5202 17.6279 30.1142 18.0555 29.8285C18.4831 29.5428 18.9858 29.3903 19.5 29.3903C20.1892 29.3913 20.85 29.6656 21.3373 30.1529C21.8247 30.6403 22.099 31.301 22.1 31.9903ZM10.4 0.790283H2.6C1.91044 0.790283 1.24912 1.06421 0.761522 1.55181C0.273928 2.0394 0 2.70072 0 3.39028V11.1903C0 11.8798 0.273928 12.5412 0.761522 13.0288C1.24912 13.5164 1.91044 13.7903 2.6 13.7903H5.2V26.9749C3.97454 27.2913 2.90655 28.0438 2.19622 29.0913C1.48588 30.1388 1.18197 31.4094 1.34145 32.665C1.50092 33.9205 2.11284 35.0748 3.0625 35.9115C4.01216 36.7482 5.23435 37.2098 6.5 37.2098C7.76565 37.2098 8.98784 36.7482 9.9375 35.9115C10.8872 35.0748 11.4991 33.9205 11.6586 32.665C11.818 31.4094 11.5141 30.1388 10.8038 29.0913C10.0934 28.0438 9.02546 27.2913 7.8 26.9749V13.7903H10.4C11.0896 13.7903 11.7509 13.5164 12.2385 13.0288C12.7261 12.5412 13 11.8798 13 11.1903V3.39028C13 2.70072 12.7261 2.0394 12.2385 1.55181C11.7509 1.06421 11.0896 0.790283 10.4 0.790283ZM9.1 31.9903C9.1 32.5045 8.94751 33.0072 8.66182 33.4348C8.37613 33.8623 7.97006 34.1956 7.49498 34.3924C7.01989 34.5892 6.49712 34.6407 5.99276 34.5403C5.48841 34.44 5.02514 34.1924 4.66152 33.8288C4.29791 33.4651 4.05028 33.0019 3.94996 32.4975C3.84964 31.9932 3.90112 31.4704 4.09791 30.9953C4.2947 30.5202 4.62795 30.1142 5.05552 29.8285C5.48309 29.5428 5.98577 29.3903 6.5 29.3903C7.18956 29.3903 7.85088 29.6642 8.33848 30.1518C8.82607 30.6394 9.1 31.3007 9.1 31.9903ZM2.6 11.1903V3.39028H10.4L10.4026 11.1903H2.6Z" fill="#002B5C"/>
</svg>
