<svg width="28" height="38" viewBox="0 0 28 38" fill="none" xmlns="http://www.w3.org/2000/svg">
<path d="M25.8462 14.1238C25.8462 18.0008 23.9831 21.4469 21.0991 23.6072L22.3914 25.3303C24.1338 24.0276 25.5482 22.3363 26.5219 20.3908C27.4955 18.4453 28.0017 16.2994 28 14.1238H25.8462ZM14 2.27769C17.1418 2.27769 20.1549 3.52576 22.3765 5.74734C24.5981 7.96893 25.8462 10.982 25.8462 14.1238H28C28 10.4108 26.525 6.84985 23.8995 4.22434C21.274 1.59883 17.713 0.12384 14 0.12384V2.27769ZM2.15385 14.1238C2.15385 10.982 3.40192 7.96893 5.62351 5.74734C7.84509 3.52576 10.8582 2.27769 14 2.27769V0.12384C10.287 0.12384 6.72602 1.59883 4.10051 4.22434C1.475 6.84985 4.16271e-06 10.4108 4.16271e-06 14.1238H2.15385ZM6.90093 23.6072C5.42598 22.5052 4.22875 21.074 3.40461 19.4276C2.58046 17.7811 2.15217 15.965 2.15385 14.1238H4.16271e-06C-0.00167465 16.2994 0.504467 18.4453 1.47815 20.3908C2.45183 22.3363 3.86617 24.0276 5.60862 25.3303L6.90093 23.6072ZM10.7628 35.1303C10.697 31.9807 10.0462 28.8709 8.84369 25.9592L6.85354 26.7798C7.952 29.4377 8.55077 32.2872 8.61108 35.1755L10.7628 35.1303ZM17.3708 34.9257C16.3242 35.4489 15.1701 35.7213 14 35.7213C12.8299 35.7213 11.6758 35.4489 10.6292 34.9257L9.66646 36.8534C11.012 37.526 12.4957 37.8761 14 37.8761C15.5043 37.8761 16.988 37.526 18.3335 36.8534L17.3708 34.9257ZM19.1585 25.9592C17.9549 28.8714 17.3034 31.982 17.2372 35.1324L19.3911 35.1755C19.4492 32.2872 20.048 29.4398 21.1465 26.782L19.1585 25.9592ZM18.3335 36.8534C18.6456 36.6964 18.9089 36.4572 19.0949 36.1614C19.2809 35.8657 19.3826 35.5248 19.3889 35.1755L17.2351 35.1324C17.2365 35.0888 17.2499 35.0464 17.2738 35.0099C17.2977 34.9735 17.3313 34.9443 17.3708 34.9257L18.3335 36.8534ZM8.61108 35.1755C8.61741 35.5248 8.71907 35.8657 8.90507 36.1614C9.09108 36.4572 9.35436 36.6964 9.66646 36.8534L10.6292 34.9257C10.668 34.9444 10.7009 34.9734 10.7244 35.0094C10.7479 35.0455 10.7612 35.0873 10.7628 35.1303L8.61108 35.1755ZM5.60862 25.3324C6.29354 25.8451 6.44862 25.9721 6.51323 26.0561L8.21477 24.7358C7.924 24.3611 7.45446 24.0251 6.90093 23.6072L5.60862 25.3324ZM8.84369 25.9592C8.65631 25.5069 8.49908 25.1041 8.21477 24.7358L6.51323 26.0561C6.58216 26.1466 6.62954 26.2392 6.85354 26.7798L8.84369 25.9592ZM21.0991 23.6094C20.5455 24.0229 20.076 24.3632 19.7852 24.7358L21.4868 26.0561C21.5514 25.9721 21.7043 25.8451 22.3914 25.3303L21.0991 23.6094ZM21.1465 26.782C21.3705 26.2414 21.4178 26.1466 21.4889 26.0561L19.7874 24.7358C19.5009 25.1041 19.3437 25.5069 19.1563 25.9592L21.1465 26.782Z" fill="#002B5C"/>
<path d="M19.3864 28.1238C15.9299 29.5068 12.0737 29.5068 8.61719 28.1238" stroke="#002B5C" stroke-width="1.45"/>
<path d="M11.8475 22.7389V13.585C11.8475 12.0989 10.6414 10.8927 9.1552 10.8927C7.66904 10.8927 6.46289 12.0989 6.46289 13.585C6.46289 15.0712 7.66904 16.2773 9.1552 16.2773H18.8475C20.3337 16.2773 21.5398 15.0712 21.5398 13.585C21.5398 12.0989 20.3337 10.8927 18.8475 10.8927C17.3613 10.8927 16.1552 12.0989 16.1552 13.585V22.7389" stroke="#002B5C" stroke-width="1.45" stroke-linecap="round"/>
</svg>
